<?xml version="1.0" encoding="utf-8" standalone="no"?>
<!DOCTYPE svg PUBLIC "-//W3C//DTD SVG 1.1//EN"
  "http://www.w3.org/Graphics/SVG/1.1/DTD/svg11.dtd">
<!-- Created with matplotlib (https://matplotlib.org/) -->
<svg height="345.6pt" version="1.1" viewBox="0 0 460.8 345.6" width="460.8pt" xmlns="http://www.w3.org/2000/svg" xmlns:xlink="http://www.w3.org/1999/xlink">
 <defs>
  <style type="text/css">
*{stroke-linecap:butt;stroke-linejoin:round;}
  </style>
 </defs>
 <g id="figure_1">
  <g id="patch_1">
   <path d="M 0 345.6 
L 460.8 345.6 
L 460.8 0 
L 0 0 
z
" style="fill:#ffffff;"/>
  </g>
  <g id="axes_1">
   <g id="patch_2">
    <path d="M 57.6 307.584 
L 343.296 307.584 
L 343.296 41.472 
L 57.6 41.472 
z
" style="fill:#ffffff;"/>
   </g>
   <g id="matplotlib.axis_1">
    <g id="xtick_1">
     <g id="line2d_1">
      <defs>
       <path d="M 0 0 
L 0 3.5 
" id="m30b437f2b9" style="stroke:#000000;stroke-width:0.8;"/>
      </defs>
      <g>
       <use style="stroke:#000000;stroke-width:0.8;" x="57.6" xlink:href="#m30b437f2b9" y="307.584"/>
      </g>
     </g>
     <g id="text_1">
      <!-- −10.0 -->
      <defs>
       <path d="M 10.59375 35.5 
L 73.1875 35.5 
L 73.1875 27.203125 
L 10.59375 27.203125 
z
" id="DejaVuSans-8722"/>
       <path d="M 12.40625 8.296875 
L 28.515625 8.296875 
L 28.515625 63.921875 
L 10.984375 60.40625 
L 10.984375 69.390625 
L 28.421875 72.90625 
L 38.28125 72.90625 
L 38.28125 8.296875 
L 54.390625 8.296875 
L 54.390625 0 
L 12.40625 0 
z
" id="DejaVuSans-49"/>
       <path d="M 31.78125 66.40625 
Q 24.171875 66.40625 20.328125 58.90625 
Q 16.5 51.421875 16.5 36.375 
Q 16.5 21.390625 20.328125 13.890625 
Q 24.171875 6.390625 31.78125 6.390625 
Q 39.453125 6.390625 43.28125 13.890625 
Q 47.125 21.390625 47.125 36.375 
Q 47.125 51.421875 43.28125 58.90625 
Q 39.453125 66.40625 31.78125 66.40625 
z
M 31.78125 74.21875 
Q 44.046875 74.21875 50.515625 64.515625 
Q 56.984375 54.828125 56.984375 36.375 
Q 56.984375 17.96875 50.515625 8.265625 
Q 44.046875 -1.421875 31.78125 -1.421875 
Q 19.53125 -1.421875 13.0625 8.265625 
Q 6.59375 17.96875 6.59375 36.375 
Q 6.59375 54.828125 13.0625 64.515625 
Q 19.53125 74.21875 31.78125 74.21875 
z
" id="DejaVuSans-48"/>
       <path d="M 10.6875 12.40625 
L 21 12.40625 
L 21 0 
L 10.6875 0 
z
" id="DejaVuSans-46"/>
      </defs>
      <g transform="translate(42.277344 322.182437)scale(0.1 -0.1)">
       <use xlink:href="#DejaVuSans-8722"/>
       <use x="83.789062" xlink:href="#DejaVuSans-49"/>
       <use x="147.412109" xlink:href="#DejaVuSans-48"/>
       <use x="211.035156" xlink:href="#DejaVuSans-46"/>
       <use x="242.822266" xlink:href="#DejaVuSans-48"/>
      </g>
     </g>
    </g>
    <g id="xtick_2">
     <g id="line2d_2">
      <g>
       <use style="stroke:#000000;stroke-width:0.8;" x="93.312" xlink:href="#m30b437f2b9" y="307.584"/>
      </g>
     </g>
     <g id="text_2">
      <!-- −7.5 -->
      <defs>
       <path d="M 8.203125 72.90625 
L 55.078125 72.90625 
L 55.078125 68.703125 
L 28.609375 0 
L 18.3125 0 
L 43.21875 64.59375 
L 8.203125 64.59375 
z
" id="DejaVuSans-55"/>
       <path d="M 10.796875 72.90625 
L 49.515625 72.90625 
L 49.515625 64.59375 
L 19.828125 64.59375 
L 19.828125 46.734375 
Q 21.96875 47.46875 24.109375 47.828125 
Q 26.265625 48.1875 28.421875 48.1875 
Q 40.625 48.1875 47.75 41.5 
Q 54.890625 34.8125 54.890625 23.390625 
Q 54.890625 11.625 47.5625 5.09375 
Q 40.234375 -1.421875 26.90625 -1.421875 
Q 22.3125 -1.421875 17.546875 -0.640625 
Q 12.796875 0.140625 7.71875 1.703125 
L 7.71875 11.625 
Q 12.109375 9.234375 16.796875 8.0625 
Q 21.484375 6.890625 26.703125 6.890625 
Q 35.15625 6.890625 40.078125 11.328125 
Q 45.015625 15.765625 45.015625 23.390625 
Q 45.015625 31 40.078125 35.4375 
Q 35.15625 39.890625 26.703125 39.890625 
Q 22.75 39.890625 18.8125 39.015625 
Q 14.890625 38.140625 10.796875 36.28125 
z
" id="DejaVuSans-53"/>
      </defs>
      <g transform="translate(81.170594 322.182437)scale(0.1 -0.1)">
       <use xlink:href="#DejaVuSans-8722"/>
       <use x="83.789062" xlink:href="#DejaVuSans-55"/>
       <use x="147.412109" xlink:href="#DejaVuSans-46"/>
       <use x="179.199219" xlink:href="#DejaVuSans-53"/>
      </g>
     </g>
    </g>
    <g id="xtick_3">
     <g id="line2d_3">
      <g>
       <use style="stroke:#000000;stroke-width:0.8;" x="129.024" xlink:href="#m30b437f2b9" y="307.584"/>
      </g>
     </g>
     <g id="text_3">
      <!-- −5.0 -->
      <g transform="translate(116.882594 322.182437)scale(0.1 -0.1)">
       <use xlink:href="#DejaVuSans-8722"/>
       <use x="83.789062" xlink:href="#DejaVuSans-53"/>
       <use x="147.412109" xlink:href="#DejaVuSans-46"/>
       <use x="179.199219" xlink:href="#DejaVuSans-48"/>
      </g>
     </g>
    </g>
    <g id="xtick_4">
     <g id="line2d_4">
      <g>
       <use style="stroke:#000000;stroke-width:0.8;" x="164.736" xlink:href="#m30b437f2b9" y="307.584"/>
      </g>
     </g>
     <g id="text_4">
      <!-- −2.5 -->
      <defs>
       <path d="M 19.1875 8.296875 
L 53.609375 8.296875 
L 53.609375 0 
L 7.328125 0 
L 7.328125 8.296875 
Q 12.9375 14.109375 22.625 23.890625 
Q 32.328125 33.6875 34.8125 36.53125 
Q 39.546875 41.84375 41.421875 45.53125 
Q 43.3125 49.21875 43.3125 52.78125 
Q 43.3125 58.59375 39.234375 62.25 
Q 35.15625 65.921875 28.609375 65.921875 
Q 23.96875 65.921875 18.8125 64.3125 
Q 13.671875 62.703125 7.8125 59.421875 
L 7.8125 69.390625 
Q 13.765625 71.78125 18.9375 73 
Q 24.125 74.21875 28.421875 74.21875 
Q 39.75 74.21875 46.484375 68.546875 
Q 53.21875 62.890625 53.21875 53.421875 
Q 53.21875 48.921875 51.53125 44.890625 
Q 49.859375 40.875 45.40625 35.40625 
Q 44.1875 33.984375 37.640625 27.21875 
Q 31.109375 20.453125 19.1875 8.296875 
z
" id="DejaVuSans-50"/>
      </defs>
      <g transform="translate(152.594594 322.182437)scale(0.1 -0.1)">
       <use xlink:href="#DejaVuSans-8722"/>
       <use x="83.789062" xlink:href="#DejaVuSans-50"/>
       <use x="147.412109" xlink:href="#DejaVuSans-46"/>
       <use x="179.199219" xlink:href="#DejaVuSans-53"/>
      </g>
     </g>
    </g>
    <g id="xtick_5">
     <g id="line2d_5">
      <g>
       <use style="stroke:#000000;stroke-width:0.8;" x="200.448" xlink:href="#m30b437f2b9" y="307.584"/>
      </g>
     </g>
     <g id="text_5">
      <!-- 0.0 -->
      <g transform="translate(192.496438 322.182437)scale(0.1 -0.1)">
       <use xlink:href="#DejaVuSans-48"/>
       <use x="63.623047" xlink:href="#DejaVuSans-46"/>
       <use x="95.410156" xlink:href="#DejaVuSans-48"/>
      </g>
     </g>
    </g>
    <g id="xtick_6">
     <g id="line2d_6">
      <g>
       <use style="stroke:#000000;stroke-width:0.8;" x="236.16" xlink:href="#m30b437f2b9" y="307.584"/>
      </g>
     </g>
     <g id="text_6">
      <!-- 2.5 -->
      <g transform="translate(228.208438 322.182437)scale(0.1 -0.1)">
       <use xlink:href="#DejaVuSans-50"/>
       <use x="63.623047" xlink:href="#DejaVuSans-46"/>
       <use x="95.410156" xlink:href="#DejaVuSans-53"/>
      </g>
     </g>
    </g>
    <g id="xtick_7">
     <g id="line2d_7">
      <g>
       <use style="stroke:#000000;stroke-width:0.8;" x="271.872" xlink:href="#m30b437f2b9" y="307.584"/>
      </g>
     </g>
     <g id="text_7">
      <!-- 5.0 -->
      <g transform="translate(263.920437 322.182437)scale(0.1 -0.1)">
       <use xlink:href="#DejaVuSans-53"/>
       <use x="63.623047" xlink:href="#DejaVuSans-46"/>
       <use x="95.410156" xlink:href="#DejaVuSans-48"/>
      </g>
     </g>
    </g>
    <g id="xtick_8">
     <g id="line2d_8">
      <g>
       <use style="stroke:#000000;stroke-width:0.8;" x="307.584" xlink:href="#m30b437f2b9" y="307.584"/>
      </g>
     </g>
     <g id="text_8">
      <!-- 7.5 -->
      <g transform="translate(299.632438 322.182437)scale(0.1 -0.1)">
       <use xlink:href="#DejaVuSans-55"/>
       <use x="63.623047" xlink:href="#DejaVuSans-46"/>
       <use x="95.410156" xlink:href="#DejaVuSans-53"/>
      </g>
     </g>
    </g>
    <g id="xtick_9">
     <g id="line2d_9">
      <g>
       <use style="stroke:#000000;stroke-width:0.8;" x="343.296" xlink:href="#m30b437f2b9" y="307.584"/>
      </g>
     </g>
     <g id="text_9">
      <!-- 10.0 -->
      <g transform="translate(332.163188 322.182437)scale(0.1 -0.1)">
       <use xlink:href="#DejaVuSans-49"/>
       <use x="63.623047" xlink:href="#DejaVuSans-48"/>
       <use x="127.246094" xlink:href="#DejaVuSans-46"/>
       <use x="159.033203" xlink:href="#DejaVuSans-48"/>
      </g>
     </g>
    </g>
   </g>
   <g id="matplotlib.axis_2">
    <g id="ytick_1">
     <g id="line2d_10">
      <defs>
       <path d="M 0 0 
L -3.5 0 
" id="m6cb2478553" style="stroke:#000000;stroke-width:0.8;"/>
      </defs>
      <g>
       <use style="stroke:#000000;stroke-width:0.8;" x="57.6" xlink:href="#m6cb2478553" y="307.584"/>
      </g>
     </g>
     <g id="text_10">
      <!-- −10.0 -->
      <g transform="translate(19.954687 311.383219)scale(0.1 -0.1)">
       <use xlink:href="#DejaVuSans-8722"/>
       <use x="83.789062" xlink:href="#DejaVuSans-49"/>
       <use x="147.412109" xlink:href="#DejaVuSans-48"/>
       <use x="211.035156" xlink:href="#DejaVuSans-46"/>
       <use x="242.822266" xlink:href="#DejaVuSans-48"/>
      </g>
     </g>
    </g>
    <g id="ytick_2">
     <g id="line2d_11">
      <g>
       <use style="stroke:#000000;stroke-width:0.8;" x="57.6" xlink:href="#m6cb2478553" y="274.32"/>
      </g>
     </g>
     <g id="text_11">
      <!-- −7.5 -->
      <g transform="translate(26.317187 278.119219)scale(0.1 -0.1)">
       <use xlink:href="#DejaVuSans-8722"/>
       <use x="83.789062" xlink:href="#DejaVuSans-55"/>
       <use x="147.412109" xlink:href="#DejaVuSans-46"/>
       <use x="179.199219" xlink:href="#DejaVuSans-53"/>
      </g>
     </g>
    </g>
    <g id="ytick_3">
     <g id="line2d_12">
      <g>
       <use style="stroke:#000000;stroke-width:0.8;" x="57.6" xlink:href="#m6cb2478553" y="241.056"/>
      </g>
     </g>
     <g id="text_12">
      <!-- −5.0 -->
      <g transform="translate(26.317187 244.855219)scale(0.1 -0.1)">
       <use xlink:href="#DejaVuSans-8722"/>
       <use x="83.789062" xlink:href="#DejaVuSans-53"/>
       <use x="147.412109" xlink:href="#DejaVuSans-46"/>
       <use x="179.199219" xlink:href="#DejaVuSans-48"/>
      </g>
     </g>
    </g>
    <g id="ytick_4">
     <g id="line2d_13">
      <g>
       <use style="stroke:#000000;stroke-width:0.8;" x="57.6" xlink:href="#m6cb2478553" y="207.792"/>
      </g>
     </g>
     <g id="text_13">
      <!-- −2.5 -->
      <g transform="translate(26.317187 211.591219)scale(0.1 -0.1)">
       <use xlink:href="#DejaVuSans-8722"/>
       <use x="83.789062" xlink:href="#DejaVuSans-50"/>
       <use x="147.412109" xlink:href="#DejaVuSans-46"/>
       <use x="179.199219" xlink:href="#DejaVuSans-53"/>
      </g>
     </g>
    </g>
    <g id="ytick_5">
     <g id="line2d_14">
      <g>
       <use style="stroke:#000000;stroke-width:0.8;" x="57.6" xlink:href="#m6cb2478553" y="174.528"/>
      </g>
     </g>
     <g id="text_14">
      <!-- 0.0 -->
      <g transform="translate(34.696875 178.327219)scale(0.1 -0.1)">
       <use xlink:href="#DejaVuSans-48"/>
       <use x="63.623047" xlink:href="#DejaVuSans-46"/>
       <use x="95.410156" xlink:href="#DejaVuSans-48"/>
      </g>
     </g>
    </g>
    <g id="ytick_6">
     <g id="line2d_15">
      <g>
       <use style="stroke:#000000;stroke-width:0.8;" x="57.6" xlink:href="#m6cb2478553" y="141.264"/>
      </g>
     </g>
     <g id="text_15">
      <!-- 2.5 -->
      <g transform="translate(34.696875 145.063219)scale(0.1 -0.1)">
       <use xlink:href="#DejaVuSans-50"/>
       <use x="63.623047" xlink:href="#DejaVuSans-46"/>
       <use x="95.410156" xlink:href="#DejaVuSans-53"/>
      </g>
     </g>
    </g>
    <g id="ytick_7">
     <g id="line2d_16">
      <g>
       <use style="stroke:#000000;stroke-width:0.8;" x="57.6" xlink:href="#m6cb2478553" y="108"/>
      </g>
     </g>
     <g id="text_16">
      <!-- 5.0 -->
      <g transform="translate(34.696875 111.799219)scale(0.1 -0.1)">
       <use xlink:href="#DejaVuSans-53"/>
       <use x="63.623047" xlink:href="#DejaVuSans-46"/>
       <use x="95.410156" xlink:href="#DejaVuSans-48"/>
      </g>
     </g>
    </g>
    <g id="ytick_8">
     <g id="line2d_17">
      <g>
       <use style="stroke:#000000;stroke-width:0.8;" x="57.6" xlink:href="#m6cb2478553" y="74.736"/>
      </g>
     </g>
     <g id="text_17">
      <!-- 7.5 -->
      <g transform="translate(34.696875 78.535219)scale(0.1 -0.1)">
       <use xlink:href="#DejaVuSans-55"/>
       <use x="63.623047" xlink:href="#DejaVuSans-46"/>
       <use x="95.410156" xlink:href="#DejaVuSans-53"/>
      </g>
     </g>
    </g>
    <g id="ytick_9">
     <g id="line2d_18">
      <g>
       <use style="stroke:#000000;stroke-width:0.8;" x="57.6" xlink:href="#m6cb2478553" y="41.472"/>
      </g>
     </g>
     <g id="text_18">
      <!-- 10.0 -->
      <g transform="translate(28.334375 45.271219)scale(0.1 -0.1)">
       <use xlink:href="#DejaVuSans-49"/>
       <use x="63.623047" xlink:href="#DejaVuSans-48"/>
       <use x="127.246094" xlink:href="#DejaVuSans-46"/>
       <use x="159.033203" xlink:href="#DejaVuSans-48"/>
      </g>
     </g>
    </g>
   </g>
   <g id="LineCollection_1"/>
   <g id="LineCollection_2">
    <path clip-path="url(#pd8dde8f91d)" d="M 343.296 239.849736 
L 280.316922 237.066329 
L 224.780826 234.349861 
L 174.397563 231.643323 
L 128.594597 228.952761 
L 86.799391 226.275159 
L 57.6 224.258978 
L 57.6 224.258978 
" style="fill:none;stroke:#00f784;stroke-width:1.5;"/>
    <path clip-path="url(#pd8dde8f91d)" d="M 57.6 124.797022 
L 91.952224 122.437326 
L 137.182653 119.580504 
L 180.695471 117.060296 
L 231.651271 114.355696 
L 284.897218 111.77681 
L 343.296 109.206264 
L 343.296 109.206264 
" style="fill:none;stroke:#00f784;stroke-width:1.5;"/>
   </g>
   <g id="LineCollection_3">
    <path clip-path="url(#pd8dde8f91d)" d="M 343.296 250.030974 
L 282.60707 247.659322 
L 215.047695 244.803951 
L 157.221451 242.157996 
L 102.257892 239.448698 
L 57.6 237.089704 
L 57.6 237.089704 
" style="fill:none;stroke:#00ee88;stroke-width:1.5;"/>
    <path clip-path="url(#pd8dde8f91d)" d="M 57.6 111.966296 
L 106.265651 109.403114 
L 161.22921 106.708163 
L 218.482918 104.101233 
L 281.461996 101.443213 
L 343.296 99.025026 
L 343.296 99.025026 
" style="fill:none;stroke:#00ee88;stroke-width:1.5;"/>
   </g>
   <g id="LineCollection_4">
    <path clip-path="url(#pd8dde8f91d)" d="M 343.296 256.968318 
L 273.446477 254.431989 
L 201.879343 251.642158 
L 138.327727 248.983323 
L 77.638798 246.267588 
L 57.6 245.328232 
L 57.6 245.328232 
" style="fill:none;stroke:#00e68c;stroke-width:1.5;"/>
    <path clip-path="url(#pd8dde8f91d)" d="M 57.6 103.727768 
L 126.876986 100.57156 
L 202.45188 97.390872 
L 283.752144 94.237716 
L 343.296 92.087682 
L 343.296 92.087682 
" style="fill:none;stroke:#00e68c;stroke-width:1.5;"/>
   </g>
   <g id="LineCollection_5">
    <path clip-path="url(#pd8dde8f91d)" d="M 343.296 262.383193 
L 261.995735 259.58655 
L 169.244729 256.138204 
L 91.379687 253.009246 
L 57.6 251.578796 
L 57.6 251.578796 
" style="fill:none;stroke:#00dd90;stroke-width:1.5;"/>
    <path clip-path="url(#pd8dde8f91d)" d="M 57.6 97.477204 
L 122.296689 94.775912 
L 209.322325 91.392945 
L 294.630349 88.323247 
L 343.296 86.672807 
L 343.296 86.672807 
" style="fill:none;stroke:#00dd90;stroke-width:1.5;"/>
   </g>
   <g id="LineCollection_6">
    <path clip-path="url(#pd8dde8f91d)" d="M 343.296 266.887542 
L 245.964697 263.671992 
L 154.358766 260.409527 
L 70.195816 257.18674 
L 57.6 256.684203 
L 57.6 256.684203 
" style="fill:none;stroke:#00d594;stroke-width:1.5;"/>
    <path clip-path="url(#pd8dde8f91d)" d="M 57.6 92.371797 
L 137.182653 89.285685 
L 226.498437 86.057321 
L 319.249443 82.940123 
L 343.296 82.168458 
L 343.296 82.168458 
" style="fill:none;stroke:#00d594;stroke-width:1.5;"/>
   </g>
   <g id="LineCollection_7">
    <path clip-path="url(#pd8dde8f91d)" d="M 343.296 270.777466 
L 232.223808 267.232158 
L 142.335487 264.146013 
L 57.6 261.038514 
L 57.6 261.038514 
" style="fill:none;stroke:#00cc99;stroke-width:1.5;"/>
    <path clip-path="url(#pd8dde8f91d)" d="M 57.6 88.017486 
L 140.045339 84.991311 
L 234.513956 81.747983 
L 332.417796 78.614357 
L 343.296 78.278534 
L 343.296 78.278534 
" style="fill:none;stroke:#00cc99;stroke-width:1.5;"/>
   </g>
   <g id="LineCollection_8">
    <path clip-path="url(#pd8dde8f91d)" d="M 343.296 274.217572 
L 240.239327 271.048572 
L 140.617876 267.768518 
L 57.6 264.855734 
L 57.6 264.855734 
" style="fill:none;stroke:#00c49d;stroke-width:1.5;"/>
    <path clip-path="url(#pd8dde8f91d)" d="M 57.6 84.200266 
L 141.76295 81.248563 
L 241.956938 77.952765 
L 342.723463 74.855419 
L 343.296 74.838428 
L 343.296 74.838428 
" style="fill:none;stroke:#00c49d;stroke-width:1.5;"/>
   </g>
   <g id="LineCollection_9">
    <path clip-path="url(#pd8dde8f91d)" d="M 343.296 277.316498 
L 240.239327 274.240295 
L 136.037579 270.91991 
L 57.6 268.266973 
L 57.6 268.266973 
" style="fill:none;stroke:#00bba2;stroke-width:1.5;"/>
    <path clip-path="url(#pd8dde8f91d)" d="M 57.6 80.789027 
L 162.374285 77.27535 
L 257.415439 74.289198 
L 343.296 71.739502 
L 343.296 71.739502 
" style="fill:none;stroke:#00bba2;stroke-width:1.5;"/>
   </g>
   <g id="LineCollection_10">
    <path clip-path="url(#pd8dde8f91d)" d="M 343.296 280.143189 
L 227.643511 276.769173 
L 125.731912 273.596055 
L 57.6 271.361422 
L 57.6 271.361422 
" style="fill:none;stroke:#00b3a6;stroke-width:1.5;"/>
    <path clip-path="url(#pd8dde8f91d)" d="M 57.6 77.694578 
L 172.679952 73.973194 
L 295.202886 70.287243 
L 343.296 68.912811 
L 343.296 68.912811 
" style="fill:none;stroke:#00b3a6;stroke-width:1.5;"/>
   </g>
   <g id="LineCollection_11">
    <path clip-path="url(#pd8dde8f91d)" d="M 343.296 282.748647 
L 226.498437 279.421053 
L 121.151615 276.224171 
L 57.6 274.197987 
L 57.6 274.197987 
" style="fill:none;stroke:#00aaaa;stroke-width:1.5;"/>
    <path clip-path="url(#pd8dde8f91d)" d="M 57.6 74.858013 
L 169.244729 71.347718 
L 270.583792 68.353517 
L 343.296 66.307353 
L 343.296 66.307353 
" style="fill:none;stroke:#00aaaa;stroke-width:1.5;"/>
   </g>
   <g id="LineCollection_12">
    <path clip-path="url(#pd8dde8f91d)" d="M 343.296 285.170404 
L 207.032176 281.351002 
L 82.219094 277.595541 
L 57.6 276.823157 
L 57.6 276.823157 
" style="fill:none;stroke:#00a2ae;stroke-width:1.5;"/>
    <path clip-path="url(#pd8dde8f91d)" d="M 57.6 72.232843 
L 175.542637 68.627838 
L 306.653627 64.885613 
L 343.296 63.885596 
L 343.296 63.885596 
" style="fill:none;stroke:#00a2ae;stroke-width:1.5;"/>
   </g>
   <g id="LineCollection_13">
    <path clip-path="url(#pd8dde8f91d)" d="M 343.296 287.434206 
L 224.208289 284.178425 
L 113.136096 280.954912 
L 57.6 279.270055 
L 57.6 279.270055 
" style="fill:none;stroke:#0099b2;stroke-width:1.5;"/>
    <path clip-path="url(#pd8dde8f91d)" d="M 57.6 69.785945 
L 162.946822 66.632407 
L 275.736625 63.44455 
L 343.296 61.621794 
L 343.296 61.621794 
" style="fill:none;stroke:#0099b2;stroke-width:1.5;"/>
   </g>
   <g id="LineCollection_14">
    <path clip-path="url(#pd8dde8f91d)" d="M 343.296 289.563986 
L 220.773066 286.273085 
L 108.5558 283.076821 
L 57.6 281.563301 
L 57.6 281.563301 
" style="fill:none;stroke:#0091b6;stroke-width:1.5;"/>
    <path clip-path="url(#pd8dde8f91d)" d="M 57.6 67.492699 
L 186.420842 63.742736 
L 321.539591 60.061935 
L 343.296 59.492014 
L 343.296 59.492014 
" style="fill:none;stroke:#0091b6;stroke-width:1.5;"/>
   </g>
   <g id="LineCollection_15">
    <path clip-path="url(#pd8dde8f91d)" d="M 343.296 291.577133 
L 195.581435 287.652103 
L 65.042982 283.943085 
L 57.6 283.724386 
L 57.6 283.724386 
" style="fill:none;stroke:#0088bb;stroke-width:1.5;"/>
    <path clip-path="url(#pd8dde8f91d)" d="M 57.6 65.331614 
L 188.71099 61.593118 
L 326.692425 57.90689 
L 343.296 57.478867 
L 343.296 57.478867 
" style="fill:none;stroke:#0088bb;stroke-width:1.5;"/>
   </g>
   <g id="LineCollection_16">
    <path clip-path="url(#pd8dde8f91d)" d="M 343.296 293.485743 
L 204.169491 289.856873 
L 66.188056 286.016937 
L 57.6 285.770057 
L 57.6 285.770057 
" style="fill:none;stroke:#007fc0;stroke-width:1.5;"/>
    <path clip-path="url(#pd8dde8f91d)" d="M 57.6 63.285943 
L 197.299046 59.384677 
L 334.707944 55.787222 
L 343.296 55.570257 
L 343.296 55.570257 
" style="fill:none;stroke:#007fc0;stroke-width:1.5;"/>
   </g>
   <g id="LineCollection_17">
    <path clip-path="url(#pd8dde8f91d)" d="M 343.296 295.304564 
L 188.71099 291.318253 
L 57.6 287.71251 
L 57.6 287.71251 
" style="fill:none;stroke:#0077c3;stroke-width:1.5;"/>
    <path clip-path="url(#pd8dde8f91d)" d="M 57.6 61.34349 
L 181.840545 57.920941 
L 329.55511 54.095452 
L 343.296 53.751436 
L 343.296 53.751436 
" style="fill:none;stroke:#0077c3;stroke-width:1.5;"/>
   </g>
   <g id="LineCollection_18">
    <path clip-path="url(#pd8dde8f91d)" d="M 343.296 297.040196 
L 208.177251 293.621114 
L 61.60776 289.675461 
L 57.6 289.564171 
L 57.6 289.564171 
" style="fill:none;stroke:#006ec8;stroke-width:1.5;"/>
    <path clip-path="url(#pd8dde8f91d)" d="M 57.6 59.491829 
L 200.734269 55.629475 
L 343.296 52.015804 
L 343.296 52.015804 
" style="fill:none;stroke:#006ec8;stroke-width:1.5;"/>
   </g>
   <g id="LineCollection_19">
    <path clip-path="url(#pd8dde8f91d)" d="M 343.296 298.702547 
L 201.879343 295.167235 
L 57.6 291.333536 
L 57.6 291.333536 
" style="fill:none;stroke:#0066cc;stroke-width:1.5;"/>
    <path clip-path="url(#pd8dde8f91d)" d="M 57.6 57.722464 
L 193.863824 54.095607 
L 343.296 50.353453 
L 343.296 50.353453 
" style="fill:none;stroke:#0066cc;stroke-width:1.5;"/>
   </g>
   <g id="LineCollection_20">
    <path clip-path="url(#pd8dde8f91d)" d="M 343.296 300.298367 
L 199.589194 296.749756 
L 57.6 293.029379 
L 57.6 293.029379 
" style="fill:none;stroke:#005dd0;stroke-width:1.5;"/>
    <path clip-path="url(#pd8dde8f91d)" d="M 57.6 56.026621 
L 191.573675 52.5104 
L 343.296 48.757633 
L 343.296 48.757633 
" style="fill:none;stroke:#005dd0;stroke-width:1.5;"/>
   </g>
   <g id="LineCollection_21">
    <path clip-path="url(#pd8dde8f91d)" d="M 343.296 301.833608 
L 200.161731 298.342099 
L 57.6 294.657993 
L 57.6 294.657993 
" style="fill:none;stroke:#0055d4;stroke-width:1.5;"/>
    <path clip-path="url(#pd8dde8f91d)" d="M 57.6 54.398007 
L 192.718749 50.900975 
L 343.296 47.222392 
L 343.296 47.222392 
" style="fill:none;stroke:#0055d4;stroke-width:1.5;"/>
   </g>
   <g id="LineCollection_22">
    <path clip-path="url(#pd8dde8f91d)" d="M 343.296 303.313625 
L 172.679952 299.176894 
L 57.6 296.225126 
L 57.6 296.225126 
" style="fill:none;stroke:#004cd9;stroke-width:1.5;"/>
    <path clip-path="url(#pd8dde8f91d)" d="M 57.6 52.830874 
L 197.299046 49.265273 
L 343.296 45.742375 
L 343.296 45.742375 
" style="fill:none;stroke:#004cd9;stroke-width:1.5;"/>
   </g>
   <g id="LineCollection_23">
    <path clip-path="url(#pd8dde8f91d)" d="M 343.296 304.741263 
L 180.695471 300.84931 
L 57.6 297.736029 
L 57.6 297.736029 
" style="fill:none;stroke:#0044dd;stroke-width:1.5;"/>
    <path clip-path="url(#pd8dde8f91d)" d="M 57.6 51.319971 
L 205.314565 47.601819 
L 343.296 44.314737 
L 343.296 44.314737 
" style="fill:none;stroke:#0044dd;stroke-width:1.5;"/>
   </g>
   <g id="LineCollection_24">
    <path clip-path="url(#pd8dde8f91d)" d="M 343.296 306.122597 
L 191.573675 302.536787 
L 57.6 299.195504 
L 57.6 299.195504 
" style="fill:none;stroke:#003be2;stroke-width:1.5;"/>
    <path clip-path="url(#pd8dde8f91d)" d="M 57.6 49.860496 
L 216.765307 45.909603 
L 343.296 42.933403 
L 343.296 42.933403 
" style="fill:none;stroke:#003be2;stroke-width:1.5;"/>
   </g>
   <g id="LineCollection_25">
    <path clip-path="url(#pd8dde8f91d)" d="M 343.296 307.460243 
L 172.107415 303.441087 
L 57.6 300.607411 
L 57.6 300.607411 
" style="fill:none;stroke:#0033e6;stroke-width:1.5;"/>
    <path clip-path="url(#pd8dde8f91d)" d="M 57.6 48.448589 
L 197.871583 44.993983 
L 343.296 41.595757 
L 343.296 41.595757 
" style="fill:none;stroke:#0033e6;stroke-width:1.5;"/>
   </g>
   <g id="LineCollection_26">
    <path clip-path="url(#pd8dde8f91d)" d="M 291.703869 307.584 
L 111.991022 303.321097 
L 57.6 301.974039 
L 57.6 301.974039 
" style="fill:none;stroke:#002aea;stroke-width:1.5;"/>
    <path clip-path="url(#pd8dde8f91d)" d="M 57.6 47.081961 
L 214.475158 43.270812 
L 291.703869 41.472 
L 291.703869 41.472 
" style="fill:none;stroke:#002aea;stroke-width:1.5;"/>
   </g>
   <g id="LineCollection_27">
    <path clip-path="url(#pd8dde8f91d)" d="M 236.427765 307.584 
L 57.6 303.300726 
L 57.6 303.300726 
" style="fill:none;stroke:#0022ee;stroke-width:1.5;"/>
    <path clip-path="url(#pd8dde8f91d)" d="M 57.6 45.755274 
L 200.734269 42.306004 
L 236.427765 41.472 
L 236.427765 41.472 
" style="fill:none;stroke:#0022ee;stroke-width:1.5;"/>
   </g>
   <g id="LineCollection_28">
    <path clip-path="url(#pd8dde8f91d)" d="M 182.736507 307.584 
L 57.6 304.587619 
L 57.6 304.587619 
" style="fill:none;stroke:#0019f2;stroke-width:1.5;"/>
    <path clip-path="url(#pd8dde8f91d)" d="M 57.6 44.468381 
L 182.736507 41.472 
L 182.736507 41.472 
" style="fill:none;stroke:#0019f2;stroke-width:1.5;"/>
   </g>
   <g id="LineCollection_29">
    <path clip-path="url(#pd8dde8f91d)" d="M 130.501123 307.584 
L 57.6 305.839346 
L 57.6 305.839346 
" style="fill:none;stroke:#0011f6;stroke-width:1.5;"/>
    <path clip-path="url(#pd8dde8f91d)" d="M 57.6 43.216654 
L 130.501123 41.472 
L 130.501123 41.472 
" style="fill:none;stroke:#0011f6;stroke-width:1.5;"/>
   </g>
   <g id="LineCollection_30">
    <path clip-path="url(#pd8dde8f91d)" d="M 79.609246 307.584 
L 79.356409 307.577944 
L 78.783872 307.564231 
L 78.211335 307.550519 
L 77.638798 307.536808 
L 77.066261 307.523099 
L 76.493723 307.509391 
L 75.921186 307.495685 
L 75.348649 307.48198 
L 74.776112 307.468277 
L 74.203575 307.454575 
L 73.631038 307.440874 
L 73.058501 307.427175 
L 72.485964 307.413477 
L 71.913427 307.399781 
L 71.34089 307.386086 
L 70.768353 307.372392 
L 70.195816 307.3587 
L 69.623279 307.345009 
L 69.050741 307.33132 
L 68.478204 307.317632 
L 67.905667 307.303945 
L 67.33313 307.29026 
L 66.760593 307.276577 
L 66.188056 307.262895 
L 65.615519 307.249214 
L 65.042982 307.235534 
L 64.470445 307.221856 
L 63.897908 307.20818 
L 63.325371 307.194504 
L 62.752834 307.180831 
L 62.180297 307.167158 
L 61.60776 307.153487 
L 61.035222 307.139817 
L 60.462685 307.126149 
L 59.890148 307.112482 
L 59.317611 307.098817 
L 58.745074 307.085153 
L 58.172537 307.07149 
L 57.6 307.057829 
" style="fill:none;stroke:#0008fb;stroke-width:1.5;"/>
    <path clip-path="url(#pd8dde8f91d)" d="M 57.6 41.998171 
L 58.172537 41.98451 
L 58.745074 41.970847 
L 59.317611 41.957183 
L 59.890148 41.943518 
L 60.462685 41.929851 
L 61.035222 41.916183 
L 61.60776 41.902513 
L 62.180297 41.888842 
L 62.752834 41.875169 
L 63.325371 41.861496 
L 63.897908 41.84782 
L 64.470445 41.834144 
L 65.042982 41.820466 
L 65.615519 41.806786 
L 66.188056 41.793105 
L 66.760593 41.779423 
L 67.33313 41.76574 
L 67.905667 41.752055 
L 68.478204 41.738368 
L 69.050741 41.72468 
L 69.623279 41.710991 
L 70.195816 41.6973 
L 70.768353 41.683608 
L 71.34089 41.669914 
L 71.913427 41.656219 
L 72.485964 41.642523 
L 73.058501 41.628825 
L 73.631038 41.615126 
L 74.203575 41.601425 
L 74.776112 41.587723 
L 75.348649 41.57402 
L 75.921186 41.560315 
L 76.493723 41.546609 
L 77.066261 41.532901 
L 77.638798 41.519192 
L 78.211335 41.505481 
L 78.783872 41.491769 
L 79.356409 41.478056 
L 79.609246 41.472 
" style="fill:none;stroke:#0008fb;stroke-width:1.5;"/>
   </g>
   <g id="LineCollection_31"/>
   <g id="patch_3">
    <path d="M 57.6 307.584 
L 57.6 41.472 
" style="fill:none;stroke:#000000;stroke-linecap:square;stroke-linejoin:miter;stroke-width:0.8;"/>
   </g>
   <g id="patch_4">
    <path d="M 343.296 307.584 
L 343.296 41.472 
" style="fill:none;stroke:#000000;stroke-linecap:square;stroke-linejoin:miter;stroke-width:0.8;"/>
   </g>
   <g id="patch_5">
    <path d="M 57.6 307.584 
L 343.296 307.584 
" style="fill:none;stroke:#000000;stroke-linecap:square;stroke-linejoin:miter;stroke-width:0.8;"/>
   </g>
   <g id="patch_6">
    <path d="M 57.6 41.472 
L 343.296 41.472 
" style="fill:none;stroke:#000000;stroke-linecap:square;stroke-linejoin:miter;stroke-width:0.8;"/>
   </g>
  </g>
  <g id="axes_2">
   <g id="patch_7">
    <path clip-path="url(#p8d7809f998)" d="M 361.152 307.584 
L 361.152 298.7136 
L 361.152 50.3424 
L 361.152 41.472 
L 374.4576 41.472 
L 374.4576 50.3424 
L 374.4576 298.7136 
L 374.4576 307.584 
z
" style="fill:#ffffff;stroke:#ffffff;stroke-linejoin:miter;stroke-width:0.01;"/>
   </g>
   <g id="matplotlib.axis_3"/>
   <g id="matplotlib.axis_4">
    <g id="ytick_10">
     <g id="line2d_19">
      <defs>
       <path d="M 0 0 
L 3.5 0 
" id="m76136f3427" style="stroke:#000000;stroke-width:0.8;"/>
      </defs>
      <g>
       <use style="stroke:#000000;stroke-width:0.8;" x="374.4576" xlink:href="#m76136f3427" y="307.584"/>
      </g>
     </g>
     <g id="text_19">
      <!-- 0 -->
      <g transform="translate(381.4576 311.383219)scale(0.1 -0.1)">
       <use xlink:href="#DejaVuSans-48"/>
      </g>
     </g>
    </g>
    <g id="ytick_11">
     <g id="line2d_20">
      <g>
       <use style="stroke:#000000;stroke-width:0.8;" x="374.4576" xlink:href="#m76136f3427" y="272.1024"/>
      </g>
     </g>
     <g id="text_20">
      <!-- 12000 -->
      <g transform="translate(381.4576 275.901619)scale(0.1 -0.1)">
       <use xlink:href="#DejaVuSans-49"/>
       <use x="63.623047" xlink:href="#DejaVuSans-50"/>
       <use x="127.246094" xlink:href="#DejaVuSans-48"/>
       <use x="190.869141" xlink:href="#DejaVuSans-48"/>
       <use x="254.492188" xlink:href="#DejaVuSans-48"/>
      </g>
     </g>
    </g>
    <g id="ytick_12">
     <g id="line2d_21">
      <g>
       <use style="stroke:#000000;stroke-width:0.8;" x="374.4576" xlink:href="#m76136f3427" y="236.6208"/>
      </g>
     </g>
     <g id="text_21">
      <!-- 24000 -->
      <defs>
       <path d="M 37.796875 64.3125 
L 12.890625 25.390625 
L 37.796875 25.390625 
z
M 35.203125 72.90625 
L 47.609375 72.90625 
L 47.609375 25.390625 
L 58.015625 25.390625 
L 58.015625 17.1875 
L 47.609375 17.1875 
L 47.609375 0 
L 37.796875 0 
L 37.796875 17.1875 
L 4.890625 17.1875 
L 4.890625 26.703125 
z
" id="DejaVuSans-52"/>
      </defs>
      <g transform="translate(381.4576 240.420019)scale(0.1 -0.1)">
       <use xlink:href="#DejaVuSans-50"/>
       <use x="63.623047" xlink:href="#DejaVuSans-52"/>
       <use x="127.246094" xlink:href="#DejaVuSans-48"/>
       <use x="190.869141" xlink:href="#DejaVuSans-48"/>
       <use x="254.492188" xlink:href="#DejaVuSans-48"/>
      </g>
     </g>
    </g>
    <g id="ytick_13">
     <g id="line2d_22">
      <g>
       <use style="stroke:#000000;stroke-width:0.8;" x="374.4576" xlink:href="#m76136f3427" y="201.1392"/>
      </g>
     </g>
     <g id="text_22">
      <!-- 36000 -->
      <defs>
       <path d="M 40.578125 39.3125 
Q 47.65625 37.796875 51.625 33 
Q 55.609375 28.21875 55.609375 21.1875 
Q 55.609375 10.40625 48.1875 4.484375 
Q 40.765625 -1.421875 27.09375 -1.421875 
Q 22.515625 -1.421875 17.65625 -0.515625 
Q 12.796875 0.390625 7.625 2.203125 
L 7.625 11.71875 
Q 11.71875 9.328125 16.59375 8.109375 
Q 21.484375 6.890625 26.8125 6.890625 
Q 36.078125 6.890625 40.9375 10.546875 
Q 45.796875 14.203125 45.796875 21.1875 
Q 45.796875 27.640625 41.28125 31.265625 
Q 36.765625 34.90625 28.71875 34.90625 
L 20.21875 34.90625 
L 20.21875 43.015625 
L 29.109375 43.015625 
Q 36.375 43.015625 40.234375 45.921875 
Q 44.09375 48.828125 44.09375 54.296875 
Q 44.09375 59.90625 40.109375 62.90625 
Q 36.140625 65.921875 28.71875 65.921875 
Q 24.65625 65.921875 20.015625 65.03125 
Q 15.375 64.15625 9.8125 62.3125 
L 9.8125 71.09375 
Q 15.4375 72.65625 20.34375 73.4375 
Q 25.25 74.21875 29.59375 74.21875 
Q 40.828125 74.21875 47.359375 69.109375 
Q 53.90625 64.015625 53.90625 55.328125 
Q 53.90625 49.265625 50.4375 45.09375 
Q 46.96875 40.921875 40.578125 39.3125 
z
" id="DejaVuSans-51"/>
       <path d="M 33.015625 40.375 
Q 26.375 40.375 22.484375 35.828125 
Q 18.609375 31.296875 18.609375 23.390625 
Q 18.609375 15.53125 22.484375 10.953125 
Q 26.375 6.390625 33.015625 6.390625 
Q 39.65625 6.390625 43.53125 10.953125 
Q 47.40625 15.53125 47.40625 23.390625 
Q 47.40625 31.296875 43.53125 35.828125 
Q 39.65625 40.375 33.015625 40.375 
z
M 52.59375 71.296875 
L 52.59375 62.3125 
Q 48.875 64.0625 45.09375 64.984375 
Q 41.3125 65.921875 37.59375 65.921875 
Q 27.828125 65.921875 22.671875 59.328125 
Q 17.53125 52.734375 16.796875 39.40625 
Q 19.671875 43.65625 24.015625 45.921875 
Q 28.375 48.1875 33.59375 48.1875 
Q 44.578125 48.1875 50.953125 41.515625 
Q 57.328125 34.859375 57.328125 23.390625 
Q 57.328125 12.15625 50.6875 5.359375 
Q 44.046875 -1.421875 33.015625 -1.421875 
Q 20.359375 -1.421875 13.671875 8.265625 
Q 6.984375 17.96875 6.984375 36.375 
Q 6.984375 53.65625 15.1875 63.9375 
Q 23.390625 74.21875 37.203125 74.21875 
Q 40.921875 74.21875 44.703125 73.484375 
Q 48.484375 72.75 52.59375 71.296875 
z
" id="DejaVuSans-54"/>
      </defs>
      <g transform="translate(381.4576 204.938419)scale(0.1 -0.1)">
       <use xlink:href="#DejaVuSans-51"/>
       <use x="63.623047" xlink:href="#DejaVuSans-54"/>
       <use x="127.246094" xlink:href="#DejaVuSans-48"/>
       <use x="190.869141" xlink:href="#DejaVuSans-48"/>
       <use x="254.492188" xlink:href="#DejaVuSans-48"/>
      </g>
     </g>
    </g>
    <g id="ytick_14">
     <g id="line2d_23">
      <g>
       <use style="stroke:#000000;stroke-width:0.8;" x="374.4576" xlink:href="#m76136f3427" y="165.6576"/>
      </g>
     </g>
     <g id="text_23">
      <!-- 48000 -->
      <defs>
       <path d="M 31.78125 34.625 
Q 24.75 34.625 20.71875 30.859375 
Q 16.703125 27.09375 16.703125 20.515625 
Q 16.703125 13.921875 20.71875 10.15625 
Q 24.75 6.390625 31.78125 6.390625 
Q 38.8125 6.390625 42.859375 10.171875 
Q 46.921875 13.96875 46.921875 20.515625 
Q 46.921875 27.09375 42.890625 30.859375 
Q 38.875 34.625 31.78125 34.625 
z
M 21.921875 38.8125 
Q 15.578125 40.375 12.03125 44.71875 
Q 8.5 49.078125 8.5 55.328125 
Q 8.5 64.0625 14.71875 69.140625 
Q 20.953125 74.21875 31.78125 74.21875 
Q 42.671875 74.21875 48.875 69.140625 
Q 55.078125 64.0625 55.078125 55.328125 
Q 55.078125 49.078125 51.53125 44.71875 
Q 48 40.375 41.703125 38.8125 
Q 48.828125 37.15625 52.796875 32.3125 
Q 56.78125 27.484375 56.78125 20.515625 
Q 56.78125 9.90625 50.3125 4.234375 
Q 43.84375 -1.421875 31.78125 -1.421875 
Q 19.734375 -1.421875 13.25 4.234375 
Q 6.78125 9.90625 6.78125 20.515625 
Q 6.78125 27.484375 10.78125 32.3125 
Q 14.796875 37.15625 21.921875 38.8125 
z
M 18.3125 54.390625 
Q 18.3125 48.734375 21.84375 45.5625 
Q 25.390625 42.390625 31.78125 42.390625 
Q 38.140625 42.390625 41.71875 45.5625 
Q 45.3125 48.734375 45.3125 54.390625 
Q 45.3125 60.0625 41.71875 63.234375 
Q 38.140625 66.40625 31.78125 66.40625 
Q 25.390625 66.40625 21.84375 63.234375 
Q 18.3125 60.0625 18.3125 54.390625 
z
" id="DejaVuSans-56"/>
      </defs>
      <g transform="translate(381.4576 169.456819)scale(0.1 -0.1)">
       <use xlink:href="#DejaVuSans-52"/>
       <use x="63.623047" xlink:href="#DejaVuSans-56"/>
       <use x="127.246094" xlink:href="#DejaVuSans-48"/>
       <use x="190.869141" xlink:href="#DejaVuSans-48"/>
       <use x="254.492188" xlink:href="#DejaVuSans-48"/>
      </g>
     </g>
    </g>
    <g id="ytick_15">
     <g id="line2d_24">
      <g>
       <use style="stroke:#000000;stroke-width:0.8;" x="374.4576" xlink:href="#m76136f3427" y="130.176"/>
      </g>
     </g>
     <g id="text_24">
      <!-- 60000 -->
      <g transform="translate(381.4576 133.975219)scale(0.1 -0.1)">
       <use xlink:href="#DejaVuSans-54"/>
       <use x="63.623047" xlink:href="#DejaVuSans-48"/>
       <use x="127.246094" xlink:href="#DejaVuSans-48"/>
       <use x="190.869141" xlink:href="#DejaVuSans-48"/>
       <use x="254.492188" xlink:href="#DejaVuSans-48"/>
      </g>
     </g>
    </g>
    <g id="ytick_16">
     <g id="line2d_25">
      <g>
       <use style="stroke:#000000;stroke-width:0.8;" x="374.4576" xlink:href="#m76136f3427" y="94.6944"/>
      </g>
     </g>
     <g id="text_25">
      <!-- 72000 -->
      <g transform="translate(381.4576 98.493619)scale(0.1 -0.1)">
       <use xlink:href="#DejaVuSans-55"/>
       <use x="63.623047" xlink:href="#DejaVuSans-50"/>
       <use x="127.246094" xlink:href="#DejaVuSans-48"/>
       <use x="190.869141" xlink:href="#DejaVuSans-48"/>
       <use x="254.492188" xlink:href="#DejaVuSans-48"/>
      </g>
     </g>
    </g>
    <g id="ytick_17">
     <g id="line2d_26">
      <g>
       <use style="stroke:#000000;stroke-width:0.8;" x="374.4576" xlink:href="#m76136f3427" y="59.2128"/>
      </g>
     </g>
     <g id="text_26">
      <!-- 84000 -->
      <g transform="translate(381.4576 63.012019)scale(0.1 -0.1)">
       <use xlink:href="#DejaVuSans-56"/>
       <use x="63.623047" xlink:href="#DejaVuSans-52"/>
       <use x="127.246094" xlink:href="#DejaVuSans-48"/>
       <use x="190.869141" xlink:href="#DejaVuSans-48"/>
       <use x="254.492188" xlink:href="#DejaVuSans-48"/>
      </g>
     </g>
    </g>
   </g>
   <g id="LineCollection_32">
    <path clip-path="url(#p8d7809f998)" d="M 361.152 307.584 
L 374.4576 307.584 
" style="fill:none;stroke:#00ff80;stroke-width:1.5;"/>
    <path clip-path="url(#p8d7809f998)" d="M 361.152 298.7136 
L 374.4576 298.7136 
" style="fill:none;stroke:#00f784;stroke-width:1.5;"/>
    <path clip-path="url(#p8d7809f998)" d="M 361.152 289.8432 
L 374.4576 289.8432 
" style="fill:none;stroke:#00ee88;stroke-width:1.5;"/>
    <path clip-path="url(#p8d7809f998)" d="M 361.152 280.9728 
L 374.4576 280.9728 
" style="fill:none;stroke:#00e68c;stroke-width:1.5;"/>
    <path clip-path="url(#p8d7809f998)" d="M 361.152 272.1024 
L 374.4576 272.1024 
" style="fill:none;stroke:#00dd90;stroke-width:1.5;"/>
    <path clip-path="url(#p8d7809f998)" d="M 361.152 263.232 
L 374.4576 263.232 
" style="fill:none;stroke:#00d594;stroke-width:1.5;"/>
    <path clip-path="url(#p8d7809f998)" d="M 361.152 254.3616 
L 374.4576 254.3616 
" style="fill:none;stroke:#00cc99;stroke-width:1.5;"/>
    <path clip-path="url(#p8d7809f998)" d="M 361.152 245.4912 
L 374.4576 245.4912 
" style="fill:none;stroke:#00c49d;stroke-width:1.5;"/>
    <path clip-path="url(#p8d7809f998)" d="M 361.152 236.6208 
L 374.4576 236.6208 
" style="fill:none;stroke:#00bba2;stroke-width:1.5;"/>
    <path clip-path="url(#p8d7809f998)" d="M 361.152 227.7504 
L 374.4576 227.7504 
" style="fill:none;stroke:#00b3a6;stroke-width:1.5;"/>
    <path clip-path="url(#p8d7809f998)" d="M 361.152 218.88 
L 374.4576 218.88 
" style="fill:none;stroke:#00aaaa;stroke-width:1.5;"/>
    <path clip-path="url(#p8d7809f998)" d="M 361.152 210.0096 
L 374.4576 210.0096 
" style="fill:none;stroke:#00a2ae;stroke-width:1.5;"/>
    <path clip-path="url(#p8d7809f998)" d="M 361.152 201.1392 
L 374.4576 201.1392 
" style="fill:none;stroke:#0099b2;stroke-width:1.5;"/>
    <path clip-path="url(#p8d7809f998)" d="M 361.152 192.2688 
L 374.4576 192.2688 
" style="fill:none;stroke:#0091b6;stroke-width:1.5;"/>
    <path clip-path="url(#p8d7809f998)" d="M 361.152 183.3984 
L 374.4576 183.3984 
" style="fill:none;stroke:#0088bb;stroke-width:1.5;"/>
    <path clip-path="url(#p8d7809f998)" d="M 361.152 174.528 
L 374.4576 174.528 
" style="fill:none;stroke:#007fc0;stroke-width:1.5;"/>
    <path clip-path="url(#p8d7809f998)" d="M 361.152 165.6576 
L 374.4576 165.6576 
" style="fill:none;stroke:#0077c3;stroke-width:1.5;"/>
    <path clip-path="url(#p8d7809f998)" d="M 361.152 156.7872 
L 374.4576 156.7872 
" style="fill:none;stroke:#006ec8;stroke-width:1.5;"/>
    <path clip-path="url(#p8d7809f998)" d="M 361.152 147.9168 
L 374.4576 147.9168 
" style="fill:none;stroke:#0066cc;stroke-width:1.5;"/>
    <path clip-path="url(#p8d7809f998)" d="M 361.152 139.0464 
L 374.4576 139.0464 
" style="fill:none;stroke:#005dd0;stroke-width:1.5;"/>
    <path clip-path="url(#p8d7809f998)" d="M 361.152 130.176 
L 374.4576 130.176 
" style="fill:none;stroke:#0055d4;stroke-width:1.5;"/>
    <path clip-path="url(#p8d7809f998)" d="M 361.152 121.3056 
L 374.4576 121.3056 
" style="fill:none;stroke:#004cd9;stroke-width:1.5;"/>
    <path clip-path="url(#p8d7809f998)" d="M 361.152 112.4352 
L 374.4576 112.4352 
" style="fill:none;stroke:#0044dd;stroke-width:1.5;"/>
    <path clip-path="url(#p8d7809f998)" d="M 361.152 103.5648 
L 374.4576 103.5648 
" style="fill:none;stroke:#003be2;stroke-width:1.5;"/>
    <path clip-path="url(#p8d7809f998)" d="M 361.152 94.6944 
L 374.4576 94.6944 
" style="fill:none;stroke:#0033e6;stroke-width:1.5;"/>
    <path clip-path="url(#p8d7809f998)" d="M 361.152 85.824 
L 374.4576 85.824 
" style="fill:none;stroke:#002aea;stroke-width:1.5;"/>
    <path clip-path="url(#p8d7809f998)" d="M 361.152 76.9536 
L 374.4576 76.9536 
" style="fill:none;stroke:#0022ee;stroke-width:1.5;"/>
    <path clip-path="url(#p8d7809f998)" d="M 361.152 68.0832 
L 374.4576 68.0832 
" style="fill:none;stroke:#0019f2;stroke-width:1.5;"/>
    <path clip-path="url(#p8d7809f998)" d="M 361.152 59.2128 
L 374.4576 59.2128 
" style="fill:none;stroke:#0011f6;stroke-width:1.5;"/>
    <path clip-path="url(#p8d7809f998)" d="M 361.152 50.3424 
L 374.4576 50.3424 
" style="fill:none;stroke:#0008fb;stroke-width:1.5;"/>
    <path clip-path="url(#p8d7809f998)" d="M 361.152 41.472 
L 374.4576 41.472 
" style="fill:none;stroke:#0000ff;stroke-width:1.5;"/>
   </g>
   <g id="patch_8">
    <path d="M 361.152 307.584 
L 361.152 298.7136 
L 361.152 50.3424 
L 361.152 41.472 
L 374.4576 41.472 
L 374.4576 50.3424 
L 374.4576 298.7136 
L 374.4576 307.584 
z
" style="fill:none;stroke:#000000;stroke-linejoin:miter;stroke-width:0.8;"/>
   </g>
  </g>
 </g>
 <defs>
  <clipPath id="pd8dde8f91d">
   <rect height="266.112" width="285.696" x="57.6" y="41.472"/>
  </clipPath>
  <clipPath id="p8d7809f998">
   <rect height="266.112" width="13.3056" x="361.152" y="41.472"/>
  </clipPath>
 </defs>
</svg>
