<?xml version="1.0" encoding="utf-8" standalone="no"?>
<!DOCTYPE svg PUBLIC "-//W3C//DTD SVG 1.1//EN"
  "http://www.w3.org/Graphics/SVG/1.1/DTD/svg11.dtd">
<!-- Created with matplotlib (https://matplotlib.org/) -->
<svg height="345.6pt" version="1.1" viewBox="0 0 460.8 345.6" width="460.8pt" xmlns="http://www.w3.org/2000/svg" xmlns:xlink="http://www.w3.org/1999/xlink">
 <defs>
  <style type="text/css">
*{stroke-linecap:butt;stroke-linejoin:round;}
  </style>
 </defs>
 <g id="figure_1">
  <g id="patch_1">
   <path d="M 0 345.6 
L 460.8 345.6 
L 460.8 0 
L 0 0 
z
" style="fill:#ffffff;"/>
  </g>
  <g id="axes_1">
   <g id="patch_2">
    <path d="M 57.6 307.584 
L 343.296 307.584 
L 343.296 41.472 
L 57.6 41.472 
z
" style="fill:#ffffff;"/>
   </g>
   <g id="matplotlib.axis_1">
    <g id="xtick_1">
     <g id="line2d_1">
      <defs>
       <path d="M 0 0 
L 0 3.5 
" id="md14400800d" style="stroke:#000000;stroke-width:0.8;"/>
      </defs>
      <g>
       <use style="stroke:#000000;stroke-width:0.8;" x="86.1696" xlink:href="#md14400800d" y="307.584"/>
      </g>
     </g>
     <g id="text_1">
      <!-- −4 -->
      <defs>
       <path d="M 10.59375 35.5 
L 73.1875 35.5 
L 73.1875 27.203125 
L 10.59375 27.203125 
z
" id="DejaVuSans-8722"/>
       <path d="M 37.796875 64.3125 
L 12.890625 25.390625 
L 37.796875 25.390625 
z
M 35.203125 72.90625 
L 47.609375 72.90625 
L 47.609375 25.390625 
L 58.015625 25.390625 
L 58.015625 17.1875 
L 47.609375 17.1875 
L 47.609375 0 
L 37.796875 0 
L 37.796875 17.1875 
L 4.890625 17.1875 
L 4.890625 26.703125 
z
" id="DejaVuSans-52"/>
      </defs>
      <g transform="translate(78.798506 322.182437)scale(0.1 -0.1)">
       <use xlink:href="#DejaVuSans-8722"/>
       <use x="83.789062" xlink:href="#DejaVuSans-52"/>
      </g>
     </g>
    </g>
    <g id="xtick_2">
     <g id="line2d_2">
      <g>
       <use style="stroke:#000000;stroke-width:0.8;" x="143.3088" xlink:href="#md14400800d" y="307.584"/>
      </g>
     </g>
     <g id="text_2">
      <!-- −2 -->
      <defs>
       <path d="M 19.1875 8.296875 
L 53.609375 8.296875 
L 53.609375 0 
L 7.328125 0 
L 7.328125 8.296875 
Q 12.9375 14.109375 22.625 23.890625 
Q 32.328125 33.6875 34.8125 36.53125 
Q 39.546875 41.84375 41.421875 45.53125 
Q 43.3125 49.21875 43.3125 52.78125 
Q 43.3125 58.59375 39.234375 62.25 
Q 35.15625 65.921875 28.609375 65.921875 
Q 23.96875 65.921875 18.8125 64.3125 
Q 13.671875 62.703125 7.8125 59.421875 
L 7.8125 69.390625 
Q 13.765625 71.78125 18.9375 73 
Q 24.125 74.21875 28.421875 74.21875 
Q 39.75 74.21875 46.484375 68.546875 
Q 53.21875 62.890625 53.21875 53.421875 
Q 53.21875 48.921875 51.53125 44.890625 
Q 49.859375 40.875 45.40625 35.40625 
Q 44.1875 33.984375 37.640625 27.21875 
Q 31.109375 20.453125 19.1875 8.296875 
z
" id="DejaVuSans-50"/>
      </defs>
      <g transform="translate(135.937706 322.182437)scale(0.1 -0.1)">
       <use xlink:href="#DejaVuSans-8722"/>
       <use x="83.789062" xlink:href="#DejaVuSans-50"/>
      </g>
     </g>
    </g>
    <g id="xtick_3">
     <g id="line2d_3">
      <g>
       <use style="stroke:#000000;stroke-width:0.8;" x="200.448" xlink:href="#md14400800d" y="307.584"/>
      </g>
     </g>
     <g id="text_3">
      <!-- 0 -->
      <defs>
       <path d="M 31.78125 66.40625 
Q 24.171875 66.40625 20.328125 58.90625 
Q 16.5 51.421875 16.5 36.375 
Q 16.5 21.390625 20.328125 13.890625 
Q 24.171875 6.390625 31.78125 6.390625 
Q 39.453125 6.390625 43.28125 13.890625 
Q 47.125 21.390625 47.125 36.375 
Q 47.125 51.421875 43.28125 58.90625 
Q 39.453125 66.40625 31.78125 66.40625 
z
M 31.78125 74.21875 
Q 44.046875 74.21875 50.515625 64.515625 
Q 56.984375 54.828125 56.984375 36.375 
Q 56.984375 17.96875 50.515625 8.265625 
Q 44.046875 -1.421875 31.78125 -1.421875 
Q 19.53125 -1.421875 13.0625 8.265625 
Q 6.59375 17.96875 6.59375 36.375 
Q 6.59375 54.828125 13.0625 64.515625 
Q 19.53125 74.21875 31.78125 74.21875 
z
" id="DejaVuSans-48"/>
      </defs>
      <g transform="translate(197.26675 322.182437)scale(0.1 -0.1)">
       <use xlink:href="#DejaVuSans-48"/>
      </g>
     </g>
    </g>
    <g id="xtick_4">
     <g id="line2d_4">
      <g>
       <use style="stroke:#000000;stroke-width:0.8;" x="257.5872" xlink:href="#md14400800d" y="307.584"/>
      </g>
     </g>
     <g id="text_4">
      <!-- 2 -->
      <g transform="translate(254.40595 322.182437)scale(0.1 -0.1)">
       <use xlink:href="#DejaVuSans-50"/>
      </g>
     </g>
    </g>
    <g id="xtick_5">
     <g id="line2d_5">
      <g>
       <use style="stroke:#000000;stroke-width:0.8;" x="314.7264" xlink:href="#md14400800d" y="307.584"/>
      </g>
     </g>
     <g id="text_5">
      <!-- 4 -->
      <g transform="translate(311.54515 322.182437)scale(0.1 -0.1)">
       <use xlink:href="#DejaVuSans-52"/>
      </g>
     </g>
    </g>
   </g>
   <g id="matplotlib.axis_2">
    <g id="ytick_1">
     <g id="line2d_6">
      <defs>
       <path d="M 0 0 
L -3.5 0 
" id="ma3bd603da1" style="stroke:#000000;stroke-width:0.8;"/>
      </defs>
      <g>
       <use style="stroke:#000000;stroke-width:0.8;" x="57.6" xlink:href="#ma3bd603da1" y="280.9728"/>
      </g>
     </g>
     <g id="text_6">
      <!-- −4 -->
      <g transform="translate(35.857813 284.772019)scale(0.1 -0.1)">
       <use xlink:href="#DejaVuSans-8722"/>
       <use x="83.789062" xlink:href="#DejaVuSans-52"/>
      </g>
     </g>
    </g>
    <g id="ytick_2">
     <g id="line2d_7">
      <g>
       <use style="stroke:#000000;stroke-width:0.8;" x="57.6" xlink:href="#ma3bd603da1" y="227.7504"/>
      </g>
     </g>
     <g id="text_7">
      <!-- −2 -->
      <g transform="translate(35.857813 231.549619)scale(0.1 -0.1)">
       <use xlink:href="#DejaVuSans-8722"/>
       <use x="83.789062" xlink:href="#DejaVuSans-50"/>
      </g>
     </g>
    </g>
    <g id="ytick_3">
     <g id="line2d_8">
      <g>
       <use style="stroke:#000000;stroke-width:0.8;" x="57.6" xlink:href="#ma3bd603da1" y="174.528"/>
      </g>
     </g>
     <g id="text_8">
      <!-- 0 -->
      <g transform="translate(44.2375 178.327219)scale(0.1 -0.1)">
       <use xlink:href="#DejaVuSans-48"/>
      </g>
     </g>
    </g>
    <g id="ytick_4">
     <g id="line2d_9">
      <g>
       <use style="stroke:#000000;stroke-width:0.8;" x="57.6" xlink:href="#ma3bd603da1" y="121.3056"/>
      </g>
     </g>
     <g id="text_9">
      <!-- 2 -->
      <g transform="translate(44.2375 125.104819)scale(0.1 -0.1)">
       <use xlink:href="#DejaVuSans-50"/>
      </g>
     </g>
    </g>
    <g id="ytick_5">
     <g id="line2d_10">
      <g>
       <use style="stroke:#000000;stroke-width:0.8;" x="57.6" xlink:href="#ma3bd603da1" y="68.0832"/>
      </g>
     </g>
     <g id="text_10">
      <!-- 4 -->
      <g transform="translate(44.2375 71.882419)scale(0.1 -0.1)">
       <use xlink:href="#DejaVuSans-52"/>
      </g>
     </g>
    </g>
   </g>
   <g id="LineCollection_1"/>
   <g id="LineCollection_2">
    <path clip-path="url(#p0f79c79212)" d="M 180.766678 307.584 
L 178.793491 304.917547 
L 176.298878 301.184513 
L 174.038773 297.451479 
L 171.534878 292.92993 
L 168.672192 287.255817 
L 165.520531 280.38618 
L 162.819188 273.986693 
L 159.694264 265.987335 
L 156.979705 258.521267 
L 153.786228 249.127808 
L 150.021866 237.189643 
L 146.879337 226.523832 
L 142.908024 212.119435 
L 138.667325 195.592978 
L 134.892505 179.90771 
L 130.249749 159.329218 
L 125.631429 137.464305 
L 120.973286 113.999519 
L 116.474955 90.001443 
L 111.418485 61.452291 
L 108.045563 41.472 
L 108.045563 41.472 
" style="fill:none;stroke:#00f784;stroke-width:1.5;"/>
    <path clip-path="url(#p0f79c79212)" d="M 292.903339 41.472 
L 287.154856 75.069307 
L 281.803648 104.400289 
L 277.454236 126.879711 
L 272.309567 151.86315 
L 269.049209 166.795287 
L 265.50285 182.260713 
L 262.280776 195.592978 
L 258.742531 209.458533 
L 255.571542 221.190926 
L 251.73088 234.52319 
L 248.776178 244.122421 
L 245.081325 255.321523 
L 241.956938 264.103798 
L 238.521715 273.019301 
L 235.193759 280.919471 
L 232.755331 286.252377 
L 229.838751 292.118573 
L 227.070974 297.174821 
L 224.208289 301.876647 
L 221.388701 305.984128 
L 220.182206 307.584 
L 220.182206 307.584 
" style="fill:none;stroke:#00f784;stroke-width:1.5;"/>
   </g>
   <g id="LineCollection_3">
    <path clip-path="url(#p0f79c79212)" d="M 153.145331 307.584 
L 149.647941 296.384898 
L 146.074909 284.119214 
L 142.580779 271.32024 
L 139.152469 257.987976 
L 135.653095 243.58913 
L 132.213484 228.656994 
L 128.594597 212.119266 
L 123.862866 189.193491 
L 119.403854 166.261996 
L 114.416033 139.064176 
L 110.697244 117.732553 
L 105.821967 88.401571 
L 101.930096 63.870204 
L 98.505925 41.472 
L 98.505925 41.472 
" style="fill:none;stroke:#00ef88;stroke-width:1.5;"/>
    <path clip-path="url(#p0f79c79212)" d="M 302.427055 41.472 
L 297.493034 73.51319 
L 291.767663 108.689873 
L 286.326238 140.130758 
L 282.031892 163.595543 
L 276.963689 189.726782 
L 273.446477 206.882259 
L 268.719559 228.656994 
L 264.646099 246.255583 
L 260.841452 261.72101 
L 256.632293 277.719727 
L 253.024034 290.518701 
L 249.816109 301.184513 
L 247.787275 307.584 
L 247.787275 307.584 
" style="fill:none;stroke:#00ef88;stroke-width:1.5;"/>
   </g>
   <g id="LineCollection_4">
    <path clip-path="url(#p0f79c79212)" d="M 139.966635 307.584 
L 135.913991 291.051992 
L 131.862412 273.453403 
L 127.811716 254.788232 
L 123.655189 234.52319 
L 119.813563 214.791439 
L 115.374027 190.793363 
L 110.426982 162.528962 
L 106.430312 138.530886 
L 102.345993 112.932938 
L 98.425912 87.33499 
L 94.187264 58.537299 
L 91.754692 41.472 
L 91.754692 41.472 
" style="fill:none;stroke:#00e78c;stroke-width:1.5;"/>
    <path clip-path="url(#p0f79c79212)" d="M 309.171351 41.472 
L 304.56213 73.469435 
L 300.149872 102.800417 
L 295.275472 133.731271 
L 291.402277 157.196056 
L 287.187367 181.630811 
L 282.020726 209.991824 
L 277.164339 235.056481 
L 273.114337 254.788232 
L 269.301732 272.386822 
L 265.138206 290.518701 
L 261.363617 305.984128 
L 260.959287 307.584 
L 260.959287 307.584 
" style="fill:none;stroke:#00e78c;stroke-width:1.5;"/>
   </g>
   <g id="LineCollection_5">
    <path clip-path="url(#p0f79c79212)" d="M 130.76562 307.584 
L 126.553503 287.852248 
L 122.673394 268.653788 
L 118.377721 246.255583 
L 114.677117 225.990541 
L 110.12818 199.859303 
L 105.367183 171.061611 
L 100.996988 143.330501 
L 95.791263 108.666613 
L 90.68299 72.936144 
L 86.374173 41.472 
L 86.374173 41.472 
" style="fill:none;stroke:#00de90;stroke-width:1.5;"/>
    <path clip-path="url(#p0f79c79212)" d="M 314.548051 41.472 
L 308.943776 82.164387 
L 303.080266 122.532168 
L 297.932542 156.129475 
L 292.852353 187.593619 
L 287.757419 217.457892 
L 282.60707 245.923031 
L 277.721329 271.32024 
L 273.701917 291.051992 
L 270.156336 307.584 
L 270.156336 307.584 
" style="fill:none;stroke:#00de90;stroke-width:1.5;"/>
   </g>
   <g id="LineCollection_6">
    <path clip-path="url(#p0f79c79212)" d="M 123.565847 307.584 
L 119.829421 288.385539 
L 115.388405 264.387463 
L 110.439848 236.123062 
L 106.354686 211.591695 
L 102.356648 186.527038 
L 98.250132 159.70174 
L 92.592462 120.932297 
L 88.428763 91.068024 
L 82.791631 48.839984 
L 81.836773 41.472 
L 81.836773 41.472 
" style="fill:none;stroke:#00d694;stroke-width:1.5;"/>
    <path clip-path="url(#p0f79c79212)" d="M 319.08264 41.472 
L 313.580076 83.068665 
L 309.38237 113.466228 
L 304.073914 150.263279 
L 299.39213 181.194132 
L 295.084284 208.391952 
L 290.115977 238.256224 
L 286.200317 260.654429 
L 282.197634 282.519343 
L 278.304078 302.784385 
L 277.353592 307.584 
L 277.353592 307.584 
" style="fill:none;stroke:#00d694;stroke-width:1.5;"/>
   </g>
   <g id="LineCollection_7">
    <path clip-path="url(#p0f79c79212)" d="M 117.59328 307.584 
L 112.985837 281.986052 
L 108.342669 254.788232 
L 103.668745 225.990541 
L 99.210156 197.19285 
L 94.242373 163.585191 
L 88.517002 122.847762 
L 82.640261 78.802341 
L 77.879396 41.472 
L 77.879396 41.472 
" style="fill:none;stroke:#00ce98;stroke-width:1.5;"/>
    <path clip-path="url(#p0f79c79212)" d="M 323.037939 41.472 
L 317.651006 83.601956 
L 313.170071 117.199263 
L 308.428834 151.32986 
L 304.259189 180.127551 
L 299.006452 214.791439 
L 294.158932 245.189002 
L 290.146752 269.187078 
L 286.232506 291.585283 
L 283.323925 307.584 
L 283.323925 307.584 
" style="fill:none;stroke:#00ce98;stroke-width:1.5;"/>
   </g>
   <g id="LineCollection_8">
    <path clip-path="url(#p0f79c79212)" d="M 112.457841 307.584 
L 107.664816 279.319599 
L 103.274906 252.12178 
L 98.250132 219.450653 
L 92.741353 181.727423 
L 88.13404 148.663407 
L 83.498374 113.999519 
L 78.972624 78.802341 
L 74.349606 41.472 
L 74.349606 41.472 
" style="fill:none;stroke:#00c69c;stroke-width:1.5;"/>
    <path clip-path="url(#p0f79c79212)" d="M 326.566199 41.472 
L 320.793643 87.868281 
L 315.301538 129.998236 
L 311.020946 161.462381 
L 305.950577 197.19285 
L 300.786652 231.856737 
L 295.772793 263.854172 
L 290.478433 295.851607 
L 288.457784 307.584 
L 288.457784 307.584 
" style="fill:none;stroke:#00c69c;stroke-width:1.5;"/>
   </g>
   <g id="LineCollection_9">
    <path clip-path="url(#p0f79c79212)" d="M 107.933391 307.584 
L 102.830429 275.940105 
L 97.479038 240.922677 
L 92.516442 206.79208 
L 86.833882 165.728705 
L 82.527059 133.19798 
L 77.437221 93.201186 
L 71.975245 48.404778 
L 71.151223 41.472 
L 71.151223 41.472 
" style="fill:none;stroke:#00bda0;stroke-width:1.5;"/>
    <path clip-path="url(#p0f79c79212)" d="M 329.763176 41.472 
L 324.733467 83.068665 
L 319.42292 125.198621 
L 314.669146 161.357006 
L 308.850991 203.592337 
L 303.435365 240.922677 
L 298.8889 270.78695 
L 294.383564 299.051351 
L 292.980943 307.584 
L 292.980943 307.584 
" style="fill:none;stroke:#00bda0;stroke-width:1.5;"/>
   </g>
   <g id="LineCollection_10">
    <path clip-path="url(#p0f79c79212)" d="M 103.877255 307.584 
L 98.822669 274.913223 
L 93.360409 237.722934 
L 88.580504 203.592337 
L 84.278954 171.594902 
L 79.115593 131.598108 
L 73.839811 88.934862 
L 68.899355 47.338196 
L 68.217734 41.472 
L 68.217734 41.472 
" style="fill:none;stroke:#00b5a4;stroke-width:1.5;"/>
    <path clip-path="url(#p0f79c79212)" d="M 332.695647 41.472 
L 327.396269 86.268409 
L 322.671557 124.665331 
L 316.634412 171.594902 
L 311.746719 207.858661 
L 306.170364 247.322164 
L 301.907703 276.119856 
L 297.036054 307.584 
L 297.036054 307.584 
" style="fill:none;stroke:#00b5a4;stroke-width:1.5;"/>
   </g>
   <g id="LineCollection_11">
    <path clip-path="url(#p0f79c79212)" d="M 100.19188 307.584 
L 95.724848 277.719727 
L 90.80715 243.344454 
L 85.08178 201.328623 
L 79.224881 156.129475 
L 73.621073 110.799776 
L 67.392488 58.004008 
L 65.501408 41.472 
L 65.501408 41.472 
" style="fill:none;stroke:#00ada8;stroke-width:1.5;"/>
    <path clip-path="url(#p0f79c79212)" d="M 335.411017 41.472 
L 330.536713 83.601956 
L 324.816929 131.064818 
L 319.235507 175.327936 
L 313.377054 219.591054 
L 308.037371 257.987976 
L 303.297447 290.518701 
L 300.720642 307.584 
L 300.720642 307.584 
" style="fill:none;stroke:#00ada8;stroke-width:1.5;"/>
   </g>
   <g id="LineCollection_12">
    <path clip-path="url(#p0f79c79212)" d="M 96.807818 307.584 
L 92.102433 275.053275 
L 87.593425 242.522549 
L 82.791631 206.429941 
L 76.87359 159.862509 
L 71.37169 114.53281 
L 66.828001 75.602597 
L 62.968343 41.472 
L 62.968343 41.472 
" style="fill:none;stroke:#00a5ac;stroke-width:1.5;"/>
    <path clip-path="url(#p0f79c79212)" d="M 337.943417 41.472 
L 332.172687 92.134605 
L 326.692425 138.245107 
L 320.548637 187.593619 
L 315.81422 223.953005 
L 310.010281 266.520625 
L 304.576201 304.384257 
L 304.103915 307.584 
L 304.103915 307.584 
" style="fill:none;stroke:#00a5ac;stroke-width:1.5;"/>
   </g>
   <g id="LineCollection_13">
    <path clip-path="url(#p0f79c79212)" d="M 93.67356 307.584 
L 89.469208 277.719727 
L 84.356308 239.856096 
L 78.987388 198.259431 
L 74.104062 158.795928 
L 68.284956 109.733194 
L 62.651507 60.13717 
L 60.590368 41.472 
L 60.590368 41.472 
" style="fill:none;stroke:#009cb1;stroke-width:1.5;"/>
    <path clip-path="url(#p0f79c79212)" d="M 340.320754 41.472 
L 334.225217 95.867639 
L 329.432779 136.931014 
L 323.661454 184.393876 
L 318.104369 228.049258 
L 312.249468 271.853531 
L 307.237447 307.584 
L 307.237447 307.584 
" style="fill:none;stroke:#009cb1;stroke-width:1.5;"/>
   </g>
   <g id="LineCollection_14">
    <path clip-path="url(#p0f79c79212)" d="M 90.75264 307.584 
L 85.29881 267.587206 
L 80.498744 230.790156 
L 74.579254 183.327295 
L 69.04865 136.931014 
L 62.729549 81.468794 
L 58.347388 41.472 
L 58.347388 41.472 
" style="fill:none;stroke:#0094b5;stroke-width:1.5;"/>
    <path clip-path="url(#p0f79c79212)" d="M 342.563122 41.472 
L 336.567958 95.867639 
L 331.611758 139.064176 
L 326.119888 185.06791 
L 320.06951 233.456609 
L 315.113792 271.32024 
L 310.157753 307.584 
L 310.157753 307.584 
" style="fill:none;stroke:#0094b5;stroke-width:1.5;"/>
   </g>
   <g id="LineCollection_15">
    <path clip-path="url(#p0f79c79212)" d="M 88.013461 307.584 
L 83.592361 274.519984 
L 78.725486 236.656353 
L 72.951706 189.726782 
L 67.121424 140.130758 
L 61.53486 90.534733 
L 57.6 54.381491 
L 57.6 54.381491 
" style="fill:none;stroke:#008cb9;stroke-width:1.5;"/>
    <path clip-path="url(#p0f79c79212)" d="M 343.296 54.511358 
L 336.760224 113.999519 
L 331.187962 162.528962 
L 325.235432 212.124986 
L 320.083487 253.188361 
L 315.05685 291.585283 
L 312.896548 307.584 
L 312.896548 307.584 
" style="fill:none;stroke:#008cb9;stroke-width:1.5;"/>
   </g>
   <g id="LineCollection_16">
    <path clip-path="url(#p0f79c79212)" d="M 85.432709 307.584 
L 80.287341 268.120497 
L 74.961831 225.457251 
L 70.041225 184.393876 
L 64.335132 134.797852 
L 58.397862 80.935503 
L 57.6 73.530925 
L 57.6 73.530925 
" style="fill:none;stroke:#0084bd;stroke-width:1.5;"/>
    <path clip-path="url(#p0f79c79212)" d="M 343.296 73.656376 
L 336.754183 133.19798 
L 331.181592 181.727423 
L 325.294278 230.790156 
L 320.008222 272.920112 
L 315.476741 307.584 
L 315.476741 307.584 
" style="fill:none;stroke:#0084bd;stroke-width:1.5;"/>
   </g>
   <g id="LineCollection_17">
    <path clip-path="url(#p0f79c79212)" d="M 82.99008 307.584 
L 78.147166 269.720369 
L 72.399228 222.790798 
L 66.531921 172.661483 
L 60.968821 123.065459 
L 57.6 92.051474 
L 57.6 92.051474 
" style="fill:none;stroke:#007bc2;stroke-width:1.5;"/>
    <path clip-path="url(#p0f79c79212)" d="M 343.296 92.172986 
L 336.797494 151.32986 
L 331.101249 200.925884 
L 325.472777 247.855455 
L 319.715342 293.718445 
L 317.918986 307.584 
L 317.918986 307.584 
" style="fill:none;stroke:#007bc2;stroke-width:1.5;"/>
   </g>
   <g id="LineCollection_18">
    <path clip-path="url(#p0f79c79212)" d="M 80.670157 307.584 
L 75.851831 269.187078 
L 70.017189 220.657635 
L 64.371883 171.594902 
L 58.375498 117.199263 
L 57.6 110.001306 
L 57.6 110.001306 
" style="fill:none;stroke:#0073c6;stroke-width:1.5;"/>
    <path clip-path="url(#p0f79c79212)" d="M 343.296 110.119185 
L 336.77656 169.461739 
L 331.142108 218.524473 
L 325.384159 266.520625 
L 320.238527 307.584 
L 320.238527 307.584 
" style="fill:none;stroke:#0073c6;stroke-width:1.5;"/>
   </g>
   <g id="LineCollection_19">
    <path clip-path="url(#p0f79c79212)" d="M 78.459921 307.584 
L 73.403702 266.520625 
L 67.984036 220.657635 
L 63.194522 178.527679 
L 57.6 127.430208 
L 57.6 127.430208 
" style="fill:none;stroke:#006bca;stroke-width:1.5;"/>
    <path clip-path="url(#p0f79c79212)" d="M 343.296 127.544731 
L 336.817132 186.527038 
L 331.058959 236.656353 
L 325.547351 282.620696 
L 322.448384 307.584 
L 322.448384 307.584 
" style="fill:none;stroke:#006bca;stroke-width:1.5;"/>
   </g>
   <g id="LineCollection_20">
    <path clip-path="url(#p0f79c79212)" d="M 76.347714 307.584 
L 70.741756 261.187719 
L 64.705179 208.925242 
L 59.445913 161.462381 
L 57.6 144.381022 
L 57.6 144.381022 
" style="fill:none;stroke:#0063ce;stroke-width:1.5;"/>
    <path clip-path="url(#p0f79c79212)" d="M 343.296 144.492483 
L 336.803867 203.592337 
L 331.107811 253.188361 
L 325.479542 300.117932 
L 324.560219 307.584 
L 324.560219 307.584 
" style="fill:none;stroke:#0063ce;stroke-width:1.5;"/>
   </g>
   <g id="LineCollection_21">
    <path clip-path="url(#p0f79c79212)" d="M 74.324495 307.584 
L 69.490166 267.053916 
L 63.74715 216.924601 
L 57.89145 163.595543 
L 57.6 160.891019 
L 57.6 160.891019 
" style="fill:none;stroke:#005ad2;stroke-width:1.5;"/>
    <path clip-path="url(#p0f79c79212)" d="M 343.296 160.999672 
L 336.861163 219.591054 
L 330.979471 270.78695 
L 326.583209 307.584 
L 326.583209 307.584 
" style="fill:none;stroke:#005ad2;stroke-width:1.5;"/>
   </g>
   <g id="LineCollection_22">
    <path clip-path="url(#p0f79c79212)" d="M 72.382058 307.584 
L 66.637115 258.521267 
L 60.77737 206.25879 
L 57.6 176.99293 
L 57.6 176.99293 
" style="fill:none;stroke:#0052d6;stroke-width:1.5;"/>
    <path clip-path="url(#p0f79c79212)" d="M 343.296 177.09895 
L 336.872489 235.589772 
L 330.991249 286.785667 
L 328.525284 307.584 
L 328.525284 307.584 
" style="fill:none;stroke:#0052d6;stroke-width:1.5;"/>
   </g>
   <g id="LineCollection_23">
    <path clip-path="url(#p0f79c79212)" d="M 70.513739 307.584 
L 65.088676 260.654429 
L 60.281574 217.457892 
L 57.6 192.71558 
L 57.6 192.71558 
" style="fill:none;stroke:#004ada;stroke-width:1.5;"/>
    <path clip-path="url(#p0f79c79212)" d="M 343.296 192.819201 
L 336.841077 251.588489 
L 331.021153 302.251094 
L 330.393375 307.584 
L 330.393375 307.584 
" style="fill:none;stroke:#004ada;stroke-width:1.5;"/>
   </g>
   <g id="LineCollection_24">
    <path clip-path="url(#p0f79c79212)" d="M 68.7127 307.584 
L 63.47862 261.72101 
L 58.380004 215.324729 
L 57.6 208.084612 
L 57.6 208.084612 
" style="fill:none;stroke:#0042de;stroke-width:1.5;"/>
    <path clip-path="url(#p0f79c79212)" d="M 343.296 208.18594 
L 336.890067 266.520625 
L 332.194189 307.584 
L 332.194189 307.584 
" style="fill:none;stroke:#0042de;stroke-width:1.5;"/>
   </g>
   <g id="LineCollection_25">
    <path clip-path="url(#p0f79c79212)" d="M 66.973917 307.584 
L 61.80556 261.72101 
L 57.6 223.122843 
L 57.6 223.122843 
" style="fill:none;stroke:#0039e2;stroke-width:1.5;"/>
    <path clip-path="url(#p0f79c79212)" d="M 343.296 223.222051 
L 336.901778 281.452762 
L 333.932746 307.584 
L 333.932746 307.584 
" style="fill:none;stroke:#0039e2;stroke-width:1.5;"/>
   </g>
   <g id="LineCollection_26">
    <path clip-path="url(#p0f79c79212)" d="M 65.292741 307.584 
L 59.952848 259.587848 
L 57.6 237.850763 
L 57.6 237.850763 
" style="fill:none;stroke:#0031e6;stroke-width:1.5;"/>
    <path clip-path="url(#p0f79c79212)" d="M 343.296 237.947938 
L 336.878506 296.384898 
L 335.6137 307.584 
L 335.6137 307.584 
" style="fill:none;stroke:#0031e6;stroke-width:1.5;"/>
   </g>
   <g id="LineCollection_27">
    <path clip-path="url(#p0f79c79212)" d="M 63.664864 307.584 
L 63.605125 307.050709 
L 63.545342 306.517419 
L 63.485517 305.984128 
L 63.425649 305.450838 
L 63.365737 304.917547 
L 63.325371 304.558405 
L 63.305998 304.384257 
L 63.246661 303.850966 
L 63.187281 303.317675 
L 63.127859 302.784385 
L 63.068394 302.251094 
L 63.008887 301.717804 
L 62.949336 301.184513 
L 62.889743 300.651222 
L 62.830107 300.117932 
L 62.770428 299.584641 
L 62.752834 299.427448 
L 62.71117 299.051351 
L 62.652064 298.51806 
L 62.592916 297.98477 
L 62.533725 297.451479 
L 62.474491 296.918188 
L 62.415216 296.384898 
L 62.355897 295.851607 
L 62.296536 295.318317 
L 62.237132 294.785026 
L 62.180297 294.275143 
L 62.177714 294.251735 
L 62.118881 293.718445 
L 62.060005 293.185154 
L 62.001088 292.651864 
L 61.942128 292.118573 
L 61.883126 291.585283 
L 61.824082 291.051992 
L 61.764995 290.518701 
L 61.705865 289.985411 
L 61.646693 289.45212 
L 61.60776 289.101393 
L 61.587703 288.91883 
L 61.5291 288.385539 
L 61.470455 287.852248 
L 61.411768 287.318958 
L 61.353039 286.785667 
L 61.294268 286.252377 
L 61.235455 285.719086 
L 61.1766 285.185796 
L 61.117702 284.652505 
L 61.058761 284.119214 
L 61.035222 283.906297 
L 61.00017 283.585924 
L 60.941797 283.052633 
L 60.883383 282.519343 
L 60.824927 281.986052 
L 60.766428 281.452762 
L 60.707888 280.919471 
L 60.649306 280.38618 
L 60.590682 279.85289 
L 60.532015 279.319599 
L 60.473307 278.786309 
L 60.462685 278.689842 
L 60.415088 278.253018 
L 60.356945 277.719727 
L 60.298761 277.186437 
L 60.240535 276.653146 
L 60.182267 276.119856 
L 60.123958 275.586565 
L 60.065606 275.053275 
L 60.007213 274.519984 
L 59.948777 273.986693 
L 59.8903 273.453403 
L 59.890148 273.45202 
L 59.832427 272.920112 
L 59.774514 272.386822 
L 59.716559 271.853531 
L 59.658563 271.32024 
L 59.600526 270.78695 
L 59.542447 270.253659 
L 59.484326 269.720369 
L 59.426164 269.187078 
L 59.367959 268.653788 
L 59.317611 268.19277 
L 59.3098 268.120497 
L 59.252158 267.587206 
L 59.194475 267.053916 
L 59.13675 266.520625 
L 59.078984 265.987335 
L 59.021177 265.454044 
L 58.963328 264.920754 
L 58.905438 264.387463 
L 58.847505 263.854172 
L 58.789532 263.320882 
L 58.745074 262.912152 
L 58.731666 262.787591 
L 58.674253 262.254301 
L 58.616799 261.72101 
L 58.559304 261.187719 
L 58.501768 260.654429 
L 58.444191 260.121138 
L 58.386572 259.587848 
L 58.328912 259.054557 
L 58.27121 258.521267 
L 58.213467 257.987976 
L 58.172537 257.610163 
L 58.155869 257.454685 
L 58.098685 256.921395 
L 58.04146 256.388104 
L 57.984194 255.854814 
L 57.926888 255.321523 
L 57.86954 254.788232 
L 57.812151 254.254942 
L 57.754721 253.721651 
L 57.697249 253.188361 
L 57.639736 252.65507 
L 57.6 252.286799 
" style="fill:none;stroke:#0029eb;stroke-width:1.5;"/>
    <path clip-path="url(#p0f79c79212)" d="M 343.296 252.382091 
L 343.266544 252.65507 
L 343.209019 253.188361 
L 343.151536 253.721651 
L 343.094094 254.254942 
L 343.036694 254.788232 
L 342.979335 255.321523 
L 342.922016 255.854814 
L 342.864739 256.388104 
L 342.807503 256.921395 
L 342.750308 257.454685 
L 342.723463 257.705072 
L 342.692813 257.987976 
L 342.635058 258.521267 
L 342.577345 259.054557 
L 342.519673 259.587848 
L 342.462043 260.121138 
L 342.404454 260.654429 
L 342.346906 261.187719 
L 342.2894 261.72101 
L 342.231934 262.254301 
L 342.17451 262.787591 
L 342.150926 263.006675 
L 342.116747 263.320882 
L 342.058762 263.854172 
L 342.000818 264.387463 
L 341.942916 264.920754 
L 341.885056 265.454044 
L 341.827237 265.987335 
L 341.76946 266.520625 
L 341.711723 267.053916 
L 341.654029 267.587206 
L 341.596375 268.120497 
L 341.578389 268.286905 
L 341.538318 268.653788 
L 341.480102 269.187078 
L 341.421928 269.720369 
L 341.363796 270.253659 
L 341.305705 270.78695 
L 341.247656 271.32024 
L 341.189649 271.853531 
L 341.131683 272.386822 
L 341.073759 272.920112 
L 341.015875 273.453403 
L 341.005852 273.545764 
L 340.957498 273.986693 
L 340.899051 274.519984 
L 340.840646 275.053275 
L 340.782283 275.586565 
L 340.723962 276.119856 
L 340.665683 276.653146 
L 340.607445 277.186437 
L 340.54925 277.719727 
L 340.491095 278.253018 
L 340.433315 278.783259 
L 340.432979 278.786309 
L 340.374258 279.319599 
L 340.31558 279.85289 
L 340.256944 280.38618 
L 340.19835 280.919471 
L 340.139798 281.452762 
L 340.081289 281.986052 
L 340.022821 282.519343 
L 339.964395 283.052633 
L 339.90601 283.585924 
L 339.860778 283.999316 
L 339.847521 284.119214 
L 339.788569 284.652505 
L 339.72966 285.185796 
L 339.670793 285.719086 
L 339.611968 286.252377 
L 339.553185 286.785667 
L 339.494445 287.318958 
L 339.435746 287.852248 
L 339.37709 288.385539 
L 339.318475 288.91883 
L 339.28824 289.194013 
L 339.259586 289.45212 
L 339.200402 289.985411 
L 339.141261 290.518701 
L 339.082163 291.051992 
L 339.023107 291.585283 
L 338.964093 292.118573 
L 338.905121 292.651864 
L 338.846192 293.185154 
L 338.787305 293.718445 
L 338.72846 294.251735 
L 338.715703 294.367361 
L 338.669144 294.785026 
L 338.609728 295.318317 
L 338.550355 295.851607 
L 338.491025 296.384898 
L 338.431737 296.918188 
L 338.372492 297.451479 
L 338.31329 297.98477 
L 338.25413 298.51806 
L 338.195012 299.051351 
L 338.143166 299.519328 
L 338.135855 299.584641 
L 338.076164 300.117932 
L 338.016517 300.651222 
L 337.956912 301.184513 
L 337.89735 301.717804 
L 337.837831 302.251094 
L 337.778354 302.784385 
L 337.71892 303.317675 
L 337.659529 303.850966 
L 337.600179 304.384257 
L 337.570629 304.649878 
L 337.540542 304.917547 
L 337.480618 305.450838 
L 337.420738 305.984128 
L 337.360901 306.517419 
L 337.301107 307.050709 
L 337.241356 307.584 
" style="fill:none;stroke:#0029eb;stroke-width:1.5;"/>
   </g>
   <g id="LineCollection_28">
    <path clip-path="url(#p0f79c79212)" d="M 62.086297 307.584 
L 62.027395 307.050709 
L 61.968453 306.517419 
L 61.909469 305.984128 
L 61.850443 305.450838 
L 61.791376 304.917547 
L 61.732267 304.384257 
L 61.673117 303.850966 
L 61.613924 303.317675 
L 61.60776 303.262137 
L 61.555269 302.784385 
L 61.49664 302.251094 
L 61.43797 301.717804 
L 61.379258 301.184513 
L 61.320505 300.651222 
L 61.261711 300.117932 
L 61.202876 299.584641 
L 61.143999 299.051351 
L 61.08508 298.51806 
L 61.035222 298.067058 
L 61.026219 297.98477 
L 60.967861 297.451479 
L 60.909462 296.918188 
L 60.851023 296.384898 
L 60.792542 295.851607 
L 60.73402 295.318317 
L 60.675457 294.785026 
L 60.616853 294.251735 
L 60.558207 293.718445 
L 60.49952 293.185154 
L 60.462685 292.850588 
L 60.44103 292.651864 
L 60.382903 292.118573 
L 60.324734 291.585283 
L 60.266525 291.051992 
L 60.208275 290.518701 
L 60.149984 289.985411 
L 60.091652 289.45212 
L 60.033279 288.91883 
L 59.974864 288.385539 
L 59.916408 287.852248 
L 59.890148 287.612757 
L 59.858264 287.318958 
L 59.800366 286.785667 
L 59.742428 286.252377 
L 59.684449 285.719086 
L 59.626429 285.185796 
L 59.568368 284.652505 
L 59.510267 284.119214 
L 59.452124 283.585924 
L 59.393941 283.052633 
L 59.335716 282.519343 
L 59.317611 282.353556 
L 59.27789 281.986052 
L 59.220222 281.452762 
L 59.162513 280.919471 
L 59.104764 280.38618 
L 59.046974 279.85289 
L 58.989144 279.319599 
L 58.931273 278.786309 
L 58.873361 278.253018 
L 58.815408 277.719727 
L 58.757414 277.186437 
L 58.745074 277.07298 
L 58.69988 276.653146 
L 58.642442 276.119856 
L 58.584963 275.586565 
L 58.527443 275.053275 
L 58.469883 274.519984 
L 58.412283 273.986693 
L 58.354642 273.453403 
L 58.296961 272.920112 
L 58.239238 272.386822 
L 58.181475 271.853531 
L 58.172537 271.771023 
L 58.124207 271.32024 
L 58.066998 270.78695 
L 58.009748 270.253659 
L 57.952458 269.720369 
L 57.895128 269.187078 
L 57.837757 268.653788 
L 57.780346 268.120497 
L 57.722895 267.587206 
L 57.665403 267.053916 
L 57.60787 266.520625 
L 57.6 266.447685 
" style="fill:none;stroke:#0021ee;stroke-width:1.5;"/>
    <path clip-path="url(#p0f79c79212)" d="M 343.296 266.541217 
L 343.240679 267.053916 
L 343.183176 267.587206 
L 343.125713 268.120497 
L 343.068291 268.653788 
L 343.01091 269.187078 
L 342.953568 269.720369 
L 342.896267 270.253659 
L 342.839007 270.78695 
L 342.781786 271.32024 
L 342.724605 271.853531 
L 342.723463 271.864187 
L 342.666844 272.386822 
L 342.60911 272.920112 
L 342.551417 273.453403 
L 342.493765 273.986693 
L 342.436154 274.519984 
L 342.378583 275.053275 
L 342.321052 275.586565 
L 342.263562 276.119856 
L 342.206112 276.653146 
L 342.150926 277.165772 
L 342.148678 277.186437 
L 342.090673 277.719727 
L 342.032709 278.253018 
L 341.974786 278.786309 
L 341.916903 279.319599 
L 341.859062 279.85289 
L 341.801261 280.38618 
L 341.743501 280.919471 
L 341.685781 281.452762 
L 341.628102 281.986052 
L 341.578389 282.445966 
L 341.570375 282.519343 
L 341.512139 283.052633 
L 341.453944 283.585924 
L 341.39579 284.119214 
L 341.337678 284.652505 
L 341.279606 285.185796 
L 341.221575 285.719086 
L 341.163585 286.252377 
L 341.105635 286.785667 
L 341.047726 287.318958 
L 341.005852 287.704783 
L 340.989681 287.852248 
L 340.931214 288.385539 
L 340.872788 288.91883 
L 340.814404 289.45212 
L 340.75606 289.985411 
L 340.697758 290.518701 
L 340.639496 291.051992 
L 340.581276 291.585283 
L 340.523097 292.118573 
L 340.464958 292.651864 
L 340.433315 292.942228 
L 340.406567 293.185154 
L 340.347869 293.718445 
L 340.289212 294.251735 
L 340.230596 294.785026 
L 340.172022 295.318317 
L 340.113489 295.851607 
L 340.054997 296.384898 
L 339.996546 296.918188 
L 339.938136 297.451479 
L 339.879767 297.98477 
L 339.860778 298.158309 
L 339.821005 298.51806 
L 339.762075 299.051351 
L 339.703186 299.584641 
L 339.644339 300.117932 
L 339.585534 300.651222 
L 339.52677 301.184513 
L 339.468047 301.717804 
L 339.409366 302.251094 
L 339.350725 302.784385 
L 339.292126 303.317675 
L 339.28824 303.353036 
L 339.232965 303.850966 
L 339.173803 304.384257 
L 339.114683 304.917547 
L 339.055604 305.450838 
L 338.996567 305.984128 
L 338.937572 306.517419 
L 338.878618 307.050709 
L 338.819706 307.584 
" style="fill:none;stroke:#0021ee;stroke-width:1.5;"/>
   </g>
   <g id="LineCollection_29">
    <path clip-path="url(#p0f79c79212)" d="M 60.55433 307.584 
L 60.495643 307.050709 
L 60.462685 306.75134 
L 60.437194 306.517419 
L 60.37906 305.984128 
L 60.320887 305.450838 
L 60.262673 304.917547 
L 60.204419 304.384257 
L 60.146125 303.850966 
L 60.087791 303.317675 
L 60.029416 302.784385 
L 59.971001 302.251094 
L 59.912545 301.717804 
L 59.890148 301.513533 
L 59.854439 301.184513 
L 59.796536 300.651222 
L 59.738592 300.117932 
L 59.680609 299.584641 
L 59.622586 299.051351 
L 59.564523 298.51806 
L 59.506419 297.98477 
L 59.448275 297.451479 
L 59.390091 296.918188 
L 59.331866 296.384898 
L 59.317611 296.254356 
L 59.274078 295.851607 
L 59.216404 295.318317 
L 59.158691 294.785026 
L 59.100937 294.251735 
L 59.043144 293.718445 
L 58.985311 293.185154 
L 58.927438 292.651864 
L 58.869525 292.118573 
L 58.811572 291.585283 
L 58.753578 291.051992 
L 58.745074 290.973802 
L 58.696081 290.518701 
L 58.638637 289.985411 
L 58.581153 289.45212 
L 58.52363 288.91883 
L 58.466066 288.385539 
L 58.408463 287.852248 
L 58.350821 287.318958 
L 58.293138 286.785667 
L 58.235415 286.252377 
L 58.177652 285.719086 
L 58.172537 285.671867 
L 58.120421 285.185796 
L 58.063206 284.652505 
L 58.005951 284.119214 
L 57.948657 283.585924 
L 57.891324 283.052633 
L 57.833951 282.519343 
L 57.776538 281.986052 
L 57.719085 281.452762 
L 57.661593 280.919471 
L 57.60406 280.38618 
L 57.6 280.348549 
" style="fill:none;stroke:#0018f3;stroke-width:1.5;"/>
    <path clip-path="url(#p0f79c79212)" d="M 343.296 280.440376 
L 343.244308 280.919471 
L 343.186805 281.452762 
L 343.129341 281.986052 
L 343.071917 282.519343 
L 343.014534 283.052633 
L 342.957189 283.585924 
L 342.899885 284.119214 
L 342.842619 284.652505 
L 342.785394 285.185796 
L 342.728207 285.719086 
L 342.723463 285.763331 
L 342.670485 286.252377 
L 342.612752 286.785667 
L 342.555058 287.318958 
L 342.497404 287.852248 
L 342.43979 288.385539 
L 342.382217 288.91883 
L 342.324682 289.45212 
L 342.267188 289.985411 
L 342.209733 290.518701 
L 342.152317 291.051992 
L 342.150926 291.064916 
L 342.094328 291.585283 
L 342.036364 292.118573 
L 341.978439 292.651864 
L 341.920556 293.185154 
L 341.862712 293.718445 
L 341.804908 294.251735 
L 341.747144 294.785026 
L 341.689419 295.318317 
L 341.631735 295.851607 
L 341.578389 296.345104 
L 341.574043 296.384898 
L 341.515807 296.918188 
L 341.457612 297.451479 
L 341.399458 297.98477 
L 341.341343 298.51806 
L 341.283269 299.051351 
L 341.225235 299.584641 
L 341.167241 300.117932 
L 341.109286 300.651222 
L 341.051372 301.184513 
L 341.005852 301.603904 
L 340.993363 301.717804 
L 340.934896 302.251094 
L 340.87647 302.784385 
L 340.818084 303.317675 
L 340.759739 303.850966 
L 340.701434 304.384257 
L 340.643169 304.917547 
L 340.584945 305.450838 
L 340.52676 305.984128 
L 340.468616 306.517419 
L 340.433315 306.841332 
L 340.410263 307.050709 
L 340.351564 307.584 
" style="fill:none;stroke:#0018f3;stroke-width:1.5;"/>
   </g>
   <g id="LineCollection_30">
    <path clip-path="url(#p0f79c79212)" d="M 59.066001 307.584 
L 59.008184 307.050709 
L 58.950327 306.517419 
L 58.892431 305.984128 
L 58.834495 305.450838 
L 58.77652 304.917547 
L 58.745074 304.6284 
L 58.71879 304.384257 
L 58.661358 303.850966 
L 58.603888 303.317675 
L 58.546378 302.784385 
L 58.48883 302.251094 
L 58.431243 301.717804 
L 58.373616 301.184513 
L 58.31595 300.651222 
L 58.258245 300.117932 
L 58.2005 299.584641 
L 58.172537 299.326476 
L 58.143037 299.051351 
L 58.085834 298.51806 
L 58.028593 297.98477 
L 57.971313 297.451479 
L 57.913994 296.918188 
L 57.856637 296.384898 
L 57.79924 295.851607 
L 57.741804 295.318317 
L 57.684329 294.785026 
L 57.626815 294.251735 
L 57.6 294.003174 
" style="fill:none;stroke:#0010f7;stroke-width:1.5;"/>
    <path clip-path="url(#p0f79c79212)" d="M 343.296 294.093415 
L 343.278919 294.251735 
L 343.221394 294.785026 
L 343.163909 295.318317 
L 343.106463 295.851607 
L 343.049055 296.384898 
L 342.991687 296.918188 
L 342.934358 297.451479 
L 342.877068 297.98477 
L 342.819816 298.51806 
L 342.762603 299.051351 
L 342.723463 299.416354 
L 342.705234 299.584641 
L 342.647478 300.117932 
L 342.589763 300.651222 
L 342.532086 301.184513 
L 342.474449 301.717804 
L 342.416851 302.251094 
L 342.359292 302.784385 
L 342.301773 303.317675 
L 342.244292 303.850966 
L 342.18685 304.384257 
L 342.150926 304.717913 
L 342.129214 304.917547 
L 342.071228 305.450838 
L 342.013281 305.984128 
L 341.955375 306.517419 
L 341.897507 307.050709 
L 341.839679 307.584 
" style="fill:none;stroke:#0010f7;stroke-width:1.5;"/>
   </g>
   <g id="LineCollection_31">
    <path clip-path="url(#p0f79c79212)" d="M 57.61723 307.584 
L 57.6 307.424279 
" style="fill:none;stroke:#0008fb;stroke-width:1.5;"/>
    <path clip-path="url(#p0f79c79212)" d="M 343.296 307.513013 
L 343.288342 307.584 
" style="fill:none;stroke:#0008fb;stroke-width:1.5;"/>
   </g>
   <g id="LineCollection_32"/>
   <g id="patch_3">
    <path d="M 57.6 307.584 
L 57.6 41.472 
" style="fill:none;stroke:#000000;stroke-linecap:square;stroke-linejoin:miter;stroke-width:0.8;"/>
   </g>
   <g id="patch_4">
    <path d="M 343.296 307.584 
L 343.296 41.472 
" style="fill:none;stroke:#000000;stroke-linecap:square;stroke-linejoin:miter;stroke-width:0.8;"/>
   </g>
   <g id="patch_5">
    <path d="M 57.6 307.584 
L 343.296 307.584 
" style="fill:none;stroke:#000000;stroke-linecap:square;stroke-linejoin:miter;stroke-width:0.8;"/>
   </g>
   <g id="patch_6">
    <path d="M 57.6 41.472 
L 343.296 41.472 
" style="fill:none;stroke:#000000;stroke-linecap:square;stroke-linejoin:miter;stroke-width:0.8;"/>
   </g>
  </g>
  <g id="axes_2">
   <g id="patch_7">
    <path clip-path="url(#p18c336f824)" d="M 361.152 307.584 
L 361.152 298.999742 
L 361.152 50.056258 
L 361.152 41.472 
L 374.4576 41.472 
L 374.4576 50.056258 
L 374.4576 298.999742 
L 374.4576 307.584 
z
" style="fill:#ffffff;stroke:#ffffff;stroke-linejoin:miter;stroke-width:0.01;"/>
   </g>
   <g id="matplotlib.axis_3"/>
   <g id="matplotlib.axis_4">
    <g id="ytick_6">
     <g id="line2d_11">
      <defs>
       <path d="M 0 0 
L 3.5 0 
" id="mc060ef82a0" style="stroke:#000000;stroke-width:0.8;"/>
      </defs>
      <g>
       <use style="stroke:#000000;stroke-width:0.8;" x="374.4576" xlink:href="#mc060ef82a0" y="307.584"/>
      </g>
     </g>
     <g id="text_11">
      <!-- 0 -->
      <g transform="translate(381.4576 311.383219)scale(0.1 -0.1)">
       <use xlink:href="#DejaVuSans-48"/>
      </g>
     </g>
    </g>
    <g id="ytick_7">
     <g id="line2d_12">
      <g>
       <use style="stroke:#000000;stroke-width:0.8;" x="374.4576" xlink:href="#mc060ef82a0" y="273.246968"/>
      </g>
     </g>
     <g id="text_12">
      <!-- 12000 -->
      <defs>
       <path d="M 12.40625 8.296875 
L 28.515625 8.296875 
L 28.515625 63.921875 
L 10.984375 60.40625 
L 10.984375 69.390625 
L 28.421875 72.90625 
L 38.28125 72.90625 
L 38.28125 8.296875 
L 54.390625 8.296875 
L 54.390625 0 
L 12.40625 0 
z
" id="DejaVuSans-49"/>
      </defs>
      <g transform="translate(381.4576 277.046186)scale(0.1 -0.1)">
       <use xlink:href="#DejaVuSans-49"/>
       <use x="63.623047" xlink:href="#DejaVuSans-50"/>
       <use x="127.246094" xlink:href="#DejaVuSans-48"/>
       <use x="190.869141" xlink:href="#DejaVuSans-48"/>
       <use x="254.492188" xlink:href="#DejaVuSans-48"/>
      </g>
     </g>
    </g>
    <g id="ytick_8">
     <g id="line2d_13">
      <g>
       <use style="stroke:#000000;stroke-width:0.8;" x="374.4576" xlink:href="#mc060ef82a0" y="238.909935"/>
      </g>
     </g>
     <g id="text_13">
      <!-- 24000 -->
      <g transform="translate(381.4576 242.709154)scale(0.1 -0.1)">
       <use xlink:href="#DejaVuSans-50"/>
       <use x="63.623047" xlink:href="#DejaVuSans-52"/>
       <use x="127.246094" xlink:href="#DejaVuSans-48"/>
       <use x="190.869141" xlink:href="#DejaVuSans-48"/>
       <use x="254.492188" xlink:href="#DejaVuSans-48"/>
      </g>
     </g>
    </g>
    <g id="ytick_9">
     <g id="line2d_14">
      <g>
       <use style="stroke:#000000;stroke-width:0.8;" x="374.4576" xlink:href="#mc060ef82a0" y="204.572903"/>
      </g>
     </g>
     <g id="text_14">
      <!-- 36000 -->
      <defs>
       <path d="M 40.578125 39.3125 
Q 47.65625 37.796875 51.625 33 
Q 55.609375 28.21875 55.609375 21.1875 
Q 55.609375 10.40625 48.1875 4.484375 
Q 40.765625 -1.421875 27.09375 -1.421875 
Q 22.515625 -1.421875 17.65625 -0.515625 
Q 12.796875 0.390625 7.625 2.203125 
L 7.625 11.71875 
Q 11.71875 9.328125 16.59375 8.109375 
Q 21.484375 6.890625 26.8125 6.890625 
Q 36.078125 6.890625 40.9375 10.546875 
Q 45.796875 14.203125 45.796875 21.1875 
Q 45.796875 27.640625 41.28125 31.265625 
Q 36.765625 34.90625 28.71875 34.90625 
L 20.21875 34.90625 
L 20.21875 43.015625 
L 29.109375 43.015625 
Q 36.375 43.015625 40.234375 45.921875 
Q 44.09375 48.828125 44.09375 54.296875 
Q 44.09375 59.90625 40.109375 62.90625 
Q 36.140625 65.921875 28.71875 65.921875 
Q 24.65625 65.921875 20.015625 65.03125 
Q 15.375 64.15625 9.8125 62.3125 
L 9.8125 71.09375 
Q 15.4375 72.65625 20.34375 73.4375 
Q 25.25 74.21875 29.59375 74.21875 
Q 40.828125 74.21875 47.359375 69.109375 
Q 53.90625 64.015625 53.90625 55.328125 
Q 53.90625 49.265625 50.4375 45.09375 
Q 46.96875 40.921875 40.578125 39.3125 
z
" id="DejaVuSans-51"/>
       <path d="M 33.015625 40.375 
Q 26.375 40.375 22.484375 35.828125 
Q 18.609375 31.296875 18.609375 23.390625 
Q 18.609375 15.53125 22.484375 10.953125 
Q 26.375 6.390625 33.015625 6.390625 
Q 39.65625 6.390625 43.53125 10.953125 
Q 47.40625 15.53125 47.40625 23.390625 
Q 47.40625 31.296875 43.53125 35.828125 
Q 39.65625 40.375 33.015625 40.375 
z
M 52.59375 71.296875 
L 52.59375 62.3125 
Q 48.875 64.0625 45.09375 64.984375 
Q 41.3125 65.921875 37.59375 65.921875 
Q 27.828125 65.921875 22.671875 59.328125 
Q 17.53125 52.734375 16.796875 39.40625 
Q 19.671875 43.65625 24.015625 45.921875 
Q 28.375 48.1875 33.59375 48.1875 
Q 44.578125 48.1875 50.953125 41.515625 
Q 57.328125 34.859375 57.328125 23.390625 
Q 57.328125 12.15625 50.6875 5.359375 
Q 44.046875 -1.421875 33.015625 -1.421875 
Q 20.359375 -1.421875 13.671875 8.265625 
Q 6.984375 17.96875 6.984375 36.375 
Q 6.984375 53.65625 15.1875 63.9375 
Q 23.390625 74.21875 37.203125 74.21875 
Q 40.921875 74.21875 44.703125 73.484375 
Q 48.484375 72.75 52.59375 71.296875 
z
" id="DejaVuSans-54"/>
      </defs>
      <g transform="translate(381.4576 208.372122)scale(0.1 -0.1)">
       <use xlink:href="#DejaVuSans-51"/>
       <use x="63.623047" xlink:href="#DejaVuSans-54"/>
       <use x="127.246094" xlink:href="#DejaVuSans-48"/>
       <use x="190.869141" xlink:href="#DejaVuSans-48"/>
       <use x="254.492188" xlink:href="#DejaVuSans-48"/>
      </g>
     </g>
    </g>
    <g id="ytick_10">
     <g id="line2d_15">
      <g>
       <use style="stroke:#000000;stroke-width:0.8;" x="374.4576" xlink:href="#mc060ef82a0" y="170.235871"/>
      </g>
     </g>
     <g id="text_15">
      <!-- 48000 -->
      <defs>
       <path d="M 31.78125 34.625 
Q 24.75 34.625 20.71875 30.859375 
Q 16.703125 27.09375 16.703125 20.515625 
Q 16.703125 13.921875 20.71875 10.15625 
Q 24.75 6.390625 31.78125 6.390625 
Q 38.8125 6.390625 42.859375 10.171875 
Q 46.921875 13.96875 46.921875 20.515625 
Q 46.921875 27.09375 42.890625 30.859375 
Q 38.875 34.625 31.78125 34.625 
z
M 21.921875 38.8125 
Q 15.578125 40.375 12.03125 44.71875 
Q 8.5 49.078125 8.5 55.328125 
Q 8.5 64.0625 14.71875 69.140625 
Q 20.953125 74.21875 31.78125 74.21875 
Q 42.671875 74.21875 48.875 69.140625 
Q 55.078125 64.0625 55.078125 55.328125 
Q 55.078125 49.078125 51.53125 44.71875 
Q 48 40.375 41.703125 38.8125 
Q 48.828125 37.15625 52.796875 32.3125 
Q 56.78125 27.484375 56.78125 20.515625 
Q 56.78125 9.90625 50.3125 4.234375 
Q 43.84375 -1.421875 31.78125 -1.421875 
Q 19.734375 -1.421875 13.25 4.234375 
Q 6.78125 9.90625 6.78125 20.515625 
Q 6.78125 27.484375 10.78125 32.3125 
Q 14.796875 37.15625 21.921875 38.8125 
z
M 18.3125 54.390625 
Q 18.3125 48.734375 21.84375 45.5625 
Q 25.390625 42.390625 31.78125 42.390625 
Q 38.140625 42.390625 41.71875 45.5625 
Q 45.3125 48.734375 45.3125 54.390625 
Q 45.3125 60.0625 41.71875 63.234375 
Q 38.140625 66.40625 31.78125 66.40625 
Q 25.390625 66.40625 21.84375 63.234375 
Q 18.3125 60.0625 18.3125 54.390625 
z
" id="DejaVuSans-56"/>
      </defs>
      <g transform="translate(381.4576 174.03509)scale(0.1 -0.1)">
       <use xlink:href="#DejaVuSans-52"/>
       <use x="63.623047" xlink:href="#DejaVuSans-56"/>
       <use x="127.246094" xlink:href="#DejaVuSans-48"/>
       <use x="190.869141" xlink:href="#DejaVuSans-48"/>
       <use x="254.492188" xlink:href="#DejaVuSans-48"/>
      </g>
     </g>
    </g>
    <g id="ytick_11">
     <g id="line2d_16">
      <g>
       <use style="stroke:#000000;stroke-width:0.8;" x="374.4576" xlink:href="#mc060ef82a0" y="135.898839"/>
      </g>
     </g>
     <g id="text_16">
      <!-- 60000 -->
      <g transform="translate(381.4576 139.698057)scale(0.1 -0.1)">
       <use xlink:href="#DejaVuSans-54"/>
       <use x="63.623047" xlink:href="#DejaVuSans-48"/>
       <use x="127.246094" xlink:href="#DejaVuSans-48"/>
       <use x="190.869141" xlink:href="#DejaVuSans-48"/>
       <use x="254.492188" xlink:href="#DejaVuSans-48"/>
      </g>
     </g>
    </g>
    <g id="ytick_12">
     <g id="line2d_17">
      <g>
       <use style="stroke:#000000;stroke-width:0.8;" x="374.4576" xlink:href="#mc060ef82a0" y="101.561806"/>
      </g>
     </g>
     <g id="text_17">
      <!-- 72000 -->
      <defs>
       <path d="M 8.203125 72.90625 
L 55.078125 72.90625 
L 55.078125 68.703125 
L 28.609375 0 
L 18.3125 0 
L 43.21875 64.59375 
L 8.203125 64.59375 
z
" id="DejaVuSans-55"/>
      </defs>
      <g transform="translate(381.4576 105.361025)scale(0.1 -0.1)">
       <use xlink:href="#DejaVuSans-55"/>
       <use x="63.623047" xlink:href="#DejaVuSans-50"/>
       <use x="127.246094" xlink:href="#DejaVuSans-48"/>
       <use x="190.869141" xlink:href="#DejaVuSans-48"/>
       <use x="254.492188" xlink:href="#DejaVuSans-48"/>
      </g>
     </g>
    </g>
    <g id="ytick_13">
     <g id="line2d_18">
      <g>
       <use style="stroke:#000000;stroke-width:0.8;" x="374.4576" xlink:href="#mc060ef82a0" y="67.224774"/>
      </g>
     </g>
     <g id="text_18">
      <!-- 84000 -->
      <g transform="translate(381.4576 71.023993)scale(0.1 -0.1)">
       <use xlink:href="#DejaVuSans-56"/>
       <use x="63.623047" xlink:href="#DejaVuSans-52"/>
       <use x="127.246094" xlink:href="#DejaVuSans-48"/>
       <use x="190.869141" xlink:href="#DejaVuSans-48"/>
       <use x="254.492188" xlink:href="#DejaVuSans-48"/>
      </g>
     </g>
    </g>
   </g>
   <g id="LineCollection_33">
    <path clip-path="url(#p18c336f824)" d="M 361.152 307.584 
L 374.4576 307.584 
" style="fill:none;stroke:#00ff80;stroke-width:1.5;"/>
    <path clip-path="url(#p18c336f824)" d="M 361.152 298.999742 
L 374.4576 298.999742 
" style="fill:none;stroke:#00f784;stroke-width:1.5;"/>
    <path clip-path="url(#p18c336f824)" d="M 361.152 290.415484 
L 374.4576 290.415484 
" style="fill:none;stroke:#00ef88;stroke-width:1.5;"/>
    <path clip-path="url(#p18c336f824)" d="M 361.152 281.831226 
L 374.4576 281.831226 
" style="fill:none;stroke:#00e78c;stroke-width:1.5;"/>
    <path clip-path="url(#p18c336f824)" d="M 361.152 273.246968 
L 374.4576 273.246968 
" style="fill:none;stroke:#00de90;stroke-width:1.5;"/>
    <path clip-path="url(#p18c336f824)" d="M 361.152 264.66271 
L 374.4576 264.66271 
" style="fill:none;stroke:#00d694;stroke-width:1.5;"/>
    <path clip-path="url(#p18c336f824)" d="M 361.152 256.078452 
L 374.4576 256.078452 
" style="fill:none;stroke:#00ce98;stroke-width:1.5;"/>
    <path clip-path="url(#p18c336f824)" d="M 361.152 247.494194 
L 374.4576 247.494194 
" style="fill:none;stroke:#00c69c;stroke-width:1.5;"/>
    <path clip-path="url(#p18c336f824)" d="M 361.152 238.909935 
L 374.4576 238.909935 
" style="fill:none;stroke:#00bda0;stroke-width:1.5;"/>
    <path clip-path="url(#p18c336f824)" d="M 361.152 230.325677 
L 374.4576 230.325677 
" style="fill:none;stroke:#00b5a4;stroke-width:1.5;"/>
    <path clip-path="url(#p18c336f824)" d="M 361.152 221.741419 
L 374.4576 221.741419 
" style="fill:none;stroke:#00ada8;stroke-width:1.5;"/>
    <path clip-path="url(#p18c336f824)" d="M 361.152 213.157161 
L 374.4576 213.157161 
" style="fill:none;stroke:#00a5ac;stroke-width:1.5;"/>
    <path clip-path="url(#p18c336f824)" d="M 361.152 204.572903 
L 374.4576 204.572903 
" style="fill:none;stroke:#009cb1;stroke-width:1.5;"/>
    <path clip-path="url(#p18c336f824)" d="M 361.152 195.988645 
L 374.4576 195.988645 
" style="fill:none;stroke:#0094b5;stroke-width:1.5;"/>
    <path clip-path="url(#p18c336f824)" d="M 361.152 187.404387 
L 374.4576 187.404387 
" style="fill:none;stroke:#008cb9;stroke-width:1.5;"/>
    <path clip-path="url(#p18c336f824)" d="M 361.152 178.820129 
L 374.4576 178.820129 
" style="fill:none;stroke:#0084bd;stroke-width:1.5;"/>
    <path clip-path="url(#p18c336f824)" d="M 361.152 170.235871 
L 374.4576 170.235871 
" style="fill:none;stroke:#007bc2;stroke-width:1.5;"/>
    <path clip-path="url(#p18c336f824)" d="M 361.152 161.651613 
L 374.4576 161.651613 
" style="fill:none;stroke:#0073c6;stroke-width:1.5;"/>
    <path clip-path="url(#p18c336f824)" d="M 361.152 153.067355 
L 374.4576 153.067355 
" style="fill:none;stroke:#006bca;stroke-width:1.5;"/>
    <path clip-path="url(#p18c336f824)" d="M 361.152 144.483097 
L 374.4576 144.483097 
" style="fill:none;stroke:#0063ce;stroke-width:1.5;"/>
    <path clip-path="url(#p18c336f824)" d="M 361.152 135.898839 
L 374.4576 135.898839 
" style="fill:none;stroke:#005ad2;stroke-width:1.5;"/>
    <path clip-path="url(#p18c336f824)" d="M 361.152 127.314581 
L 374.4576 127.314581 
" style="fill:none;stroke:#0052d6;stroke-width:1.5;"/>
    <path clip-path="url(#p18c336f824)" d="M 361.152 118.730323 
L 374.4576 118.730323 
" style="fill:none;stroke:#004ada;stroke-width:1.5;"/>
    <path clip-path="url(#p18c336f824)" d="M 361.152 110.146065 
L 374.4576 110.146065 
" style="fill:none;stroke:#0042de;stroke-width:1.5;"/>
    <path clip-path="url(#p18c336f824)" d="M 361.152 101.561806 
L 374.4576 101.561806 
" style="fill:none;stroke:#0039e2;stroke-width:1.5;"/>
    <path clip-path="url(#p18c336f824)" d="M 361.152 92.977548 
L 374.4576 92.977548 
" style="fill:none;stroke:#0031e6;stroke-width:1.5;"/>
    <path clip-path="url(#p18c336f824)" d="M 361.152 84.39329 
L 374.4576 84.39329 
" style="fill:none;stroke:#0029eb;stroke-width:1.5;"/>
    <path clip-path="url(#p18c336f824)" d="M 361.152 75.809032 
L 374.4576 75.809032 
" style="fill:none;stroke:#0021ee;stroke-width:1.5;"/>
    <path clip-path="url(#p18c336f824)" d="M 361.152 67.224774 
L 374.4576 67.224774 
" style="fill:none;stroke:#0018f3;stroke-width:1.5;"/>
    <path clip-path="url(#p18c336f824)" d="M 361.152 58.640516 
L 374.4576 58.640516 
" style="fill:none;stroke:#0010f7;stroke-width:1.5;"/>
    <path clip-path="url(#p18c336f824)" d="M 361.152 50.056258 
L 374.4576 50.056258 
" style="fill:none;stroke:#0008fb;stroke-width:1.5;"/>
    <path clip-path="url(#p18c336f824)" d="M 361.152 41.472 
L 374.4576 41.472 
" style="fill:none;stroke:#0000ff;stroke-width:1.5;"/>
   </g>
   <g id="patch_8">
    <path d="M 361.152 307.584 
L 361.152 298.999742 
L 361.152 50.056258 
L 361.152 41.472 
L 374.4576 41.472 
L 374.4576 50.056258 
L 374.4576 298.999742 
L 374.4576 307.584 
z
" style="fill:none;stroke:#000000;stroke-linejoin:miter;stroke-width:0.8;"/>
   </g>
  </g>
 </g>
 <defs>
  <clipPath id="p0f79c79212">
   <rect height="266.112" width="285.696" x="57.6" y="41.472"/>
  </clipPath>
  <clipPath id="p18c336f824">
   <rect height="266.112" width="13.3056" x="361.152" y="41.472"/>
  </clipPath>
 </defs>
</svg>
