<?xml version="1.0" encoding="utf-8" standalone="no"?>
<!DOCTYPE svg PUBLIC "-//W3C//DTD SVG 1.1//EN"
  "http://www.w3.org/Graphics/SVG/1.1/DTD/svg11.dtd">
<!-- Created with matplotlib (https://matplotlib.org/) -->
<svg height="345.6pt" version="1.1" viewBox="0 0 460.8 345.6" width="460.8pt" xmlns="http://www.w3.org/2000/svg" xmlns:xlink="http://www.w3.org/1999/xlink">
 <defs>
  <style type="text/css">
*{stroke-linecap:butt;stroke-linejoin:round;}
  </style>
 </defs>
 <g id="figure_1">
  <g id="patch_1">
   <path d="M 0 345.6 
L 460.8 345.6 
L 460.8 0 
L 0 0 
z
" style="fill:#ffffff;"/>
  </g>
  <g id="axes_1">
   <g id="patch_2">
    <path d="M 57.6 307.584 
L 343.296 307.584 
L 343.296 41.472 
L 57.6 41.472 
z
" style="fill:#ffffff;"/>
   </g>
   <g id="matplotlib.axis_1">
    <g id="xtick_1">
     <g id="line2d_1">
      <defs>
       <path d="M 0 0 
L 0 3.5 
" id="m00fc38327a" style="stroke:#000000;stroke-width:0.8;"/>
      </defs>
      <g>
       <use style="stroke:#000000;stroke-width:0.8;" x="86.1696" xlink:href="#m00fc38327a" y="307.584"/>
      </g>
     </g>
     <g id="text_1">
      <!-- −4 -->
      <defs>
       <path d="M 10.59375 35.5 
L 73.1875 35.5 
L 73.1875 27.203125 
L 10.59375 27.203125 
z
" id="DejaVuSans-8722"/>
       <path d="M 37.796875 64.3125 
L 12.890625 25.390625 
L 37.796875 25.390625 
z
M 35.203125 72.90625 
L 47.609375 72.90625 
L 47.609375 25.390625 
L 58.015625 25.390625 
L 58.015625 17.1875 
L 47.609375 17.1875 
L 47.609375 0 
L 37.796875 0 
L 37.796875 17.1875 
L 4.890625 17.1875 
L 4.890625 26.703125 
z
" id="DejaVuSans-52"/>
      </defs>
      <g transform="translate(78.798506 322.182437)scale(0.1 -0.1)">
       <use xlink:href="#DejaVuSans-8722"/>
       <use x="83.789062" xlink:href="#DejaVuSans-52"/>
      </g>
     </g>
    </g>
    <g id="xtick_2">
     <g id="line2d_2">
      <g>
       <use style="stroke:#000000;stroke-width:0.8;" x="143.3088" xlink:href="#m00fc38327a" y="307.584"/>
      </g>
     </g>
     <g id="text_2">
      <!-- −2 -->
      <defs>
       <path d="M 19.1875 8.296875 
L 53.609375 8.296875 
L 53.609375 0 
L 7.328125 0 
L 7.328125 8.296875 
Q 12.9375 14.109375 22.625 23.890625 
Q 32.328125 33.6875 34.8125 36.53125 
Q 39.546875 41.84375 41.421875 45.53125 
Q 43.3125 49.21875 43.3125 52.78125 
Q 43.3125 58.59375 39.234375 62.25 
Q 35.15625 65.921875 28.609375 65.921875 
Q 23.96875 65.921875 18.8125 64.3125 
Q 13.671875 62.703125 7.8125 59.421875 
L 7.8125 69.390625 
Q 13.765625 71.78125 18.9375 73 
Q 24.125 74.21875 28.421875 74.21875 
Q 39.75 74.21875 46.484375 68.546875 
Q 53.21875 62.890625 53.21875 53.421875 
Q 53.21875 48.921875 51.53125 44.890625 
Q 49.859375 40.875 45.40625 35.40625 
Q 44.1875 33.984375 37.640625 27.21875 
Q 31.109375 20.453125 19.1875 8.296875 
z
" id="DejaVuSans-50"/>
      </defs>
      <g transform="translate(135.937706 322.182437)scale(0.1 -0.1)">
       <use xlink:href="#DejaVuSans-8722"/>
       <use x="83.789062" xlink:href="#DejaVuSans-50"/>
      </g>
     </g>
    </g>
    <g id="xtick_3">
     <g id="line2d_3">
      <g>
       <use style="stroke:#000000;stroke-width:0.8;" x="200.448" xlink:href="#m00fc38327a" y="307.584"/>
      </g>
     </g>
     <g id="text_3">
      <!-- 0 -->
      <defs>
       <path d="M 31.78125 66.40625 
Q 24.171875 66.40625 20.328125 58.90625 
Q 16.5 51.421875 16.5 36.375 
Q 16.5 21.390625 20.328125 13.890625 
Q 24.171875 6.390625 31.78125 6.390625 
Q 39.453125 6.390625 43.28125 13.890625 
Q 47.125 21.390625 47.125 36.375 
Q 47.125 51.421875 43.28125 58.90625 
Q 39.453125 66.40625 31.78125 66.40625 
z
M 31.78125 74.21875 
Q 44.046875 74.21875 50.515625 64.515625 
Q 56.984375 54.828125 56.984375 36.375 
Q 56.984375 17.96875 50.515625 8.265625 
Q 44.046875 -1.421875 31.78125 -1.421875 
Q 19.53125 -1.421875 13.0625 8.265625 
Q 6.59375 17.96875 6.59375 36.375 
Q 6.59375 54.828125 13.0625 64.515625 
Q 19.53125 74.21875 31.78125 74.21875 
z
" id="DejaVuSans-48"/>
      </defs>
      <g transform="translate(197.26675 322.182437)scale(0.1 -0.1)">
       <use xlink:href="#DejaVuSans-48"/>
      </g>
     </g>
    </g>
    <g id="xtick_4">
     <g id="line2d_4">
      <g>
       <use style="stroke:#000000;stroke-width:0.8;" x="257.5872" xlink:href="#m00fc38327a" y="307.584"/>
      </g>
     </g>
     <g id="text_4">
      <!-- 2 -->
      <g transform="translate(254.40595 322.182437)scale(0.1 -0.1)">
       <use xlink:href="#DejaVuSans-50"/>
      </g>
     </g>
    </g>
    <g id="xtick_5">
     <g id="line2d_5">
      <g>
       <use style="stroke:#000000;stroke-width:0.8;" x="314.7264" xlink:href="#m00fc38327a" y="307.584"/>
      </g>
     </g>
     <g id="text_5">
      <!-- 4 -->
      <g transform="translate(311.54515 322.182437)scale(0.1 -0.1)">
       <use xlink:href="#DejaVuSans-52"/>
      </g>
     </g>
    </g>
   </g>
   <g id="matplotlib.axis_2">
    <g id="ytick_1">
     <g id="line2d_6">
      <defs>
       <path d="M 0 0 
L -3.5 0 
" id="md4cc197c50" style="stroke:#000000;stroke-width:0.8;"/>
      </defs>
      <g>
       <use style="stroke:#000000;stroke-width:0.8;" x="57.6" xlink:href="#md4cc197c50" y="280.9728"/>
      </g>
     </g>
     <g id="text_6">
      <!-- −4 -->
      <g transform="translate(35.857813 284.772019)scale(0.1 -0.1)">
       <use xlink:href="#DejaVuSans-8722"/>
       <use x="83.789062" xlink:href="#DejaVuSans-52"/>
      </g>
     </g>
    </g>
    <g id="ytick_2">
     <g id="line2d_7">
      <g>
       <use style="stroke:#000000;stroke-width:0.8;" x="57.6" xlink:href="#md4cc197c50" y="227.7504"/>
      </g>
     </g>
     <g id="text_7">
      <!-- −2 -->
      <g transform="translate(35.857813 231.549619)scale(0.1 -0.1)">
       <use xlink:href="#DejaVuSans-8722"/>
       <use x="83.789062" xlink:href="#DejaVuSans-50"/>
      </g>
     </g>
    </g>
    <g id="ytick_3">
     <g id="line2d_8">
      <g>
       <use style="stroke:#000000;stroke-width:0.8;" x="57.6" xlink:href="#md4cc197c50" y="174.528"/>
      </g>
     </g>
     <g id="text_8">
      <!-- 0 -->
      <g transform="translate(44.2375 178.327219)scale(0.1 -0.1)">
       <use xlink:href="#DejaVuSans-48"/>
      </g>
     </g>
    </g>
    <g id="ytick_4">
     <g id="line2d_9">
      <g>
       <use style="stroke:#000000;stroke-width:0.8;" x="57.6" xlink:href="#md4cc197c50" y="121.3056"/>
      </g>
     </g>
     <g id="text_9">
      <!-- 2 -->
      <g transform="translate(44.2375 125.104819)scale(0.1 -0.1)">
       <use xlink:href="#DejaVuSans-50"/>
      </g>
     </g>
    </g>
    <g id="ytick_5">
     <g id="line2d_10">
      <g>
       <use style="stroke:#000000;stroke-width:0.8;" x="57.6" xlink:href="#md4cc197c50" y="68.0832"/>
      </g>
     </g>
     <g id="text_10">
      <!-- 4 -->
      <g transform="translate(44.2375 71.882419)scale(0.1 -0.1)">
       <use xlink:href="#DejaVuSans-52"/>
      </g>
     </g>
    </g>
   </g>
   <g id="LineCollection_1"/>
   <g id="LineCollection_2">
    <path clip-path="url(#pa89877d646)" d="M 343.296 260.596399 
L 307.738355 255.321523 
L 274.019014 249.978625 
L 244.819623 245.024364 
L 221.91814 240.882724 
L 199.016657 236.462574 
L 180.695471 232.686103 
L 164.664433 229.169585 
L 147.488321 225.128529 
L 134.892505 221.947898 
L 123.441764 218.859051 
L 112.563559 215.710887 
L 102.257892 212.488133 
L 93.330649 209.458533 
L 84.711229 206.25879 
L 77.638798 203.368002 
L 71.913427 200.79802 
L 66.760593 198.249171 
L 61.951665 195.592978 
L 58.172537 193.241221 
L 57.6 192.860199 
L 57.6 192.860199 
" style="fill:none;stroke:#00f784;stroke-width:1.5;"/>
    <path clip-path="url(#pa89877d646)" d="M 57.6 156.146542 
L 60.462685 154.309524 
L 64.470445 151.985379 
L 68.478204 149.880288 
L 73.226852 147.596826 
L 79.356409 144.910371 
L 86.799391 141.946129 
L 93.669836 139.430298 
L 102.257892 136.519031 
L 110.845948 133.81549 
L 120.187652 131.064818 
L 133.174894 127.509779 
L 144.625635 124.583267 
L 160.084136 120.885617 
L 177.832786 116.933761 
L 194.436361 113.465455 
L 216.765307 109.093564 
L 239.66679 104.892616 
L 266.576032 100.261071 
L 287.759904 96.808394 
L 317.960515 92.134605 
L 343.296 88.410325 
L 343.296 88.410325 
" style="fill:none;stroke:#00f784;stroke-width:1.5;"/>
   </g>
   <g id="LineCollection_3">
    <path clip-path="url(#pa89877d646)" d="M 343.296 269.482111 
L 308.943776 264.892517 
L 271.156329 259.556792 
L 237.376641 254.485088 
L 212.18501 250.48474 
L 183.885216 245.722293 
L 157.793988 241.028883 
L 140.045339 237.637882 
L 120.006541 233.575404 
L 105.120577 230.366855 
L 91.379687 227.231726 
L 78.211335 224.041662 
L 66.188056 220.937866 
L 57.6 218.588147 
L 57.6 218.588147 
" style="fill:none;stroke:#00ef88;stroke-width:1.5;"/>
    <path clip-path="url(#pa89877d646)" d="M 57.6 130.433756 
L 70.195816 127.026661 
L 82.219094 123.987631 
L 97.373546 120.399006 
L 115.426244 116.415044 
L 132.602357 112.861259 
L 153.786228 108.743011 
L 171.612479 105.46687 
L 197.871583 100.908339 
L 221.345603 97.058582 
L 244.247086 93.479569 
L 272.301403 89.299234 
L 305.016963 84.668537 
L 343.296 79.539445 
L 343.296 79.539445 
" style="fill:none;stroke:#00ef88;stroke-width:1.5;"/>
   </g>
   <g id="LineCollection_4">
    <path clip-path="url(#pa89877d646)" d="M 343.296 275.770557 
L 308.943776 271.47732 
L 277.454236 267.367347 
L 243.674549 262.747025 
L 208.749788 257.698686 
L 181.840545 253.590601 
L 153.786228 249.06662 
L 132.02982 245.359575 
L 111.418485 241.659128 
L 92.524762 238.07825 
L 73.058501 234.164376 
L 57.6 230.863465 
L 57.6 230.863465 
" style="fill:none;stroke:#00e78c;stroke-width:1.5;"/>
    <path clip-path="url(#pa89877d646)" d="M 57.6 118.164664 
L 75.348649 114.38978 
L 94.81491 110.505103 
L 114.28117 106.842823 
L 136.037579 102.971082 
L 157.793988 99.298637 
L 182.413082 95.34688 
L 205.314565 91.842367 
L 233.368882 87.740378 
L 267.721106 82.967734 
L 305.508553 77.990688 
L 341.578389 73.466463 
L 343.296 73.25746 
L 343.296 73.25746 
" style="fill:none;stroke:#00e78c;stroke-width:1.5;"/>
   </g>
   <g id="LineCollection_5">
    <path clip-path="url(#pa89877d646)" d="M 343.296 280.78225 
L 299.210645 275.512834 
L 256.842902 270.175153 
L 217.910381 264.993119 
L 190.428601 261.149003 
L 156.648914 256.17525 
L 129.167134 251.894044 
L 103.975503 247.750499 
L 79.356409 243.460386 
L 57.6 239.433765 
L 57.6 239.433765 
" style="fill:none;stroke:#00de90;stroke-width:1.5;"/>
    <path clip-path="url(#pa89877d646)" d="M 57.6 109.598058 
L 79.356409 105.571207 
L 99.395206 102.060484 
L 124.014301 97.966182 
L 153.786228 93.291415 
L 178.405323 89.619989 
L 205.887102 85.699747 
L 243.674549 80.577785 
L 275.736625 76.440958 
L 314.096609 71.709718 
L 343.296 68.249324 
L 343.296 68.249324 
" style="fill:none;stroke:#00de90;stroke-width:1.5;"/>
   </g>
   <g id="LineCollection_6">
    <path clip-path="url(#pa89877d646)" d="M 343.296 285.008618 
L 298.065571 279.816104 
L 252.262605 274.281104 
L 215.047695 269.547754 
L 178.97786 264.723122 
L 146.315823 260.121138 
L 112.563559 255.087563 
L 85.654317 250.838034 
L 61.035222 246.732061 
L 57.6 246.140005 
L 57.6 246.140005 
" style="fill:none;stroke:#00d694;stroke-width:1.5;"/>
    <path clip-path="url(#pa89877d646)" d="M 57.6 102.894162 
L 78.783872 99.319742 
L 103.609594 95.334349 
L 135.465042 90.498394 
L 169.244729 85.657396 
L 205.314565 80.763922 
L 242.529475 75.969046 
L 282.60707 71.053721 
L 322.112128 66.426593 
L 343.296 64.025573 
L 343.296 64.025573 
" style="fill:none;stroke:#00d694;stroke-width:1.5;"/>
   </g>
   <g id="LineCollection_7">
    <path clip-path="url(#pa89877d646)" d="M 343.296 288.694724 
L 297.256074 283.585924 
L 247.682309 277.800937 
L 213.902621 273.665809 
L 178.860752 269.187078 
L 139.257526 263.854172 
L 103.402966 258.734304 
L 75.921186 254.5896 
L 57.6 251.703163 
L 57.6 251.703163 
" style="fill:none;stroke:#00ce98;stroke-width:1.5;"/>
    <path clip-path="url(#pa89877d646)" d="M 57.6 97.333086 
L 85.654317 92.954614 
L 114.28117 88.716541 
L 145.770709 84.284127 
L 176.115174 80.210063 
L 212.757547 75.513099 
L 255.125291 70.346234 
L 290.622589 66.207414 
L 331.845259 61.59053 
L 343.296 60.341403 
L 343.296 60.341403 
" style="fill:none;stroke:#00ce98;stroke-width:1.5;"/>
   </g>
   <g id="LineCollection_8">
    <path clip-path="url(#pa89877d646)" d="M 343.296 291.982553 
L 292.3402 286.478993 
L 249.972457 281.688237 
L 210.467399 277.019793 
L 170.389804 272.055388 
L 136.610116 267.666372 
L 107.410725 263.697834 
L 74.776112 259.04335 
L 57.6 256.486575 
L 57.6 256.486575 
" style="fill:none;stroke:#00c69c;stroke-width:1.5;"/>
    <path clip-path="url(#pa89877d646)" d="M 57.6 92.551145 
L 88.517002 88.004333 
L 117.143856 83.997674 
L 152.641154 79.26287 
L 192.718749 74.186065 
L 229.361122 69.758335 
L 264.858421 65.642016 
L 305.508553 61.110405 
L 343.296 57.055 
L 343.296 57.055 
" style="fill:none;stroke:#00c69c;stroke-width:1.5;"/>
   </g>
   <g id="LineCollection_9">
    <path clip-path="url(#pa89877d646)" d="M 343.296 294.961692 
L 298.065571 290.215418 
L 253.407679 285.33026 
L 213.902621 280.821805 
L 169.817267 275.553508 
L 127.449523 270.217141 
L 88.517002 265.036109 
L 59.317611 260.946801 
L 57.6 260.700882 
L 57.6 260.700882 
" style="fill:none;stroke:#00bda0;stroke-width:1.5;"/>
    <path clip-path="url(#pa89877d646)" d="M 57.6 88.338041 
L 91.952224 83.533509 
L 129.167134 78.600252 
L 166.382044 73.907803 
L 209.322325 68.752115 
L 245.964697 64.543868 
L 286.61483 60.055692 
L 339.860778 54.430963 
L 343.296 54.077171 
L 343.296 54.077171 
" style="fill:none;stroke:#00bda0;stroke-width:1.5;"/>
   </g>
   <g id="LineCollection_10">
    <path clip-path="url(#pa89877d646)" d="M 343.296 297.694095 
L 294.057812 292.638551 
L 239.094253 286.724975 
L 189.856064 281.149003 
L 150.351006 276.455524 
L 111.418485 271.608223 
L 75.921186 266.967871 
L 57.6 264.478976 
L 57.6 264.478976 
" style="fill:none;stroke:#00b5a4;stroke-width:1.5;"/>
    <path clip-path="url(#pa89877d646)" d="M 57.6 84.560902 
L 93.097299 79.797923 
L 132.602357 74.764882 
L 169.817267 70.244389 
L 216.765307 64.808421 
L 264.858421 59.50533 
L 317.531832 53.96506 
L 343.296 51.345716 
L 343.296 51.345716 
" style="fill:none;stroke:#00b5a4;stroke-width:1.5;"/>
   </g>
   <g id="LineCollection_11">
    <path clip-path="url(#pa89877d646)" d="M 343.296 300.224221 
L 296.920497 295.566648 
L 248.254846 290.479201 
L 195.581435 284.707454 
L 157.793988 280.3735 
L 111.991022 274.868473 
L 73.631038 270.014775 
L 57.6 267.911724 
L 57.6 267.911724 
" style="fill:none;stroke:#00ada8;stroke-width:1.5;"/>
    <path clip-path="url(#pa89877d646)" d="M 57.6 81.128886 
L 90.80715 76.822624 
L 125.731912 72.489363 
L 161.22921 68.266422 
L 199.704355 63.870204 
L 252.262605 58.134459 
L 296.34796 53.532555 
L 343.296 48.81648 
L 343.296 48.81648 
" style="fill:none;stroke:#00ada8;stroke-width:1.5;"/>
   </g>
   <g id="LineCollection_12">
    <path clip-path="url(#pa89877d646)" d="M 343.296 302.583648 
L 287.759904 297.092923 
L 240.811864 292.251783 
L 197.871583 287.642334 
L 152.068617 282.509986 
L 105.120577 276.981131 
L 66.188056 272.159771 
L 57.6 271.063815 
L 57.6 271.063815 
" style="fill:none;stroke:#00a5ac;stroke-width:1.5;"/>
    <path clip-path="url(#pa89877d646)" d="M 57.6 77.977531 
L 93.669836 73.453625 
L 138.327727 68.119649 
L 186.993379 62.596822 
L 234.351551 57.470717 
L 291.767663 51.543517 
L 343.296 46.457672 
L 343.296 46.457672 
" style="fill:none;stroke:#00a5ac;stroke-width:1.5;"/>
   </g>
   <g id="LineCollection_13">
    <path clip-path="url(#pa89877d646)" d="M 343.296 304.798617 
L 283.179607 298.949983 
L 226.621715 293.185154 
L 171.534878 287.286491 
L 121.724152 281.673139 
L 82.219094 277.003428 
L 57.6 273.983224 
L 57.6 273.983224 
" style="fill:none;stroke:#009cb1;stroke-width:1.5;"/>
    <path clip-path="url(#pa89877d646)" d="M 57.6 75.058797 
L 101.685355 69.710852 
L 148.633395 64.300885 
L 197.299046 58.959684 
L 249.39992 53.50273 
L 301.500794 48.280912 
L 343.296 44.243298 
L 343.296 44.243298 
" style="fill:none;stroke:#009cb1;stroke-width:1.5;"/>
   </g>
   <g id="LineCollection_14">
    <path clip-path="url(#pa89877d646)" d="M 343.296 306.887844 
L 283.671402 301.184513 
L 222.490677 295.050328 
L 173.825026 289.939796 
L 122.296689 284.268401 
L 82.791631 279.713864 
L 57.6 276.70392 
L 57.6 276.70392 
" style="fill:none;stroke:#0094b5;stroke-width:1.5;"/>
    <path clip-path="url(#pa89877d646)" d="M 57.6 72.338674 
L 102.167996 67.069948 
L 151.49608 61.525769 
L 199.254216 56.404136 
L 256.842902 50.510358 
L 318.104369 44.534074 
L 343.296 42.15464 
L 343.296 42.15464 
" style="fill:none;stroke:#0094b5;stroke-width:1.5;"/>
   </g>
   <g id="LineCollection_15">
    <path clip-path="url(#pa89877d646)" d="M 329.43646 307.584 
L 263.14081 301.259996 
L 216.19277 296.583514 
L 168.099655 291.600618 
L 126.876986 287.15292 
L 80.501483 281.930551 
L 57.6 279.255332 
L 57.6 279.255332 
" style="fill:none;stroke:#008cb9;stroke-width:1.5;"/>
    <path clip-path="url(#pa89877d646)" d="M 57.6 69.787618 
L 94.242373 65.538941 
L 133.174894 61.19868 
L 186.993379 55.460187 
L 232.796345 50.78562 
L 284.897218 45.67353 
L 329.297035 41.472 
L 329.297035 41.472 
" style="fill:none;stroke:#008cb9;stroke-width:1.5;"/>
   </g>
   <g id="LineCollection_16">
    <path clip-path="url(#pa89877d646)" d="M 308.87776 307.584 
L 243.102012 301.31055 
L 194.436361 296.462157 
L 149.778469 291.836248 
L 103.402966 286.831994 
L 64.470445 282.451248 
L 57.6 281.659178 
L 57.6 281.659178 
" style="fill:none;stroke:#0084bd;stroke-width:1.5;"/>
    <path clip-path="url(#pa89877d646)" d="M 57.6 67.384293 
L 101.112818 62.464921 
L 144.625635 57.752706 
L 193.548711 52.671102 
L 253.980216 46.674261 
L 308.743077 41.472 
L 308.743077 41.472 
" style="fill:none;stroke:#0084bd;stroke-width:1.5;"/>
   </g>
   <g id="LineCollection_17">
    <path clip-path="url(#pa89877d646)" d="M 288.994227 307.584 
L 223.063214 301.295387 
L 174.9701 296.504285 
L 129.167134 291.759317 
L 84.509242 286.940521 
L 57.6 283.934369 
L 57.6 283.934369 
" style="fill:none;stroke:#007bc2;stroke-width:1.5;"/>
    <path clip-path="url(#pa89877d646)" d="M 57.6 65.10946 
L 99.395206 60.474515 
L 148.060858 55.303875 
L 205.314565 49.494801 
L 252.262605 44.926282 
L 288.863772 41.472 
L 288.863772 41.472 
" style="fill:none;stroke:#007bc2;stroke-width:1.5;"/>
   </g>
   <g id="LineCollection_18">
    <path clip-path="url(#pa89877d646)" d="M 269.723411 307.584 
L 204.169491 301.33208 
L 154.931303 296.426509 
L 110.845948 291.859419 
L 63.829918 286.785667 
L 57.6 286.095265 
L 57.6 286.095265 
" style="fill:none;stroke:#0073c6;stroke-width:1.5;"/>
    <path clip-path="url(#pa89877d646)" d="M 57.6 62.94892 
L 99.967743 58.339148 
L 149.778469 53.142689 
L 207.604713 47.376469 
L 255.697828 42.773595 
L 269.596858 41.472 
L 269.596858 41.472 
" style="fill:none;stroke:#0073c6;stroke-width:1.5;"/>
   </g>
   <g id="LineCollection_19">
    <path clip-path="url(#pa89877d646)" d="M 251.011863 307.584 
L 185.848305 301.37009 
L 135.465042 296.349721 
L 79.504276 290.518701 
L 57.6 288.153992 
L 57.6 288.153992 
" style="fill:none;stroke:#006bca;stroke-width:1.5;"/>
    <path clip-path="url(#pa89877d646)" d="M 57.6 60.890546 
L 102.830429 56.061066 
L 150.351006 51.190465 
L 198.44412 46.449967 
L 250.888912 41.472 
L 250.888912 41.472 
" style="fill:none;stroke:#006bca;stroke-width:1.5;"/>
   </g>
   <g id="LineCollection_20">
    <path clip-path="url(#pa89877d646)" d="M 232.813587 307.584 
L 167.527118 301.358074 
L 117.143856 296.337074 
L 62.180297 290.611475 
L 57.6 290.121412 
L 57.6 290.121412 
" style="fill:none;stroke:#0063ce;stroke-width:1.5;"/>
    <path clip-path="url(#pa89877d646)" d="M 57.6 58.923473 
L 108.5558 53.584901 
L 162.946822 48.135129 
L 217.337844 42.910567 
L 232.693923 41.472 
L 232.693923 41.472 
" style="fill:none;stroke:#0063ce;stroke-width:1.5;"/>
   </g>
   <g id="LineCollection_21">
    <path clip-path="url(#pa89877d646)" d="M 215.088568 307.584 
L 150.351006 301.411579 
L 98.822669 296.276091 
L 57.6 292.005942 
L 57.6 292.005942 
" style="fill:none;stroke:#005ad2;stroke-width:1.5;"/>
    <path clip-path="url(#pa89877d646)" d="M 57.6 57.039156 
L 102.257892 52.420217 
L 154.358766 47.242484 
L 214.971919 41.472 
L 214.971919 41.472 
" style="fill:none;stroke:#005ad2;stroke-width:1.5;"/>
   </g>
   <g id="LineCollection_22">
    <path clip-path="url(#pa89877d646)" d="M 197.801668 307.584 
L 133.174894 301.422365 
L 81.07402 296.228889 
L 57.6 293.815229 
L 57.6 293.815229 
" style="fill:none;stroke:#0052d6;stroke-width:1.5;"/>
    <path clip-path="url(#pa89877d646)" d="M 57.6 55.230208 
L 111.991022 49.708643 
L 164.664433 44.584303 
L 197.687846 41.472 
L 197.687846 41.472 
" style="fill:none;stroke:#0052d6;stroke-width:1.5;"/>
   </g>
   <g id="LineCollection_23">
    <path clip-path="url(#pa89877d646)" d="M 180.92194 307.584 
L 115.998782 301.393428 
L 65.042982 296.315498 
L 57.6 295.555477 
L 57.6 295.555477 
" style="fill:none;stroke:#004ada;stroke-width:1.5;"/>
    <path clip-path="url(#pa89877d646)" d="M 57.6 53.49017 
L 109.128337 48.324668 
L 169.404082 42.538581 
L 180.810694 41.472 
L 180.810694 41.472 
" style="fill:none;stroke:#004ada;stroke-width:1.5;"/>
   </g>
   <g id="LineCollection_24">
    <path clip-path="url(#pa89877d646)" d="M 164.421854 307.584 
L 99.967743 301.439174 
L 57.6 297.233058 
L 57.6 297.233058 
" style="fill:none;stroke:#0042de;stroke-width:1.5;"/>
    <path clip-path="url(#pa89877d646)" d="M 57.6 51.8128 
L 108.5558 46.7704 
L 164.313069 41.472 
L 164.313069 41.472 
" style="fill:none;stroke:#0042de;stroke-width:1.5;"/>
   </g>
   <g id="LineCollection_25">
    <path clip-path="url(#pa89877d646)" d="M 148.276913 307.584 
L 83.936705 301.450272 
L 57.6 298.85265 
L 57.6 298.85265 
" style="fill:none;stroke:#0039e2;stroke-width:1.5;"/>
    <path clip-path="url(#pa89877d646)" d="M 57.6 50.193418 
L 108.649145 45.205034 
L 148.170404 41.472 
L 148.170404 41.472 
" style="fill:none;stroke:#0039e2;stroke-width:1.5;"/>
   </g>
   <g id="LineCollection_26">
    <path clip-path="url(#pa89877d646)" d="M 132.46512 307.584 
L 67.905667 301.428851 
L 57.6 300.418584 
L 57.6 300.418584 
" style="fill:none;stroke:#0031e6;stroke-width:1.5;"/>
    <path clip-path="url(#pa89877d646)" d="M 57.6 48.627691 
L 110.845948 43.49153 
L 132.360794 41.472 
L 132.360794 41.472 
" style="fill:none;stroke:#0031e6;stroke-width:1.5;"/>
   </g>
   <g id="LineCollection_27">
    <path clip-path="url(#pa89877d646)" d="M 116.966692 307.584 
L 116.571319 307.546988 
L 115.998782 307.493417 
L 115.426244 307.439885 
L 114.853707 307.386392 
L 114.28117 307.332937 
L 113.708633 307.27952 
L 113.136096 307.226141 
L 112.563559 307.172801 
L 111.991022 307.119499 
L 111.418485 307.066235 
L 111.251566 307.050709 
L 110.845948 307.012585 
L 110.273411 306.9588 
L 109.700874 306.905054 
L 109.128337 306.851346 
L 108.5558 306.797677 
L 107.983263 306.744047 
L 107.410725 306.690454 
L 106.838188 306.636901 
L 106.265651 306.583385 
L 105.693114 306.529908 
L 105.559386 306.517419 
L 105.120577 306.476009 
L 104.54804 306.422009 
L 103.975503 306.368048 
L 103.402966 306.314126 
L 102.830429 306.260243 
L 102.257892 306.206398 
L 101.685355 306.152592 
L 101.112818 306.098824 
L 100.540281 306.045095 
L 99.967743 305.991404 
L 99.890151 305.984128 
L 99.395206 305.937232 
L 98.822669 305.883017 
L 98.250132 305.828841 
L 97.677595 305.774705 
L 97.105058 305.720607 
L 96.532521 305.666548 
L 95.959984 305.612527 
L 95.387447 305.558546 
L 94.81491 305.504603 
L 94.243857 305.450838 
L 94.242373 305.450696 
L 93.669836 305.396227 
L 93.097299 305.341798 
L 92.524762 305.287407 
L 91.952224 305.233056 
L 91.379687 305.178743 
L 90.80715 305.12447 
L 90.234613 305.070235 
L 89.662076 305.016039 
L 89.089539 304.961882 
L 88.620567 304.917547 
L 88.517002 304.907654 
L 87.944465 304.85297 
L 87.371928 304.798324 
L 86.799391 304.743719 
L 86.226854 304.689152 
L 85.654317 304.634625 
L 85.08178 304.580137 
L 84.509242 304.525688 
L 83.936705 304.471277 
L 83.364168 304.416906 
L 83.020218 304.384257 
L 82.791631 304.362331 
L 82.219094 304.307431 
L 81.646557 304.252571 
L 81.07402 304.19775 
L 80.501483 304.142968 
L 79.928946 304.088226 
L 79.356409 304.033523 
L 78.783872 303.978859 
L 78.211335 303.924234 
L 77.638798 303.869648 
L 77.442799 303.850966 
L 77.066261 303.814701 
L 76.493723 303.759585 
L 75.921186 303.704509 
L 75.348649 303.649472 
L 74.776112 303.594475 
L 74.203575 303.539518 
L 73.631038 303.4846 
L 73.058501 303.429721 
L 72.485964 303.374881 
L 71.913427 303.320081 
L 71.888297 303.317675 
L 71.34089 303.264736 
L 70.768353 303.209404 
L 70.195816 303.154112 
L 69.623279 303.09886 
L 69.050741 303.043647 
L 68.478204 302.988474 
L 67.905667 302.933341 
L 67.33313 302.878247 
L 66.760593 302.823192 
L 66.356817 302.784385 
L 66.188056 302.767996 
L 65.615519 302.712408 
L 65.042982 302.65686 
L 64.470445 302.601352 
L 63.897908 302.545884 
L 63.325371 302.490456 
L 62.752834 302.435067 
L 62.180297 302.379718 
L 61.60776 302.324409 
L 61.035222 302.269139 
L 60.848258 302.251094 
L 60.462685 302.213495 
L 59.890148 302.15769 
L 59.317611 302.101926 
L 58.745074 302.046201 
L 58.172537 301.990517 
L 57.6 301.934873 
" style="fill:none;stroke:#0029eb;stroke-width:1.5;"/>
    <path clip-path="url(#pa89877d646)" d="M 57.6 47.111608 
L 58.172537 47.055953 
L 58.745074 47.000257 
L 59.317611 46.944522 
L 59.890148 46.888747 
L 60.462685 46.832931 
L 60.750053 46.804906 
L 61.035222 46.777381 
L 61.60776 46.7221 
L 62.180297 46.66678 
L 62.752834 46.61142 
L 63.325371 46.556021 
L 63.897908 46.500581 
L 64.470445 46.445102 
L 65.042982 46.389583 
L 65.615519 46.334024 
L 66.188056 46.278425 
L 66.258176 46.271615 
L 66.760593 46.223324 
L 67.33313 46.168258 
L 67.905667 46.113153 
L 68.478204 46.058009 
L 69.050741 46.002825 
L 69.623279 45.947602 
L 70.195816 45.892339 
L 70.768353 45.837036 
L 71.34089 45.781693 
L 71.789292 45.738325 
L 71.913427 45.726442 
L 72.485964 45.671631 
L 73.058501 45.616781 
L 73.631038 45.561891 
L 74.203575 45.506962 
L 74.776112 45.451993 
L 75.348649 45.396986 
L 75.921186 45.341938 
L 76.493723 45.286851 
L 77.066261 45.231724 
L 77.343363 45.205034 
L 77.638798 45.176872 
L 78.211335 45.122275 
L 78.783872 45.06764 
L 79.356409 45.012965 
L 79.928946 44.958251 
L 80.501483 44.903498 
L 81.07402 44.848705 
L 81.646557 44.793873 
L 82.219094 44.739002 
L 82.791631 44.684091 
L 82.920354 44.671743 
L 83.364168 44.629611 
L 83.936705 44.575229 
L 84.509242 44.520808 
L 85.08178 44.466348 
L 85.654317 44.411849 
L 86.226854 44.357311 
L 86.799391 44.302734 
L 87.371928 44.248117 
L 87.944465 44.193461 
L 88.517002 44.138766 
L 88.520277 44.138453 
L 89.089539 44.084633 
L 89.662076 44.030465 
L 90.234613 43.976258 
L 90.80715 43.922013 
L 91.379687 43.867729 
L 91.952224 43.813406 
L 92.524762 43.759043 
L 93.097299 43.704642 
L 93.669836 43.650201 
L 94.143214 43.605162 
L 94.242373 43.595826 
L 94.81491 43.54191 
L 95.387447 43.487957 
L 95.959984 43.433964 
L 96.532521 43.379933 
L 97.105058 43.325863 
L 97.677595 43.271755 
L 98.250132 43.217607 
L 98.822669 43.163421 
L 99.395206 43.109195 
L 99.789089 43.071872 
L 99.967743 43.055118 
L 100.540281 43.001417 
L 101.112818 42.947677 
L 101.685355 42.893899 
L 102.257892 42.840082 
L 102.830429 42.786226 
L 103.402966 42.732332 
L 103.975503 42.678399 
L 104.54804 42.624428 
L 105.120577 42.570417 
L 105.457907 42.538581 
L 105.693114 42.516614 
L 106.265651 42.463126 
L 106.838188 42.4096 
L 107.410725 42.356035 
L 107.983263 42.302432 
L 108.5558 42.248791 
L 109.128337 42.195111 
L 109.700874 42.141393 
L 110.273411 42.087636 
L 110.845948 42.03384 
L 111.149672 42.005291 
L 111.418485 41.980286 
L 111.991022 41.927011 
L 112.563559 41.873698 
L 113.136096 41.820348 
L 113.708633 41.766958 
L 114.28117 41.713531 
L 114.853707 41.660065 
L 115.426244 41.606561 
L 115.998782 41.553019 
L 116.571319 41.499437 
L 116.864387 41.472 
" style="fill:none;stroke:#0029eb;stroke-width:1.5;"/>
   </g>
   <g id="LineCollection_28">
    <path clip-path="url(#pa89877d646)" d="M 101.763663 307.584 
L 101.685355 307.57667 
L 101.112818 307.523081 
L 100.540281 307.469529 
L 99.967743 307.416016 
L 99.395206 307.362541 
L 98.822669 307.309103 
L 98.250132 307.255702 
L 97.677595 307.20234 
L 97.105058 307.149014 
L 96.532521 307.095726 
L 96.048564 307.050709 
L 95.959984 307.042384 
L 95.387447 306.988581 
L 94.81491 306.934815 
L 94.242373 306.881087 
L 93.669836 306.827398 
L 93.097299 306.773746 
L 92.524762 306.720131 
L 91.952224 306.666555 
L 91.379687 306.613016 
L 90.80715 306.559515 
L 90.35642 306.517419 
L 90.234613 306.505925 
L 89.662076 306.451906 
L 89.089539 306.397926 
L 88.517002 306.343984 
L 87.944465 306.290079 
L 87.371928 306.236213 
L 86.799391 306.182385 
L 86.226854 306.128595 
L 85.654317 306.074842 
L 85.08178 306.021127 
L 84.68723 305.984128 
L 84.509242 305.967265 
L 83.936705 305.913031 
L 83.364168 305.858836 
L 82.791631 305.804679 
L 82.219094 305.75056 
L 81.646557 305.69648 
L 81.07402 305.642437 
L 80.501483 305.588432 
L 79.928946 305.534466 
L 79.356409 305.480537 
L 79.040989 305.450838 
L 78.783872 305.426378 
L 78.211335 305.371929 
L 77.638798 305.317519 
L 77.066261 305.263147 
L 76.493723 305.208813 
L 75.921186 305.154518 
L 75.348649 305.100261 
L 74.776112 305.046042 
L 74.203575 304.991861 
L 73.631038 304.937718 
L 73.417689 304.917547 
L 73.058501 304.883238 
L 72.485964 304.828573 
L 71.913427 304.773948 
L 71.34089 304.71936 
L 70.768353 304.664812 
L 70.195816 304.610302 
L 69.623279 304.55583 
L 69.050741 304.501396 
L 68.478204 304.447001 
L 67.905667 304.392643 
L 67.817323 304.384257 
L 67.33313 304.337817 
L 66.760593 304.282937 
L 66.188056 304.228096 
L 65.615519 304.173293 
L 65.042982 304.118529 
L 64.470445 304.063804 
L 63.897908 304.009117 
L 63.325371 303.954468 
L 62.752834 303.899858 
L 62.239922 303.850966 
L 62.180297 303.845224 
L 61.60776 303.790089 
L 61.035222 303.734993 
L 60.462685 303.679936 
L 59.890148 303.624918 
L 59.317611 303.569938 
L 58.745074 303.514998 
L 58.172537 303.460095 
L 57.6 303.405232 
" style="fill:none;stroke:#0021ee;stroke-width:1.5;"/>
    <path clip-path="url(#pa89877d646)" d="M 57.6 45.641452 
L 58.172537 45.586578 
L 58.745074 45.531665 
L 59.317611 45.476714 
L 59.890148 45.421724 
L 60.462685 45.366695 
L 61.035222 45.311627 
L 61.60776 45.256521 
L 62.142334 45.205034 
L 62.180297 45.201415 
L 62.752834 45.146833 
L 63.325371 45.092212 
L 63.897908 45.037553 
L 64.470445 44.982856 
L 65.042982 44.92812 
L 65.615519 44.873345 
L 66.188056 44.818532 
L 66.760593 44.76368 
L 67.33313 44.70879 
L 67.719357 44.671743 
L 67.905667 44.654056 
L 68.478204 44.599688 
L 69.050741 44.545282 
L 69.623279 44.490838 
L 70.195816 44.436355 
L 70.768353 44.381835 
L 71.34089 44.327275 
L 71.913427 44.272678 
L 72.485964 44.218042 
L 73.058501 44.163367 
L 73.319305 44.138453 
L 73.631038 44.108979 
L 74.203575 44.054825 
L 74.776112 44.000634 
L 75.348649 43.946404 
L 75.921186 43.892137 
L 76.493723 43.837831 
L 77.066261 43.783487 
L 77.638798 43.729105 
L 78.211335 43.674684 
L 78.783872 43.620224 
L 78.94219 43.605162 
L 79.356409 43.566158 
L 79.928946 43.512219 
L 80.501483 43.458242 
L 81.07402 43.404227 
L 81.646557 43.350174 
L 82.219094 43.296082 
L 82.791631 43.241953 
L 83.364168 43.187786 
L 83.936705 43.13358 
L 84.509242 43.079336 
L 84.588019 43.071872 
L 85.08178 43.025566 
L 85.654317 42.971841 
L 86.226854 42.918078 
L 86.799391 42.864277 
L 87.371928 42.810438 
L 87.944465 42.756562 
L 88.517002 42.702647 
L 89.089539 42.648695 
L 89.662076 42.594704 
L 90.234613 42.540675 
L 90.256799 42.538581 
L 90.80715 42.487178 
L 91.379687 42.433666 
L 91.952224 42.380117 
L 92.524762 42.32653 
L 93.097299 42.272905 
L 93.669836 42.219243 
L 94.242373 42.165543 
L 94.81491 42.111805 
L 95.387447 42.058029 
L 95.948544 42.005291 
L 95.959984 42.004226 
L 96.532521 41.950965 
L 97.105058 41.897667 
L 97.677595 41.844332 
L 98.250132 41.790959 
L 98.822669 41.737548 
L 99.395206 41.6841 
L 99.967743 41.630614 
L 100.540281 41.57709 
L 101.112818 41.523528 
L 101.663248 41.472 
" style="fill:none;stroke:#0021ee;stroke-width:1.5;"/>
   </g>
   <g id="LineCollection_29">
    <path clip-path="url(#pa89877d646)" d="M 86.839792 307.584 
L 86.799391 307.580218 
L 86.226854 307.52663 
L 85.654317 307.473078 
L 85.08178 307.419564 
L 84.509242 307.366086 
L 83.936705 307.312646 
L 83.364168 307.259243 
L 82.791631 307.205876 
L 82.219094 307.152546 
L 81.646557 307.099253 
L 81.124714 307.050709 
L 81.07402 307.045945 
L 80.501483 306.992142 
L 79.928946 306.938376 
L 79.356409 306.884647 
L 78.783872 306.830955 
L 78.211335 306.777301 
L 77.638798 306.723684 
L 77.066261 306.670103 
L 76.493723 306.61656 
L 75.921186 306.563054 
L 75.432594 306.517419 
L 75.348649 306.509498 
L 74.776112 306.45548 
L 74.203575 306.401499 
L 73.631038 306.347555 
L 73.058501 306.29365 
L 72.485964 306.239781 
L 71.913427 306.185949 
L 71.34089 306.132155 
L 70.768353 306.078398 
L 70.195816 306.024678 
L 69.763428 305.984128 
L 69.623279 305.97085 
L 69.050741 305.916617 
L 68.478204 305.862421 
L 67.905667 305.808263 
L 67.33313 305.754142 
L 66.760593 305.700059 
L 66.188056 305.646013 
L 65.615519 305.592005 
L 65.042982 305.538033 
L 64.470445 305.484099 
L 64.117211 305.450838 
L 63.897908 305.429976 
L 63.325371 305.375527 
L 62.752834 305.321116 
L 62.180297 305.266743 
L 61.60776 305.212407 
L 61.035222 305.158109 
L 60.462685 305.103849 
L 59.890148 305.049626 
L 59.317611 304.99544 
L 58.745074 304.941292 
L 58.493938 304.917547 
L 58.172537 304.886849 
L 57.6 304.832184 
" style="fill:none;stroke:#0018f3;stroke-width:1.5;"/>
    <path clip-path="url(#pa89877d646)" d="M 57.6 44.2146 
L 58.172537 44.159925 
L 58.397323 44.138453 
L 58.745074 44.105571 
L 59.317611 44.051413 
L 59.890148 43.997217 
L 60.462685 43.942984 
L 61.035222 43.888713 
L 61.60776 43.834405 
L 62.180297 43.780059 
L 62.752834 43.725676 
L 63.325371 43.671254 
L 63.897908 43.616795 
L 64.020189 43.605162 
L 64.470445 43.562762 
L 65.042982 43.508818 
L 65.615519 43.454836 
L 66.188056 43.400818 
L 66.760593 43.346762 
L 67.33313 43.292668 
L 67.905667 43.238538 
L 68.478204 43.184369 
L 69.050741 43.130163 
L 69.623279 43.07592 
L 69.666001 43.071872 
L 70.195816 43.022182 
L 70.768353 42.968452 
L 71.34089 42.914685 
L 71.913427 42.86088 
L 72.485964 42.807039 
L 73.058501 42.75316 
L 73.631038 42.699244 
L 74.203575 42.64529 
L 74.776112 42.591299 
L 75.334775 42.538581 
L 75.348649 42.537285 
L 75.921186 42.483805 
L 76.493723 42.430289 
L 77.066261 42.376735 
L 77.638798 42.323145 
L 78.211335 42.269518 
L 78.783872 42.215853 
L 79.356409 42.162152 
L 79.928946 42.108413 
L 80.501483 42.054637 
L 81.026519 42.005291 
L 81.07402 42.000872 
L 81.646557 41.947605 
L 82.219094 41.894302 
L 82.791631 41.840962 
L 83.364168 41.787586 
L 83.936705 41.734172 
L 84.509242 41.680722 
L 85.08178 41.627235 
L 85.654317 41.57371 
L 86.226854 41.520149 
L 86.741207 41.472 
" style="fill:none;stroke:#0018f3;stroke-width:1.5;"/>
   </g>
   <g id="LineCollection_30">
    <path clip-path="url(#pa89877d646)" d="M 72.180281 307.584 
L 71.913427 307.559023 
L 71.34089 307.505451 
L 70.768353 307.451916 
L 70.195816 307.398417 
L 69.623279 307.344955 
L 69.050741 307.291529 
L 68.478204 307.23814 
L 67.905667 307.184786 
L 67.33313 307.131469 
L 66.760593 307.078188 
L 66.465221 307.050709 
L 66.188056 307.024663 
L 65.615519 306.970877 
L 65.042982 306.917127 
L 64.470445 306.863414 
L 63.897908 306.809738 
L 63.325371 306.756098 
L 62.752834 306.702494 
L 62.180297 306.648927 
L 61.60776 306.595396 
L 61.035222 306.541901 
L 60.773112 306.517419 
L 60.462685 306.488129 
L 59.890148 306.434128 
L 59.317611 306.380163 
L 58.745074 306.326236 
L 58.172537 306.272345 
L 57.6 306.218491 
" style="fill:none;stroke:#0010f7;stroke-width:1.5;"/>
    <path clip-path="url(#pa89877d646)" d="M 57.6 42.828492 
L 58.172537 42.774628 
L 58.745074 42.720728 
L 59.317611 42.66679 
L 59.890148 42.612816 
L 60.462685 42.558805 
L 60.677012 42.538581 
L 61.035222 42.50512 
L 61.60776 42.451615 
L 62.180297 42.398075 
L 62.752834 42.344498 
L 63.325371 42.290885 
L 63.897908 42.237235 
L 64.470445 42.183549 
L 65.042982 42.129826 
L 65.615519 42.076066 
L 66.188056 42.02227 
L 66.368728 42.005291 
L 66.760593 41.968833 
L 67.33313 41.915542 
L 67.905667 41.862215 
L 68.478204 41.808852 
L 69.050741 41.755453 
L 69.623279 41.702017 
L 70.195816 41.648545 
L 70.768353 41.595037 
L 71.34089 41.541492 
L 71.913427 41.48791 
L 72.083399 41.472 
" style="fill:none;stroke:#0010f7;stroke-width:1.5;"/>
   </g>
   <g id="LineCollection_31">
    <path clip-path="url(#pa89877d646)" d="M 57.771475 307.584 
L 57.6 307.567951 
" style="fill:none;stroke:#0008fb;stroke-width:1.5;"/>
    <path clip-path="url(#pa89877d646)" d="M 57.6 41.479133 
L 57.676211 41.472 
" style="fill:none;stroke:#0008fb;stroke-width:1.5;"/>
   </g>
   <g id="LineCollection_32"/>
   <g id="patch_3">
    <path d="M 57.6 307.584 
L 57.6 41.472 
" style="fill:none;stroke:#000000;stroke-linecap:square;stroke-linejoin:miter;stroke-width:0.8;"/>
   </g>
   <g id="patch_4">
    <path d="M 343.296 307.584 
L 343.296 41.472 
" style="fill:none;stroke:#000000;stroke-linecap:square;stroke-linejoin:miter;stroke-width:0.8;"/>
   </g>
   <g id="patch_5">
    <path d="M 57.6 307.584 
L 343.296 307.584 
" style="fill:none;stroke:#000000;stroke-linecap:square;stroke-linejoin:miter;stroke-width:0.8;"/>
   </g>
   <g id="patch_6">
    <path d="M 57.6 41.472 
L 343.296 41.472 
" style="fill:none;stroke:#000000;stroke-linecap:square;stroke-linejoin:miter;stroke-width:0.8;"/>
   </g>
  </g>
  <g id="axes_2">
   <g id="patch_7">
    <path clip-path="url(#p51f774982f)" d="M 361.152 307.584 
L 361.152 298.999742 
L 361.152 50.056258 
L 361.152 41.472 
L 374.4576 41.472 
L 374.4576 50.056258 
L 374.4576 298.999742 
L 374.4576 307.584 
z
" style="fill:#ffffff;stroke:#ffffff;stroke-linejoin:miter;stroke-width:0.01;"/>
   </g>
   <g id="matplotlib.axis_3"/>
   <g id="matplotlib.axis_4">
    <g id="ytick_6">
     <g id="line2d_11">
      <defs>
       <path d="M 0 0 
L 3.5 0 
" id="m9574fb8251" style="stroke:#000000;stroke-width:0.8;"/>
      </defs>
      <g>
       <use style="stroke:#000000;stroke-width:0.8;" x="374.4576" xlink:href="#m9574fb8251" y="307.584"/>
      </g>
     </g>
     <g id="text_11">
      <!-- 0 -->
      <g transform="translate(381.4576 311.383219)scale(0.1 -0.1)">
       <use xlink:href="#DejaVuSans-48"/>
      </g>
     </g>
    </g>
    <g id="ytick_7">
     <g id="line2d_12">
      <g>
       <use style="stroke:#000000;stroke-width:0.8;" x="374.4576" xlink:href="#m9574fb8251" y="273.246968"/>
      </g>
     </g>
     <g id="text_12">
      <!-- 12000 -->
      <defs>
       <path d="M 12.40625 8.296875 
L 28.515625 8.296875 
L 28.515625 63.921875 
L 10.984375 60.40625 
L 10.984375 69.390625 
L 28.421875 72.90625 
L 38.28125 72.90625 
L 38.28125 8.296875 
L 54.390625 8.296875 
L 54.390625 0 
L 12.40625 0 
z
" id="DejaVuSans-49"/>
      </defs>
      <g transform="translate(381.4576 277.046186)scale(0.1 -0.1)">
       <use xlink:href="#DejaVuSans-49"/>
       <use x="63.623047" xlink:href="#DejaVuSans-50"/>
       <use x="127.246094" xlink:href="#DejaVuSans-48"/>
       <use x="190.869141" xlink:href="#DejaVuSans-48"/>
       <use x="254.492188" xlink:href="#DejaVuSans-48"/>
      </g>
     </g>
    </g>
    <g id="ytick_8">
     <g id="line2d_13">
      <g>
       <use style="stroke:#000000;stroke-width:0.8;" x="374.4576" xlink:href="#m9574fb8251" y="238.909935"/>
      </g>
     </g>
     <g id="text_13">
      <!-- 24000 -->
      <g transform="translate(381.4576 242.709154)scale(0.1 -0.1)">
       <use xlink:href="#DejaVuSans-50"/>
       <use x="63.623047" xlink:href="#DejaVuSans-52"/>
       <use x="127.246094" xlink:href="#DejaVuSans-48"/>
       <use x="190.869141" xlink:href="#DejaVuSans-48"/>
       <use x="254.492188" xlink:href="#DejaVuSans-48"/>
      </g>
     </g>
    </g>
    <g id="ytick_9">
     <g id="line2d_14">
      <g>
       <use style="stroke:#000000;stroke-width:0.8;" x="374.4576" xlink:href="#m9574fb8251" y="204.572903"/>
      </g>
     </g>
     <g id="text_14">
      <!-- 36000 -->
      <defs>
       <path d="M 40.578125 39.3125 
Q 47.65625 37.796875 51.625 33 
Q 55.609375 28.21875 55.609375 21.1875 
Q 55.609375 10.40625 48.1875 4.484375 
Q 40.765625 -1.421875 27.09375 -1.421875 
Q 22.515625 -1.421875 17.65625 -0.515625 
Q 12.796875 0.390625 7.625 2.203125 
L 7.625 11.71875 
Q 11.71875 9.328125 16.59375 8.109375 
Q 21.484375 6.890625 26.8125 6.890625 
Q 36.078125 6.890625 40.9375 10.546875 
Q 45.796875 14.203125 45.796875 21.1875 
Q 45.796875 27.640625 41.28125 31.265625 
Q 36.765625 34.90625 28.71875 34.90625 
L 20.21875 34.90625 
L 20.21875 43.015625 
L 29.109375 43.015625 
Q 36.375 43.015625 40.234375 45.921875 
Q 44.09375 48.828125 44.09375 54.296875 
Q 44.09375 59.90625 40.109375 62.90625 
Q 36.140625 65.921875 28.71875 65.921875 
Q 24.65625 65.921875 20.015625 65.03125 
Q 15.375 64.15625 9.8125 62.3125 
L 9.8125 71.09375 
Q 15.4375 72.65625 20.34375 73.4375 
Q 25.25 74.21875 29.59375 74.21875 
Q 40.828125 74.21875 47.359375 69.109375 
Q 53.90625 64.015625 53.90625 55.328125 
Q 53.90625 49.265625 50.4375 45.09375 
Q 46.96875 40.921875 40.578125 39.3125 
z
" id="DejaVuSans-51"/>
       <path d="M 33.015625 40.375 
Q 26.375 40.375 22.484375 35.828125 
Q 18.609375 31.296875 18.609375 23.390625 
Q 18.609375 15.53125 22.484375 10.953125 
Q 26.375 6.390625 33.015625 6.390625 
Q 39.65625 6.390625 43.53125 10.953125 
Q 47.40625 15.53125 47.40625 23.390625 
Q 47.40625 31.296875 43.53125 35.828125 
Q 39.65625 40.375 33.015625 40.375 
z
M 52.59375 71.296875 
L 52.59375 62.3125 
Q 48.875 64.0625 45.09375 64.984375 
Q 41.3125 65.921875 37.59375 65.921875 
Q 27.828125 65.921875 22.671875 59.328125 
Q 17.53125 52.734375 16.796875 39.40625 
Q 19.671875 43.65625 24.015625 45.921875 
Q 28.375 48.1875 33.59375 48.1875 
Q 44.578125 48.1875 50.953125 41.515625 
Q 57.328125 34.859375 57.328125 23.390625 
Q 57.328125 12.15625 50.6875 5.359375 
Q 44.046875 -1.421875 33.015625 -1.421875 
Q 20.359375 -1.421875 13.671875 8.265625 
Q 6.984375 17.96875 6.984375 36.375 
Q 6.984375 53.65625 15.1875 63.9375 
Q 23.390625 74.21875 37.203125 74.21875 
Q 40.921875 74.21875 44.703125 73.484375 
Q 48.484375 72.75 52.59375 71.296875 
z
" id="DejaVuSans-54"/>
      </defs>
      <g transform="translate(381.4576 208.372122)scale(0.1 -0.1)">
       <use xlink:href="#DejaVuSans-51"/>
       <use x="63.623047" xlink:href="#DejaVuSans-54"/>
       <use x="127.246094" xlink:href="#DejaVuSans-48"/>
       <use x="190.869141" xlink:href="#DejaVuSans-48"/>
       <use x="254.492188" xlink:href="#DejaVuSans-48"/>
      </g>
     </g>
    </g>
    <g id="ytick_10">
     <g id="line2d_15">
      <g>
       <use style="stroke:#000000;stroke-width:0.8;" x="374.4576" xlink:href="#m9574fb8251" y="170.235871"/>
      </g>
     </g>
     <g id="text_15">
      <!-- 48000 -->
      <defs>
       <path d="M 31.78125 34.625 
Q 24.75 34.625 20.71875 30.859375 
Q 16.703125 27.09375 16.703125 20.515625 
Q 16.703125 13.921875 20.71875 10.15625 
Q 24.75 6.390625 31.78125 6.390625 
Q 38.8125 6.390625 42.859375 10.171875 
Q 46.921875 13.96875 46.921875 20.515625 
Q 46.921875 27.09375 42.890625 30.859375 
Q 38.875 34.625 31.78125 34.625 
z
M 21.921875 38.8125 
Q 15.578125 40.375 12.03125 44.71875 
Q 8.5 49.078125 8.5 55.328125 
Q 8.5 64.0625 14.71875 69.140625 
Q 20.953125 74.21875 31.78125 74.21875 
Q 42.671875 74.21875 48.875 69.140625 
Q 55.078125 64.0625 55.078125 55.328125 
Q 55.078125 49.078125 51.53125 44.71875 
Q 48 40.375 41.703125 38.8125 
Q 48.828125 37.15625 52.796875 32.3125 
Q 56.78125 27.484375 56.78125 20.515625 
Q 56.78125 9.90625 50.3125 4.234375 
Q 43.84375 -1.421875 31.78125 -1.421875 
Q 19.734375 -1.421875 13.25 4.234375 
Q 6.78125 9.90625 6.78125 20.515625 
Q 6.78125 27.484375 10.78125 32.3125 
Q 14.796875 37.15625 21.921875 38.8125 
z
M 18.3125 54.390625 
Q 18.3125 48.734375 21.84375 45.5625 
Q 25.390625 42.390625 31.78125 42.390625 
Q 38.140625 42.390625 41.71875 45.5625 
Q 45.3125 48.734375 45.3125 54.390625 
Q 45.3125 60.0625 41.71875 63.234375 
Q 38.140625 66.40625 31.78125 66.40625 
Q 25.390625 66.40625 21.84375 63.234375 
Q 18.3125 60.0625 18.3125 54.390625 
z
" id="DejaVuSans-56"/>
      </defs>
      <g transform="translate(381.4576 174.03509)scale(0.1 -0.1)">
       <use xlink:href="#DejaVuSans-52"/>
       <use x="63.623047" xlink:href="#DejaVuSans-56"/>
       <use x="127.246094" xlink:href="#DejaVuSans-48"/>
       <use x="190.869141" xlink:href="#DejaVuSans-48"/>
       <use x="254.492188" xlink:href="#DejaVuSans-48"/>
      </g>
     </g>
    </g>
    <g id="ytick_11">
     <g id="line2d_16">
      <g>
       <use style="stroke:#000000;stroke-width:0.8;" x="374.4576" xlink:href="#m9574fb8251" y="135.898839"/>
      </g>
     </g>
     <g id="text_16">
      <!-- 60000 -->
      <g transform="translate(381.4576 139.698057)scale(0.1 -0.1)">
       <use xlink:href="#DejaVuSans-54"/>
       <use x="63.623047" xlink:href="#DejaVuSans-48"/>
       <use x="127.246094" xlink:href="#DejaVuSans-48"/>
       <use x="190.869141" xlink:href="#DejaVuSans-48"/>
       <use x="254.492188" xlink:href="#DejaVuSans-48"/>
      </g>
     </g>
    </g>
    <g id="ytick_12">
     <g id="line2d_17">
      <g>
       <use style="stroke:#000000;stroke-width:0.8;" x="374.4576" xlink:href="#m9574fb8251" y="101.561806"/>
      </g>
     </g>
     <g id="text_17">
      <!-- 72000 -->
      <defs>
       <path d="M 8.203125 72.90625 
L 55.078125 72.90625 
L 55.078125 68.703125 
L 28.609375 0 
L 18.3125 0 
L 43.21875 64.59375 
L 8.203125 64.59375 
z
" id="DejaVuSans-55"/>
      </defs>
      <g transform="translate(381.4576 105.361025)scale(0.1 -0.1)">
       <use xlink:href="#DejaVuSans-55"/>
       <use x="63.623047" xlink:href="#DejaVuSans-50"/>
       <use x="127.246094" xlink:href="#DejaVuSans-48"/>
       <use x="190.869141" xlink:href="#DejaVuSans-48"/>
       <use x="254.492188" xlink:href="#DejaVuSans-48"/>
      </g>
     </g>
    </g>
    <g id="ytick_13">
     <g id="line2d_18">
      <g>
       <use style="stroke:#000000;stroke-width:0.8;" x="374.4576" xlink:href="#m9574fb8251" y="67.224774"/>
      </g>
     </g>
     <g id="text_18">
      <!-- 84000 -->
      <g transform="translate(381.4576 71.023993)scale(0.1 -0.1)">
       <use xlink:href="#DejaVuSans-56"/>
       <use x="63.623047" xlink:href="#DejaVuSans-52"/>
       <use x="127.246094" xlink:href="#DejaVuSans-48"/>
       <use x="190.869141" xlink:href="#DejaVuSans-48"/>
       <use x="254.492188" xlink:href="#DejaVuSans-48"/>
      </g>
     </g>
    </g>
   </g>
   <g id="LineCollection_33">
    <path clip-path="url(#p51f774982f)" d="M 361.152 307.584 
L 374.4576 307.584 
" style="fill:none;stroke:#00ff80;stroke-width:1.5;"/>
    <path clip-path="url(#p51f774982f)" d="M 361.152 298.999742 
L 374.4576 298.999742 
" style="fill:none;stroke:#00f784;stroke-width:1.5;"/>
    <path clip-path="url(#p51f774982f)" d="M 361.152 290.415484 
L 374.4576 290.415484 
" style="fill:none;stroke:#00ef88;stroke-width:1.5;"/>
    <path clip-path="url(#p51f774982f)" d="M 361.152 281.831226 
L 374.4576 281.831226 
" style="fill:none;stroke:#00e78c;stroke-width:1.5;"/>
    <path clip-path="url(#p51f774982f)" d="M 361.152 273.246968 
L 374.4576 273.246968 
" style="fill:none;stroke:#00de90;stroke-width:1.5;"/>
    <path clip-path="url(#p51f774982f)" d="M 361.152 264.66271 
L 374.4576 264.66271 
" style="fill:none;stroke:#00d694;stroke-width:1.5;"/>
    <path clip-path="url(#p51f774982f)" d="M 361.152 256.078452 
L 374.4576 256.078452 
" style="fill:none;stroke:#00ce98;stroke-width:1.5;"/>
    <path clip-path="url(#p51f774982f)" d="M 361.152 247.494194 
L 374.4576 247.494194 
" style="fill:none;stroke:#00c69c;stroke-width:1.5;"/>
    <path clip-path="url(#p51f774982f)" d="M 361.152 238.909935 
L 374.4576 238.909935 
" style="fill:none;stroke:#00bda0;stroke-width:1.5;"/>
    <path clip-path="url(#p51f774982f)" d="M 361.152 230.325677 
L 374.4576 230.325677 
" style="fill:none;stroke:#00b5a4;stroke-width:1.5;"/>
    <path clip-path="url(#p51f774982f)" d="M 361.152 221.741419 
L 374.4576 221.741419 
" style="fill:none;stroke:#00ada8;stroke-width:1.5;"/>
    <path clip-path="url(#p51f774982f)" d="M 361.152 213.157161 
L 374.4576 213.157161 
" style="fill:none;stroke:#00a5ac;stroke-width:1.5;"/>
    <path clip-path="url(#p51f774982f)" d="M 361.152 204.572903 
L 374.4576 204.572903 
" style="fill:none;stroke:#009cb1;stroke-width:1.5;"/>
    <path clip-path="url(#p51f774982f)" d="M 361.152 195.988645 
L 374.4576 195.988645 
" style="fill:none;stroke:#0094b5;stroke-width:1.5;"/>
    <path clip-path="url(#p51f774982f)" d="M 361.152 187.404387 
L 374.4576 187.404387 
" style="fill:none;stroke:#008cb9;stroke-width:1.5;"/>
    <path clip-path="url(#p51f774982f)" d="M 361.152 178.820129 
L 374.4576 178.820129 
" style="fill:none;stroke:#0084bd;stroke-width:1.5;"/>
    <path clip-path="url(#p51f774982f)" d="M 361.152 170.235871 
L 374.4576 170.235871 
" style="fill:none;stroke:#007bc2;stroke-width:1.5;"/>
    <path clip-path="url(#p51f774982f)" d="M 361.152 161.651613 
L 374.4576 161.651613 
" style="fill:none;stroke:#0073c6;stroke-width:1.5;"/>
    <path clip-path="url(#p51f774982f)" d="M 361.152 153.067355 
L 374.4576 153.067355 
" style="fill:none;stroke:#006bca;stroke-width:1.5;"/>
    <path clip-path="url(#p51f774982f)" d="M 361.152 144.483097 
L 374.4576 144.483097 
" style="fill:none;stroke:#0063ce;stroke-width:1.5;"/>
    <path clip-path="url(#p51f774982f)" d="M 361.152 135.898839 
L 374.4576 135.898839 
" style="fill:none;stroke:#005ad2;stroke-width:1.5;"/>
    <path clip-path="url(#p51f774982f)" d="M 361.152 127.314581 
L 374.4576 127.314581 
" style="fill:none;stroke:#0052d6;stroke-width:1.5;"/>
    <path clip-path="url(#p51f774982f)" d="M 361.152 118.730323 
L 374.4576 118.730323 
" style="fill:none;stroke:#004ada;stroke-width:1.5;"/>
    <path clip-path="url(#p51f774982f)" d="M 361.152 110.146065 
L 374.4576 110.146065 
" style="fill:none;stroke:#0042de;stroke-width:1.5;"/>
    <path clip-path="url(#p51f774982f)" d="M 361.152 101.561806 
L 374.4576 101.561806 
" style="fill:none;stroke:#0039e2;stroke-width:1.5;"/>
    <path clip-path="url(#p51f774982f)" d="M 361.152 92.977548 
L 374.4576 92.977548 
" style="fill:none;stroke:#0031e6;stroke-width:1.5;"/>
    <path clip-path="url(#p51f774982f)" d="M 361.152 84.39329 
L 374.4576 84.39329 
" style="fill:none;stroke:#0029eb;stroke-width:1.5;"/>
    <path clip-path="url(#p51f774982f)" d="M 361.152 75.809032 
L 374.4576 75.809032 
" style="fill:none;stroke:#0021ee;stroke-width:1.5;"/>
    <path clip-path="url(#p51f774982f)" d="M 361.152 67.224774 
L 374.4576 67.224774 
" style="fill:none;stroke:#0018f3;stroke-width:1.5;"/>
    <path clip-path="url(#p51f774982f)" d="M 361.152 58.640516 
L 374.4576 58.640516 
" style="fill:none;stroke:#0010f7;stroke-width:1.5;"/>
    <path clip-path="url(#p51f774982f)" d="M 361.152 50.056258 
L 374.4576 50.056258 
" style="fill:none;stroke:#0008fb;stroke-width:1.5;"/>
    <path clip-path="url(#p51f774982f)" d="M 361.152 41.472 
L 374.4576 41.472 
" style="fill:none;stroke:#0000ff;stroke-width:1.5;"/>
   </g>
   <g id="patch_8">
    <path d="M 361.152 307.584 
L 361.152 298.999742 
L 361.152 50.056258 
L 361.152 41.472 
L 374.4576 41.472 
L 374.4576 50.056258 
L 374.4576 298.999742 
L 374.4576 307.584 
z
" style="fill:none;stroke:#000000;stroke-linejoin:miter;stroke-width:0.8;"/>
   </g>
  </g>
 </g>
 <defs>
  <clipPath id="pa89877d646">
   <rect height="266.112" width="285.696" x="57.6" y="41.472"/>
  </clipPath>
  <clipPath id="p51f774982f">
   <rect height="266.112" width="13.3056" x="361.152" y="41.472"/>
  </clipPath>
 </defs>
</svg>
