<?xml version="1.0" encoding="utf-8" standalone="no"?>
<!DOCTYPE svg PUBLIC "-//W3C//DTD SVG 1.1//EN"
  "http://www.w3.org/Graphics/SVG/1.1/DTD/svg11.dtd">
<!-- Created with matplotlib (https://matplotlib.org/) -->
<svg height="345.6pt" version="1.1" viewBox="0 0 460.8 345.6" width="460.8pt" xmlns="http://www.w3.org/2000/svg" xmlns:xlink="http://www.w3.org/1999/xlink">
 <defs>
  <style type="text/css">
*{stroke-linecap:butt;stroke-linejoin:round;}
  </style>
 </defs>
 <g id="figure_1">
  <g id="patch_1">
   <path d="M 0 345.6 
L 460.8 345.6 
L 460.8 0 
L 0 0 
z
" style="fill:#ffffff;"/>
  </g>
  <g id="axes_1">
   <g id="patch_2">
    <path d="M 57.6 307.584 
L 343.296 307.584 
L 343.296 41.472 
L 57.6 41.472 
z
" style="fill:#ffffff;"/>
   </g>
   <g id="matplotlib.axis_1">
    <g id="xtick_1">
     <g id="line2d_1">
      <defs>
       <path d="M 0 0 
L 0 3.5 
" id="mf796cc8f59" style="stroke:#000000;stroke-width:0.8;"/>
      </defs>
      <g>
       <use style="stroke:#000000;stroke-width:0.8;" x="86.1696" xlink:href="#mf796cc8f59" y="307.584"/>
      </g>
     </g>
     <g id="text_1">
      <!-- −4 -->
      <defs>
       <path d="M 10.59375 35.5 
L 73.1875 35.5 
L 73.1875 27.203125 
L 10.59375 27.203125 
z
" id="DejaVuSans-8722"/>
       <path d="M 37.796875 64.3125 
L 12.890625 25.390625 
L 37.796875 25.390625 
z
M 35.203125 72.90625 
L 47.609375 72.90625 
L 47.609375 25.390625 
L 58.015625 25.390625 
L 58.015625 17.1875 
L 47.609375 17.1875 
L 47.609375 0 
L 37.796875 0 
L 37.796875 17.1875 
L 4.890625 17.1875 
L 4.890625 26.703125 
z
" id="DejaVuSans-52"/>
      </defs>
      <g transform="translate(78.798506 322.182437)scale(0.1 -0.1)">
       <use xlink:href="#DejaVuSans-8722"/>
       <use x="83.789062" xlink:href="#DejaVuSans-52"/>
      </g>
     </g>
    </g>
    <g id="xtick_2">
     <g id="line2d_2">
      <g>
       <use style="stroke:#000000;stroke-width:0.8;" x="143.3088" xlink:href="#mf796cc8f59" y="307.584"/>
      </g>
     </g>
     <g id="text_2">
      <!-- −2 -->
      <defs>
       <path d="M 19.1875 8.296875 
L 53.609375 8.296875 
L 53.609375 0 
L 7.328125 0 
L 7.328125 8.296875 
Q 12.9375 14.109375 22.625 23.890625 
Q 32.328125 33.6875 34.8125 36.53125 
Q 39.546875 41.84375 41.421875 45.53125 
Q 43.3125 49.21875 43.3125 52.78125 
Q 43.3125 58.59375 39.234375 62.25 
Q 35.15625 65.921875 28.609375 65.921875 
Q 23.96875 65.921875 18.8125 64.3125 
Q 13.671875 62.703125 7.8125 59.421875 
L 7.8125 69.390625 
Q 13.765625 71.78125 18.9375 73 
Q 24.125 74.21875 28.421875 74.21875 
Q 39.75 74.21875 46.484375 68.546875 
Q 53.21875 62.890625 53.21875 53.421875 
Q 53.21875 48.921875 51.53125 44.890625 
Q 49.859375 40.875 45.40625 35.40625 
Q 44.1875 33.984375 37.640625 27.21875 
Q 31.109375 20.453125 19.1875 8.296875 
z
" id="DejaVuSans-50"/>
      </defs>
      <g transform="translate(135.937706 322.182437)scale(0.1 -0.1)">
       <use xlink:href="#DejaVuSans-8722"/>
       <use x="83.789062" xlink:href="#DejaVuSans-50"/>
      </g>
     </g>
    </g>
    <g id="xtick_3">
     <g id="line2d_3">
      <g>
       <use style="stroke:#000000;stroke-width:0.8;" x="200.448" xlink:href="#mf796cc8f59" y="307.584"/>
      </g>
     </g>
     <g id="text_3">
      <!-- 0 -->
      <defs>
       <path d="M 31.78125 66.40625 
Q 24.171875 66.40625 20.328125 58.90625 
Q 16.5 51.421875 16.5 36.375 
Q 16.5 21.390625 20.328125 13.890625 
Q 24.171875 6.390625 31.78125 6.390625 
Q 39.453125 6.390625 43.28125 13.890625 
Q 47.125 21.390625 47.125 36.375 
Q 47.125 51.421875 43.28125 58.90625 
Q 39.453125 66.40625 31.78125 66.40625 
z
M 31.78125 74.21875 
Q 44.046875 74.21875 50.515625 64.515625 
Q 56.984375 54.828125 56.984375 36.375 
Q 56.984375 17.96875 50.515625 8.265625 
Q 44.046875 -1.421875 31.78125 -1.421875 
Q 19.53125 -1.421875 13.0625 8.265625 
Q 6.59375 17.96875 6.59375 36.375 
Q 6.59375 54.828125 13.0625 64.515625 
Q 19.53125 74.21875 31.78125 74.21875 
z
" id="DejaVuSans-48"/>
      </defs>
      <g transform="translate(197.26675 322.182437)scale(0.1 -0.1)">
       <use xlink:href="#DejaVuSans-48"/>
      </g>
     </g>
    </g>
    <g id="xtick_4">
     <g id="line2d_4">
      <g>
       <use style="stroke:#000000;stroke-width:0.8;" x="257.5872" xlink:href="#mf796cc8f59" y="307.584"/>
      </g>
     </g>
     <g id="text_4">
      <!-- 2 -->
      <g transform="translate(254.40595 322.182437)scale(0.1 -0.1)">
       <use xlink:href="#DejaVuSans-50"/>
      </g>
     </g>
    </g>
    <g id="xtick_5">
     <g id="line2d_5">
      <g>
       <use style="stroke:#000000;stroke-width:0.8;" x="314.7264" xlink:href="#mf796cc8f59" y="307.584"/>
      </g>
     </g>
     <g id="text_5">
      <!-- 4 -->
      <g transform="translate(311.54515 322.182437)scale(0.1 -0.1)">
       <use xlink:href="#DejaVuSans-52"/>
      </g>
     </g>
    </g>
   </g>
   <g id="matplotlib.axis_2">
    <g id="ytick_1">
     <g id="line2d_6">
      <defs>
       <path d="M 0 0 
L -3.5 0 
" id="m4e8c15a8b7" style="stroke:#000000;stroke-width:0.8;"/>
      </defs>
      <g>
       <use style="stroke:#000000;stroke-width:0.8;" x="57.6" xlink:href="#m4e8c15a8b7" y="280.9728"/>
      </g>
     </g>
     <g id="text_6">
      <!-- −4 -->
      <g transform="translate(35.857813 284.772019)scale(0.1 -0.1)">
       <use xlink:href="#DejaVuSans-8722"/>
       <use x="83.789062" xlink:href="#DejaVuSans-52"/>
      </g>
     </g>
    </g>
    <g id="ytick_2">
     <g id="line2d_7">
      <g>
       <use style="stroke:#000000;stroke-width:0.8;" x="57.6" xlink:href="#m4e8c15a8b7" y="227.7504"/>
      </g>
     </g>
     <g id="text_7">
      <!-- −2 -->
      <g transform="translate(35.857813 231.549619)scale(0.1 -0.1)">
       <use xlink:href="#DejaVuSans-8722"/>
       <use x="83.789062" xlink:href="#DejaVuSans-50"/>
      </g>
     </g>
    </g>
    <g id="ytick_3">
     <g id="line2d_8">
      <g>
       <use style="stroke:#000000;stroke-width:0.8;" x="57.6" xlink:href="#m4e8c15a8b7" y="174.528"/>
      </g>
     </g>
     <g id="text_8">
      <!-- 0 -->
      <g transform="translate(44.2375 178.327219)scale(0.1 -0.1)">
       <use xlink:href="#DejaVuSans-48"/>
      </g>
     </g>
    </g>
    <g id="ytick_4">
     <g id="line2d_9">
      <g>
       <use style="stroke:#000000;stroke-width:0.8;" x="57.6" xlink:href="#m4e8c15a8b7" y="121.3056"/>
      </g>
     </g>
     <g id="text_9">
      <!-- 2 -->
      <g transform="translate(44.2375 125.104819)scale(0.1 -0.1)">
       <use xlink:href="#DejaVuSans-50"/>
      </g>
     </g>
    </g>
    <g id="ytick_5">
     <g id="line2d_10">
      <g>
       <use style="stroke:#000000;stroke-width:0.8;" x="57.6" xlink:href="#m4e8c15a8b7" y="68.0832"/>
      </g>
     </g>
     <g id="text_10">
      <!-- 4 -->
      <g transform="translate(44.2375 71.882419)scale(0.1 -0.1)">
       <use xlink:href="#DejaVuSans-52"/>
      </g>
     </g>
    </g>
   </g>
   <g id="LineCollection_1"/>
   <g id="LineCollection_2">
    <path clip-path="url(#p847e0d0725)" d="M 304.738306 307.584 
L 283.752144 299.320833 
L 266.023697 292.118573 
L 243.077046 282.519343 
L 217.910381 271.660469 
L 197.299046 262.525646 
L 178.405323 253.966932 
L 159.511599 245.233877 
L 141.190413 236.596444 
L 116.983346 224.92396 
L 91.952224 212.524546 
L 71.913427 202.337371 
L 57.6 194.905203 
L 57.6 194.905203 
" style="fill:none;stroke:#00f485;stroke-width:1.5;"/>
    <path clip-path="url(#p847e0d0725)" d="M 96.157694 41.472 
L 117.143856 49.735167 
L 134.872303 56.937427 
L 157.818954 66.536657 
L 182.985619 77.395531 
L 203.596954 86.530354 
L 222.490677 95.089068 
L 241.384401 103.822123 
L 259.705587 112.459556 
L 283.912654 124.13204 
L 308.943776 136.531454 
L 328.982573 146.718629 
L 343.296 154.150797 
L 343.296 154.150797 
" style="fill:none;stroke:#00f485;stroke-width:1.5;"/>
   </g>
   <g id="LineCollection_3">
    <path clip-path="url(#p847e0d0725)" d="M 257.811229 307.584 
L 224.208289 292.791776 
L 200.734269 282.257124 
L 176.687711 271.299553 
L 142.26521 255.321523 
L 107.409207 238.789515 
L 73.058501 222.135853 
L 57.6 214.518494 
L 57.6 214.518494 
" style="fill:none;stroke:#00e88b;stroke-width:1.5;"/>
    <path clip-path="url(#p847e0d0725)" d="M 143.084771 41.472 
L 176.687711 56.264224 
L 200.161731 66.798876 
L 224.208289 77.756447 
L 258.63079 93.734477 
L 293.486793 110.266485 
L 327.837499 126.920147 
L 343.296 134.537506 
L 343.296 134.537506 
" style="fill:none;stroke:#00e88b;stroke-width:1.5;"/>
   </g>
   <g id="LineCollection_4">
    <path clip-path="url(#p847e0d0725)" d="M 229.999724 307.584 
L 189.856064 289.410206 
L 150.631812 271.32024 
L 109.128337 251.821228 
L 81.822729 238.789515 
L 57.6 227.088372 
L 57.6 227.088372 
" style="fill:none;stroke:#00dd90;stroke-width:1.5;"/>
    <path clip-path="url(#p847e0d0725)" d="M 170.896276 41.472 
L 211.039936 59.645794 
L 250.264188 77.73576 
L 291.767663 97.234772 
L 319.073271 110.266485 
L 343.296 121.967628 
L 343.296 121.967628 
" style="fill:none;stroke:#00dd90;stroke-width:1.5;"/>
   </g>
   <g id="LineCollection_5">
    <path clip-path="url(#p847e0d0725)" d="M 209.255449 307.584 
L 162.374285 286.077391 
L 126.876986 269.543528 
L 91.952224 253.064613 
L 57.6 236.6466 
L 57.6 236.6466 
" style="fill:none;stroke:#00d196;stroke-width:1.5;"/>
    <path clip-path="url(#p847e0d0725)" d="M 191.640551 41.472 
L 238.521715 62.978609 
L 274.019014 79.512472 
L 308.943776 95.991387 
L 343.296 112.4094 
L 343.296 112.4094 
" style="fill:none;stroke:#00d196;stroke-width:1.5;"/>
   </g>
   <g id="LineCollection_6">
    <path clip-path="url(#p847e0d0725)" d="M 192.396733 307.584 
L 141.61396 284.119214 
L 90.234613 259.998423 
L 57.6 244.475807 
L 57.6 244.475807 
" style="fill:none;stroke:#00c59c;stroke-width:1.5;"/>
    <path clip-path="url(#p847e0d0725)" d="M 208.499267 41.472 
L 259.28204 64.936786 
L 310.661387 89.057577 
L 343.296 104.580193 
L 343.296 104.580193 
" style="fill:none;stroke:#00c59c;stroke-width:1.5;"/>
   </g>
   <g id="LineCollection_7">
    <path clip-path="url(#p847e0d0725)" d="M 178.046802 307.584 
L 122.869226 281.967359 
L 69.623279 256.882178 
L 57.6 251.167057 
L 57.6 251.167057 
" style="fill:none;stroke:#00baa2;stroke-width:1.5;"/>
    <path clip-path="url(#p847e0d0725)" d="M 222.849198 41.472 
L 278.026774 67.088641 
L 331.272721 92.173822 
L 343.296 97.888943 
L 343.296 97.888943 
" style="fill:none;stroke:#00baa2;stroke-width:1.5;"/>
   </g>
   <g id="LineCollection_8">
    <path clip-path="url(#p847e0d0725)" d="M 165.471203 307.584 
L 106.838188 280.275759 
L 58.465348 257.454685 
L 57.6 257.043672 
L 57.6 257.043672 
" style="fill:none;stroke:#00aea8;stroke-width:1.5;"/>
    <path clip-path="url(#p847e0d0725)" d="M 235.424797 41.472 
L 294.057812 68.780241 
L 342.430652 91.601315 
L 343.296 92.012328 
L 343.296 92.012328 
" style="fill:none;stroke:#00aea8;stroke-width:1.5;"/>
   </g>
   <g id="LineCollection_9">
    <path clip-path="url(#p847e0d0725)" d="M 154.226384 307.584 
L 91.952224 278.511383 
L 57.6 262.305404 
L 57.6 262.305404 
" style="fill:none;stroke:#00a2ae;stroke-width:1.5;"/>
    <path clip-path="url(#p847e0d0725)" d="M 246.669616 41.472 
L 308.943776 70.544617 
L 343.296 86.750596 
L 343.296 86.750596 
" style="fill:none;stroke:#00a2ae;stroke-width:1.5;"/>
   </g>
   <g id="LineCollection_10">
    <path clip-path="url(#p847e0d0725)" d="M 144.022104 307.584 
L 78.783872 277.075486 
L 57.6 267.083769 
L 57.6 267.083769 
" style="fill:none;stroke:#0097b3;stroke-width:1.5;"/>
    <path clip-path="url(#p847e0d0725)" d="M 256.873896 41.472 
L 322.112128 71.980514 
L 343.296 81.972231 
L 343.296 81.972231 
" style="fill:none;stroke:#0097b3;stroke-width:1.5;"/>
   </g>
   <g id="LineCollection_11">
    <path clip-path="url(#p847e0d0725)" d="M 134.657494 307.584 
L 66.760593 275.790616 
L 57.6 271.470744 
L 57.6 271.470744 
" style="fill:none;stroke:#008bba;stroke-width:1.5;"/>
    <path clip-path="url(#p847e0d0725)" d="M 266.238506 41.472 
L 334.135407 73.265384 
L 343.296 77.585256 
L 343.296 77.585256 
" style="fill:none;stroke:#008bba;stroke-width:1.5;"/>
   </g>
   <g id="LineCollection_12">
    <path clip-path="url(#p847e0d0725)" d="M 125.985802 307.584 
L 57.6 275.534791 
L 57.6 275.534791 
" style="fill:none;stroke:#007fc0;stroke-width:1.5;"/>
    <path clip-path="url(#p847e0d0725)" d="M 274.910198 41.472 
L 343.296 73.521209 
L 343.296 73.521209 
" style="fill:none;stroke:#007fc0;stroke-width:1.5;"/>
   </g>
   <g id="LineCollection_13">
    <path clip-path="url(#p847e0d0725)" d="M 117.897672 307.584 
L 57.6 279.325825 
L 57.6 279.325825 
" style="fill:none;stroke:#0074c5;stroke-width:1.5;"/>
    <path clip-path="url(#p847e0d0725)" d="M 282.998328 41.472 
L 343.296 69.730175 
L 343.296 69.730175 
" style="fill:none;stroke:#0074c5;stroke-width:1.5;"/>
   </g>
   <g id="LineCollection_14">
    <path clip-path="url(#p847e0d0725)" d="M 110.308459 307.584 
L 57.6 282.882514 
L 57.6 282.882514 
" style="fill:none;stroke:#0068cb;stroke-width:1.5;"/>
    <path clip-path="url(#p847e0d0725)" d="M 290.587541 41.472 
L 343.296 66.173486 
L 343.296 66.173486 
" style="fill:none;stroke:#0068cb;stroke-width:1.5;"/>
   </g>
   <g id="LineCollection_15">
    <path clip-path="url(#p847e0d0725)" d="M 103.152075 307.584 
L 102.830429 307.433424 
L 102.257892 307.166047 
L 102.01046 307.050709 
L 101.685355 306.89849 
L 101.112818 306.631076 
L 100.869031 306.517419 
L 100.540281 306.363467 
L 99.967743 306.096018 
L 99.727787 305.984128 
L 99.395206 305.828358 
L 98.822669 305.560873 
L 98.586728 305.450838 
L 98.250132 305.293161 
L 97.677595 305.025641 
L 97.445855 304.917547 
L 97.105058 304.757876 
L 96.532521 304.490322 
L 96.305166 304.384257 
L 95.959984 304.222505 
L 95.387447 303.954916 
L 95.164662 303.850966 
L 94.81491 303.687046 
L 94.242373 303.419423 
L 94.024344 303.317675 
L 93.669836 303.1515 
L 93.097299 302.883843 
L 92.88421 302.784385 
L 92.524762 302.615866 
L 91.952224 302.348176 
L 91.74426 302.251094 
L 91.379687 302.080145 
L 90.80715 301.812422 
L 90.604496 301.717804 
L 90.234613 301.544336 
L 89.662076 301.276582 
L 89.464916 301.184513 
L 89.089539 301.00844 
L 88.517002 300.740654 
L 88.32552 300.651222 
L 87.944465 300.472457 
L 87.371928 300.204639 
L 87.18631 300.117932 
L 86.799391 299.936386 
L 86.226854 299.668537 
L 86.047283 299.584641 
L 85.654317 299.400228 
L 85.08178 299.132348 
L 84.908441 299.051351 
L 84.509242 298.863983 
L 83.936705 298.596072 
L 83.769783 298.51806 
L 83.364168 298.32765 
L 82.791631 298.059709 
L 82.631309 297.98477 
L 82.219094 297.791229 
L 81.646557 297.523259 
L 81.493019 297.451479 
L 81.07402 297.254721 
L 80.501483 296.986721 
L 80.354913 296.918188 
L 79.928946 296.718126 
L 79.356409 296.450097 
L 79.216992 296.384898 
L 78.783872 296.181443 
L 78.211335 295.913386 
L 78.079254 295.851607 
L 77.638798 295.644672 
L 77.066261 295.376587 
L 76.9417 295.318317 
L 76.493723 295.107815 
L 75.921186 294.839702 
L 75.80433 294.785026 
L 75.348649 294.570869 
L 74.776112 294.302729 
L 74.667143 294.251735 
L 74.203575 294.033836 
L 73.631038 293.765669 
L 73.53014 293.718445 
L 73.058501 293.496716 
L 72.485964 293.228522 
L 72.39332 293.185154 
L 71.913427 292.959508 
L 71.34089 292.691288 
L 71.256684 292.651864 
L 70.768353 292.422213 
L 70.195816 292.153966 
L 70.120232 292.118573 
L 69.623279 291.88483 
L 69.050741 291.616558 
L 68.983962 291.585283 
L 68.478204 291.347359 
L 67.905667 291.079062 
L 67.847876 291.051992 
L 67.33313 290.809801 
L 66.760593 290.541479 
L 66.711973 290.518701 
L 66.188056 290.272155 
L 65.615519 290.003809 
L 65.576253 289.985411 
L 65.042982 289.734422 
L 64.470445 289.466052 
L 64.440717 289.45212 
L 63.897908 289.196601 
L 63.325371 288.928208 
L 63.305363 288.91883 
L 62.752834 288.658692 
L 62.180297 288.390276 
L 62.170192 288.385539 
L 61.60776 288.120696 
L 61.035222 287.852257 
L 61.035204 287.852248 
L 60.462685 287.582613 
L 59.900444 287.318958 
L 59.890148 287.314108 
L 59.317611 287.044441 
L 58.765868 286.785667 
L 58.745074 286.775871 
L 58.172537 286.506182 
L 57.631475 286.252377 
L 57.6 286.237546 
" style="fill:none;stroke:#005dd0;stroke-width:1.5;"/>
    <path clip-path="url(#p847e0d0725)" d="M 297.743925 41.472 
L 298.065571 41.622576 
L 298.638108 41.889953 
L 298.88554 42.005291 
L 299.210645 42.15751 
L 299.783182 42.424924 
L 300.026969 42.538581 
L 300.355719 42.692533 
L 300.928257 42.959982 
L 301.168213 43.071872 
L 301.500794 43.227642 
L 302.073331 43.495127 
L 302.309272 43.605162 
L 302.645868 43.762839 
L 303.218405 44.030359 
L 303.450145 44.138453 
L 303.790942 44.298124 
L 304.363479 44.565678 
L 304.590834 44.671743 
L 304.936016 44.833495 
L 305.508553 45.101084 
L 305.731338 45.205034 
L 306.08109 45.368954 
L 306.653627 45.636577 
L 306.871656 45.738325 
L 307.226164 45.9045 
L 307.798701 46.172157 
L 308.01179 46.271615 
L 308.371238 46.440134 
L 308.943776 46.707824 
L 309.15174 46.804906 
L 309.516313 46.975855 
L 310.08885 47.243578 
L 310.291504 47.338196 
L 310.661387 47.511664 
L 311.233924 47.779418 
L 311.431084 47.871487 
L 311.806461 48.04756 
L 312.378998 48.315346 
L 312.57048 48.404778 
L 312.951535 48.583543 
L 313.524072 48.851361 
L 313.70969 48.938068 
L 314.096609 49.119614 
L 314.669146 49.387463 
L 314.848717 49.471359 
L 315.241683 49.655772 
L 315.81422 49.923652 
L 315.987559 50.004649 
L 316.386758 50.192017 
L 316.959295 50.459928 
L 317.126217 50.53794 
L 317.531832 50.72835 
L 318.104369 50.996291 
L 318.264691 51.07123 
L 318.676906 51.264771 
L 319.249443 51.532741 
L 319.402981 51.604521 
L 319.82198 51.801279 
L 320.394517 52.069279 
L 320.541087 52.137812 
L 320.967054 52.337874 
L 321.539591 52.605903 
L 321.679008 52.671102 
L 322.112128 52.874557 
L 322.684665 53.142614 
L 322.816746 53.204393 
L 323.257202 53.411328 
L 323.829739 53.679413 
L 323.9543 53.737683 
L 324.402277 53.948185 
L 324.974814 54.216298 
L 325.09167 54.270974 
L 325.547351 54.485131 
L 326.119888 54.753271 
L 326.228857 54.804265 
L 326.692425 55.022164 
L 327.264962 55.290331 
L 327.36586 55.337555 
L 327.837499 55.559284 
L 328.410036 55.827478 
L 328.50268 55.870846 
L 328.982573 56.096492 
L 329.55511 56.364712 
L 329.639316 56.404136 
L 330.127647 56.633787 
L 330.700184 56.902034 
L 330.775768 56.937427 
L 331.272721 57.17117 
L 331.845259 57.439442 
L 331.912038 57.470717 
L 332.417796 57.708641 
L 332.990333 57.976938 
L 333.048124 58.004008 
L 333.56287 58.246199 
L 334.135407 58.514521 
L 334.184027 58.537299 
L 334.707944 58.783845 
L 335.280481 59.052191 
L 335.319747 59.070589 
L 335.853018 59.321578 
L 336.425555 59.589948 
L 336.455283 59.60388 
L 336.998092 59.859399 
L 337.570629 60.127792 
L 337.590637 60.13717 
L 338.143166 60.397308 
L 338.715703 60.665724 
L 338.725808 60.670461 
L 339.28824 60.935304 
L 339.860778 61.203743 
L 339.860796 61.203752 
L 340.433315 61.473387 
L 340.995556 61.737042 
L 341.005852 61.741892 
L 341.578389 62.011559 
L 342.130132 62.270333 
L 342.150926 62.280129 
L 342.723463 62.549818 
L 343.264525 62.803623 
L 343.296 62.818454 
" style="fill:none;stroke:#005dd0;stroke-width:1.5;"/>
   </g>
   <g id="LineCollection_16">
    <path clip-path="url(#p847e0d0725)" d="M 96.374111 307.584 
L 95.959984 307.390023 
L 95.387447 307.122676 
L 95.233154 307.050709 
L 94.81491 306.854774 
L 94.242373 306.587394 
L 94.092372 306.517419 
L 93.669836 306.319442 
L 93.097299 306.05203 
L 92.951766 305.984128 
L 92.524762 305.784027 
L 91.952224 305.516583 
L 91.811336 305.450838 
L 91.379687 305.248529 
L 90.80715 304.981053 
L 90.67108 304.917547 
L 90.234613 304.712948 
L 89.662076 304.445441 
L 89.531 304.384257 
L 89.089539 304.177285 
L 88.517002 303.909746 
L 88.391096 303.850966 
L 87.944465 303.641538 
L 87.371928 303.373969 
L 87.251366 303.317675 
L 86.799391 303.105709 
L 86.226854 302.83811 
L 86.111812 302.784385 
L 85.654317 302.569796 
L 85.08178 302.302167 
L 84.972433 302.251094 
L 84.509242 302.033801 
L 83.936705 301.766143 
L 83.833228 301.717804 
L 83.364168 301.497723 
L 82.791631 301.230035 
L 82.694199 301.184513 
L 82.219094 300.961562 
L 81.646557 300.693845 
L 81.555345 300.651222 
L 81.07402 300.425318 
L 80.501483 300.157573 
L 80.416665 300.117932 
L 79.928946 299.888991 
L 79.356409 299.621218 
L 79.27816 299.584641 
L 78.783872 299.352581 
L 78.211335 299.08478 
L 78.13983 299.051351 
L 77.638798 298.816088 
L 77.066261 298.54826 
L 77.001674 298.51806 
L 76.493723 298.279512 
L 75.921186 298.011657 
L 75.863693 297.98477 
L 75.348649 297.742853 
L 74.776112 297.474971 
L 74.725886 297.451479 
L 74.203575 297.206111 
L 73.631038 296.938203 
L 73.588254 296.918188 
L 73.058501 296.669286 
L 72.485964 296.401352 
L 72.450796 296.384898 
L 71.913427 296.132378 
L 71.34089 295.864418 
L 71.313512 295.851607 
L 70.768353 295.595387 
L 70.195816 295.327402 
L 70.176403 295.318317 
L 69.623279 295.058313 
L 69.050741 294.790303 
L 69.039467 294.785026 
L 68.478204 294.521156 
L 67.905667 294.253122 
L 67.902706 294.251735 
L 67.33313 293.983916 
L 66.766143 293.718445 
L 66.760593 293.715835 
L 66.188056 293.446593 
L 65.629768 293.185154 
L 65.615519 293.178452 
L 65.042982 292.909186 
L 64.493568 292.651864 
L 64.470445 292.640986 
L 63.897908 292.371697 
L 63.357542 292.118573 
L 63.325371 292.103437 
L 62.752834 291.834125 
L 62.22169 291.585283 
L 62.180297 291.565804 
L 61.60776 291.296469 
L 61.086013 291.051992 
L 61.035222 291.028088 
L 60.462685 290.758731 
L 59.950511 290.518701 
L 59.890148 290.490289 
L 59.317611 290.220909 
L 58.815182 289.985411 
L 58.745074 289.952405 
L 58.172537 289.683005 
L 57.680028 289.45212 
L 57.6 289.414439 
" style="fill:none;stroke:#0051d6;stroke-width:1.5;"/>
    <path clip-path="url(#p847e0d0725)" d="M 304.521889 41.472 
L 304.936016 41.665977 
L 305.508553 41.933324 
L 305.662846 42.005291 
L 306.08109 42.201226 
L 306.653627 42.468606 
L 306.803628 42.538581 
L 307.226164 42.736558 
L 307.798701 43.00397 
L 307.944234 43.071872 
L 308.371238 43.271973 
L 308.943776 43.539417 
L 309.084664 43.605162 
L 309.516313 43.807471 
L 310.08885 44.074947 
L 310.22492 44.138453 
L 310.661387 44.343052 
L 311.233924 44.610559 
L 311.365 44.671743 
L 311.806461 44.878715 
L 312.378998 45.146254 
L 312.504904 45.205034 
L 312.951535 45.414462 
L 313.524072 45.682031 
L 313.644634 45.738325 
L 314.096609 45.950291 
L 314.669146 46.21789 
L 314.784188 46.271615 
L 315.241683 46.486204 
L 315.81422 46.753833 
L 315.923567 46.804906 
L 316.386758 47.022199 
L 316.959295 47.289857 
L 317.062772 47.338196 
L 317.531832 47.558277 
L 318.104369 47.825965 
L 318.201801 47.871487 
L 318.676906 48.094438 
L 319.249443 48.362155 
L 319.340655 48.404778 
L 319.82198 48.630682 
L 320.394517 48.898427 
L 320.479335 48.938068 
L 320.967054 49.167009 
L 321.539591 49.434782 
L 321.61784 49.471359 
L 322.112128 49.703419 
L 322.684665 49.97122 
L 322.75617 50.004649 
L 323.257202 50.239912 
L 323.829739 50.50774 
L 323.894326 50.53794 
L 324.402277 50.776488 
L 324.974814 51.044343 
L 325.032307 51.07123 
L 325.547351 51.313147 
L 326.119888 51.581029 
L 326.170114 51.604521 
L 326.692425 51.849889 
L 327.264962 52.117797 
L 327.307746 52.137812 
L 327.837499 52.386714 
L 328.410036 52.654648 
L 328.445204 52.671102 
L 328.982573 52.923622 
L 329.55511 53.191582 
L 329.582488 53.204393 
L 330.127647 53.460613 
L 330.700184 53.728598 
L 330.719597 53.737683 
L 331.272721 53.997687 
L 331.845259 54.265697 
L 331.856533 54.270974 
L 332.417796 54.534844 
L 332.990333 54.802878 
L 332.993294 54.804265 
L 333.56287 55.072084 
L 334.129857 55.337555 
L 334.135407 55.340165 
L 334.707944 55.609407 
L 335.266232 55.870846 
L 335.280481 55.877548 
L 335.853018 56.146814 
L 336.402432 56.404136 
L 336.425555 56.415014 
L 336.998092 56.684303 
L 337.538458 56.937427 
L 337.570629 56.952563 
L 338.143166 57.221875 
L 338.67431 57.470717 
L 338.715703 57.490196 
L 339.28824 57.759531 
L 339.809987 58.004008 
L 339.860778 58.027912 
L 340.433315 58.297269 
L 340.945489 58.537299 
L 341.005852 58.565711 
L 341.578389 58.835091 
L 342.080818 59.070589 
L 342.150926 59.103595 
L 342.723463 59.372995 
L 343.215972 59.60388 
L 343.296 59.641561 
" style="fill:none;stroke:#0051d6;stroke-width:1.5;"/>
   </g>
   <g id="LineCollection_17">
    <path clip-path="url(#p847e0d0725)" d="M 89.931134 307.584 
L 89.662076 307.457917 
L 89.089539 307.190148 
L 88.790743 307.050709 
L 88.517002 306.922413 
L 87.944465 306.654614 
L 87.650518 306.517419 
L 87.371928 306.38683 
L 86.799391 306.119002 
L 86.510461 305.984128 
L 86.226854 305.851168 
L 85.654317 305.583311 
L 85.370571 305.450838 
L 85.08178 305.315427 
L 84.509242 305.047541 
L 84.230848 304.917547 
L 83.936705 304.779608 
L 83.364168 304.511692 
L 83.091292 304.384257 
L 82.791631 304.243709 
L 82.219094 303.975765 
L 81.951903 303.850966 
L 81.646557 303.70773 
L 81.07402 303.439759 
L 80.812681 303.317675 
L 80.501483 303.171673 
L 79.928946 302.903675 
L 79.673625 302.784385 
L 79.356409 302.635537 
L 78.783872 302.367511 
L 78.534737 302.251094 
L 78.211335 302.099322 
L 77.638798 301.831269 
L 77.396015 301.717804 
L 77.066261 301.563027 
L 76.493723 301.294948 
L 76.257459 301.184513 
L 75.921186 301.026654 
L 75.348649 300.758548 
L 75.119071 300.651222 
L 74.776112 300.490201 
L 74.203575 300.22207 
L 73.980849 300.117932 
L 73.631038 299.953669 
L 73.058501 299.685512 
L 72.842793 299.584641 
L 72.485964 299.417058 
L 71.913427 299.148876 
L 71.704904 299.051351 
L 71.34089 298.880368 
L 70.768353 298.612161 
L 70.567181 298.51806 
L 70.195816 298.343599 
L 69.623279 298.075368 
L 69.429624 297.98477 
L 69.050741 297.806751 
L 68.478204 297.538495 
L 68.292234 297.451479 
L 67.905667 297.269823 
L 67.33313 297.001544 
L 67.15501 296.918188 
L 66.760593 296.732816 
L 66.188056 296.464513 
L 66.017952 296.384898 
L 65.615519 296.19573 
L 65.042982 295.927404 
L 64.88106 295.851607 
L 64.470445 295.658565 
L 63.897908 295.390217 
L 63.744334 295.318317 
L 63.325371 295.121321 
L 62.752834 294.85295 
L 62.607774 294.785026 
L 62.180297 294.583998 
L 61.60776 294.315604 
L 61.47138 294.251735 
L 61.035222 294.046595 
L 60.462685 293.77818 
L 60.335151 293.718445 
L 59.890148 293.509113 
L 59.317611 293.240676 
L 59.199089 293.185154 
L 58.745074 292.971552 
L 58.172537 292.703094 
L 58.063192 292.651864 
L 57.6 292.433912 
" style="fill:none;stroke:#0045dc;stroke-width:1.5;"/>
    <path clip-path="url(#p847e0d0725)" d="M 310.964866 41.472 
L 311.233924 41.598083 
L 311.806461 41.865852 
L 312.105257 42.005291 
L 312.378998 42.133587 
L 312.951535 42.401386 
L 313.245482 42.538581 
L 313.524072 42.66917 
L 314.096609 42.936998 
L 314.385539 43.071872 
L 314.669146 43.204832 
L 315.241683 43.472689 
L 315.525429 43.605162 
L 315.81422 43.740573 
L 316.386758 44.008459 
L 316.665152 44.138453 
L 316.959295 44.276392 
L 317.531832 44.544308 
L 317.804708 44.671743 
L 318.104369 44.812291 
L 318.676906 45.080235 
L 318.944097 45.205034 
L 319.249443 45.34827 
L 319.82198 45.616241 
L 320.083319 45.738325 
L 320.394517 45.884327 
L 320.967054 46.152325 
L 321.222375 46.271615 
L 321.539591 46.420463 
L 322.112128 46.688489 
L 322.361263 46.804906 
L 322.684665 46.956678 
L 323.257202 47.224731 
L 323.499985 47.338196 
L 323.829739 47.492973 
L 324.402277 47.761052 
L 324.638541 47.871487 
L 324.974814 48.029346 
L 325.547351 48.297452 
L 325.776929 48.404778 
L 326.119888 48.565799 
L 326.692425 48.83393 
L 326.915151 48.938068 
L 327.264962 49.102331 
L 327.837499 49.370488 
L 328.053207 49.471359 
L 328.410036 49.638942 
L 328.982573 49.907124 
L 329.191096 50.004649 
L 329.55511 50.175632 
L 330.127647 50.443839 
L 330.328819 50.53794 
L 330.700184 50.712401 
L 331.272721 50.980632 
L 331.466376 51.07123 
L 331.845259 51.249249 
L 332.417796 51.517505 
L 332.603766 51.604521 
L 332.990333 51.786177 
L 333.56287 52.054456 
L 333.74099 52.137812 
L 334.135407 52.323184 
L 334.707944 52.591487 
L 334.878048 52.671102 
L 335.280481 52.86027 
L 335.853018 53.128596 
L 336.01494 53.204393 
L 336.425555 53.397435 
L 336.998092 53.665783 
L 337.151666 53.737683 
L 337.570629 53.934679 
L 338.143166 54.20305 
L 338.288226 54.270974 
L 338.715703 54.472002 
L 339.28824 54.740396 
L 339.42462 54.804265 
L 339.860778 55.009405 
L 340.433315 55.27782 
L 340.560849 55.337555 
L 341.005852 55.546887 
L 341.578389 55.815324 
L 341.696911 55.870846 
L 342.150926 56.084448 
L 342.723463 56.352906 
L 342.832808 56.404136 
L 343.296 56.622088 
" style="fill:none;stroke:#0045dc;stroke-width:1.5;"/>
   </g>
   <g id="LineCollection_18">
    <path clip-path="url(#p847e0d0725)" d="M 83.786545 307.584 
L 83.364168 307.385991 
L 82.791631 307.118409 
L 82.646627 307.050709 
L 82.219094 306.850255 
L 81.646557 306.582646 
L 81.506869 306.517419 
L 81.07402 306.314443 
L 80.501483 306.046807 
L 80.36727 305.984128 
L 79.928946 305.778556 
L 79.356409 305.510893 
L 79.227831 305.450838 
L 78.783872 305.242593 
L 78.211335 304.974905 
L 78.088551 304.917547 
L 77.638798 304.706555 
L 77.066261 304.438841 
L 76.94943 304.384257 
L 76.493723 304.170442 
L 75.921186 303.902702 
L 75.810469 303.850966 
L 75.348649 303.634253 
L 74.776112 303.366487 
L 74.671666 303.317675 
L 74.203575 303.097989 
L 73.631038 302.830198 
L 73.533023 302.784385 
L 73.058501 302.561649 
L 72.485964 302.293833 
L 72.394538 302.251094 
L 71.913427 302.025233 
L 71.34089 301.757393 
L 71.256213 301.717804 
L 70.768353 301.488742 
L 70.195816 301.220878 
L 70.118046 301.184513 
L 69.623279 300.952176 
L 69.050741 300.684288 
L 68.980038 300.651222 
L 68.478204 300.415534 
L 67.905667 300.147623 
L 67.842189 300.117932 
L 67.33313 299.878816 
L 66.760593 299.610882 
L 66.704499 299.584641 
L 66.188056 299.342023 
L 65.615519 299.074066 
L 65.566968 299.051351 
L 65.042982 298.805155 
L 64.470445 298.537175 
L 64.429595 298.51806 
L 63.897908 298.268211 
L 63.325371 298.000209 
L 63.292381 297.98477 
L 62.752834 297.731191 
L 62.180297 297.463167 
L 62.155325 297.451479 
L 61.60776 297.194096 
L 61.035222 296.92605 
L 61.018428 296.918188 
L 60.462685 296.656925 
L 59.890148 296.388858 
L 59.881689 296.384898 
L 59.317611 296.119679 
L 58.745108 295.851607 
L 58.745074 295.851591 
L 58.172537 295.582357 
L 57.608723 295.318317 
L 57.6 295.314214 
" style="fill:none;stroke:#003ae2;stroke-width:1.5;"/>
    <path clip-path="url(#p847e0d0725)" d="M 317.109455 41.472 
L 317.531832 41.670009 
L 318.104369 41.937591 
L 318.249373 42.005291 
L 318.676906 42.205745 
L 319.249443 42.473354 
L 319.389131 42.538581 
L 319.82198 42.741557 
L 320.394517 43.009193 
L 320.52873 43.071872 
L 320.967054 43.277444 
L 321.539591 43.545107 
L 321.668169 43.605162 
L 322.112128 43.813407 
L 322.684665 44.081095 
L 322.807449 44.138453 
L 323.257202 44.349445 
L 323.829739 44.617159 
L 323.94657 44.671743 
L 324.402277 44.885558 
L 324.974814 45.153298 
L 325.085531 45.205034 
L 325.547351 45.421747 
L 326.119888 45.689513 
L 326.224334 45.738325 
L 326.692425 45.958011 
L 327.264962 46.225802 
L 327.362977 46.271615 
L 327.837499 46.494351 
L 328.410036 46.762167 
L 328.501462 46.804906 
L 328.982573 47.030767 
L 329.55511 47.298607 
L 329.639787 47.338196 
L 330.127647 47.567258 
L 330.700184 47.835122 
L 330.777954 47.871487 
L 331.272721 48.103824 
L 331.845259 48.371712 
L 331.915962 48.404778 
L 332.417796 48.640466 
L 332.990333 48.908377 
L 333.053811 48.938068 
L 333.56287 49.177184 
L 334.135407 49.445118 
L 334.191501 49.471359 
L 334.707944 49.713977 
L 335.280481 49.981934 
L 335.329032 50.004649 
L 335.853018 50.250845 
L 336.425555 50.518825 
L 336.466405 50.53794 
L 336.998092 50.787789 
L 337.570629 51.055791 
L 337.603619 51.07123 
L 338.143166 51.324809 
L 338.715703 51.592833 
L 338.740675 51.604521 
L 339.28824 51.861904 
L 339.860778 52.12995 
L 339.877572 52.137812 
L 340.433315 52.399075 
L 341.005852 52.667142 
L 341.014311 52.671102 
L 341.578389 52.936321 
L 342.150892 53.204393 
L 342.150926 53.204409 
L 342.723463 53.473643 
L 343.287277 53.737683 
L 343.296 53.741786 
" style="fill:none;stroke:#003ae2;stroke-width:1.5;"/>
   </g>
   <g id="LineCollection_19">
    <path clip-path="url(#p847e0d0725)" d="M 77.910106 307.584 
L 77.638798 307.45677 
L 77.066261 307.188796 
L 76.770608 307.050709 
L 76.493723 306.920847 
L 75.921186 306.652848 
L 75.631263 306.517419 
L 75.348649 306.384851 
L 74.776112 306.116828 
L 74.49207 305.984128 
L 74.203575 305.848784 
L 73.631038 305.580736 
L 73.35303 305.450838 
L 73.058501 305.312644 
L 72.485964 305.044572 
L 72.214142 304.917547 
L 71.913427 304.776431 
L 71.34089 304.508336 
L 71.075408 304.384257 
L 70.768353 304.240146 
L 70.195816 303.972027 
L 69.936825 303.850966 
L 69.623279 303.703789 
L 69.050741 303.435647 
L 68.798396 303.317675 
L 68.478204 303.167359 
L 67.905667 302.899194 
L 67.660118 302.784385 
L 67.33313 302.630857 
L 66.760593 302.362669 
L 66.521993 302.251094 
L 66.188056 302.094283 
L 65.615519 301.826072 
L 65.384021 301.717804 
L 65.042982 301.557636 
L 64.470445 301.289403 
L 64.2462 301.184513 
L 63.897908 301.020917 
L 63.325371 300.752662 
L 63.108532 300.651222 
L 62.752834 300.484125 
L 62.180297 300.215849 
L 61.971016 300.117932 
L 61.60776 299.947261 
L 61.035222 299.678964 
L 60.833652 299.584641 
L 60.462685 299.410324 
L 59.890148 299.142006 
L 59.69644 299.051351 
L 59.317611 298.873315 
L 58.745074 298.604977 
L 58.559381 298.51806 
L 58.172537 298.336234 
L 57.6 298.067875 
" style="fill:none;stroke:#002ee8;stroke-width:1.5;"/>
    <path clip-path="url(#p847e0d0725)" d="M 322.985894 41.472 
L 323.257202 41.59923 
L 323.829739 41.867204 
L 324.125392 42.005291 
L 324.402277 42.135153 
L 324.974814 42.403152 
L 325.264737 42.538581 
L 325.547351 42.671149 
L 326.119888 42.939172 
L 326.40393 43.071872 
L 326.692425 43.207216 
L 327.264962 43.475264 
L 327.54297 43.605162 
L 327.837499 43.743356 
L 328.410036 44.011428 
L 328.681858 44.138453 
L 328.982573 44.279569 
L 329.55511 44.547664 
L 329.820592 44.671743 
L 330.127647 44.815854 
L 330.700184 45.083973 
L 330.959175 45.205034 
L 331.272721 45.352211 
L 331.845259 45.620353 
L 332.097604 45.738325 
L 332.417796 45.888641 
L 332.990333 46.156806 
L 333.235882 46.271615 
L 333.56287 46.425143 
L 334.135407 46.693331 
L 334.374007 46.804906 
L 334.707944 46.961717 
L 335.280481 47.229928 
L 335.511979 47.338196 
L 335.853018 47.498364 
L 336.425555 47.766597 
L 336.6498 47.871487 
L 336.998092 48.035083 
L 337.570629 48.303338 
L 337.787468 48.404778 
L 338.143166 48.571875 
L 338.715703 48.840151 
L 338.924984 48.938068 
L 339.28824 49.108739 
L 339.860778 49.377036 
L 340.062348 49.471359 
L 340.433315 49.645676 
L 341.005852 49.913994 
L 341.19956 50.004649 
L 341.578389 50.182685 
L 342.150926 50.451023 
L 342.336619 50.53794 
L 342.723463 50.719766 
L 343.296 50.988125 
" style="fill:none;stroke:#002ee8;stroke-width:1.5;"/>
   </g>
   <g id="LineCollection_20">
    <path clip-path="url(#p847e0d0725)" d="M 72.275733 307.584 
L 71.913427 307.414046 
L 71.34089 307.146162 
L 71.13659 307.050709 
L 70.768353 306.877951 
L 70.195816 306.610045 
L 69.997592 306.517419 
L 69.623279 306.341787 
L 69.050741 306.073857 
L 68.858742 305.984128 
L 68.478204 305.805553 
L 67.905667 305.537601 
L 67.720037 305.450838 
L 67.33313 305.26925 
L 66.760593 305.001276 
L 66.581479 304.917547 
L 66.188056 304.732877 
L 65.615519 304.464881 
L 65.443068 304.384257 
L 65.042982 304.196435 
L 64.470445 303.928417 
L 64.304802 303.850966 
L 63.897908 303.659924 
L 63.325371 303.391884 
L 63.166683 303.317675 
L 62.752834 303.123343 
L 62.180297 302.855282 
L 62.02871 302.784385 
L 61.60776 302.586692 
L 61.035222 302.318611 
L 60.890883 302.251094 
L 60.462685 302.049972 
L 59.890148 301.78187 
L 59.753202 301.717804 
L 59.317611 301.513182 
L 58.745074 301.24506 
L 58.615667 301.184513 
L 58.172537 300.976323 
L 57.6 300.708181 
" style="fill:none;stroke:#0022ee;stroke-width:1.5;"/>
    <path clip-path="url(#p847e0d0725)" d="M 328.620267 41.472 
L 328.982573 41.641954 
L 329.55511 41.909838 
L 329.75941 42.005291 
L 330.127647 42.178049 
L 330.700184 42.445955 
L 330.898408 42.538581 
L 331.272721 42.714213 
L 331.845259 42.982143 
L 332.037258 43.071872 
L 332.417796 43.250447 
L 332.990333 43.518399 
L 333.175963 43.605162 
L 333.56287 43.78675 
L 334.135407 44.054724 
L 334.314521 44.138453 
L 334.707944 44.323123 
L 335.280481 44.591119 
L 335.452932 44.671743 
L 335.853018 44.859565 
L 336.425555 45.127583 
L 336.591198 45.205034 
L 336.998092 45.396076 
L 337.570629 45.664116 
L 337.729317 45.738325 
L 338.143166 45.932657 
L 338.715703 46.200718 
L 338.86729 46.271615 
L 339.28824 46.469308 
L 339.860778 46.737389 
L 340.005117 46.804906 
L 340.433315 47.006028 
L 341.005852 47.27413 
L 341.142798 47.338196 
L 341.578389 47.542818 
L 342.150926 47.81094 
L 342.280333 47.871487 
L 342.723463 48.079677 
L 343.296 48.347819 
" style="fill:none;stroke:#0022ee;stroke-width:1.5;"/>
   </g>
   <g id="LineCollection_21">
    <path clip-path="url(#p847e0d0725)" d="M 66.861294 307.584 
L 66.760593 307.536751 
L 66.188056 307.2683 
L 65.722474 307.050709 
L 65.615519 307.00052 
L 65.042982 306.732047 
L 64.583795 306.517419 
L 64.470445 306.464221 
L 63.897908 306.195728 
L 63.445257 305.984128 
L 63.325371 305.927856 
L 62.752834 305.659342 
L 62.306861 305.450838 
L 62.180297 305.391424 
L 61.60776 305.122889 
L 61.168605 304.917547 
L 61.035222 304.854925 
L 60.462685 304.58637 
L 60.03049 304.384257 
L 59.890148 304.318359 
L 59.317611 304.049784 
L 58.892516 303.850966 
L 58.745074 303.781726 
L 58.172537 303.513131 
L 57.754683 303.317675 
L 57.6 303.245026 
" style="fill:none;stroke:#0017f3;stroke-width:1.5;"/>
    <path clip-path="url(#p847e0d0725)" d="M 334.034706 41.472 
L 334.135407 41.519249 
L 334.707944 41.7877 
L 335.173526 42.005291 
L 335.280481 42.05548 
L 335.853018 42.323953 
L 336.312205 42.538581 
L 336.425555 42.591779 
L 336.998092 42.860272 
L 337.450743 43.071872 
L 337.570629 43.128144 
L 338.143166 43.396658 
L 338.589139 43.605162 
L 338.715703 43.664576 
L 339.28824 43.933111 
L 339.727395 44.138453 
L 339.860778 44.201075 
L 340.433315 44.46963 
L 340.86551 44.671743 
L 341.005852 44.737641 
L 341.578389 45.006216 
L 342.003484 45.205034 
L 342.150926 45.274274 
L 342.723463 45.542869 
L 343.141317 45.738325 
L 343.296 45.810974 
" style="fill:none;stroke:#0017f3;stroke-width:1.5;"/>
   </g>
   <g id="LineCollection_22">
    <path clip-path="url(#p847e0d0725)" d="M 61.647772 307.584 
L 61.60776 307.565222 
L 61.035222 307.296598 
L 60.509228 307.050709 
L 60.462685 307.028864 
L 59.890148 306.76022 
L 59.370821 306.517419 
L 59.317611 306.492442 
L 58.745074 306.223778 
L 58.232549 305.984128 
L 58.172537 305.955955 
L 57.6 305.687272 
" style="fill:none;stroke:#000bfa;stroke-width:1.5;"/>
    <path clip-path="url(#p847e0d0725)" d="M 339.248228 41.472 
L 339.28824 41.490778 
L 339.860778 41.759402 
L 340.386772 42.005291 
L 340.433315 42.027136 
L 341.005852 42.29578 
L 341.525179 42.538581 
L 341.578389 42.563558 
L 342.150926 42.832222 
L 342.663451 43.071872 
L 342.723463 43.100045 
L 343.296 43.368728 
" style="fill:none;stroke:#000bfa;stroke-width:1.5;"/>
   </g>
   <g id="LineCollection_23"/>
   <g id="patch_3">
    <path d="M 57.6 307.584 
L 57.6 41.472 
" style="fill:none;stroke:#000000;stroke-linecap:square;stroke-linejoin:miter;stroke-width:0.8;"/>
   </g>
   <g id="patch_4">
    <path d="M 343.296 307.584 
L 343.296 41.472 
" style="fill:none;stroke:#000000;stroke-linecap:square;stroke-linejoin:miter;stroke-width:0.8;"/>
   </g>
   <g id="patch_5">
    <path d="M 57.6 307.584 
L 343.296 307.584 
" style="fill:none;stroke:#000000;stroke-linecap:square;stroke-linejoin:miter;stroke-width:0.8;"/>
   </g>
   <g id="patch_6">
    <path d="M 57.6 41.472 
L 343.296 41.472 
" style="fill:none;stroke:#000000;stroke-linecap:square;stroke-linejoin:miter;stroke-width:0.8;"/>
   </g>
  </g>
  <g id="axes_2">
   <g id="patch_7">
    <path clip-path="url(#p660b382ff6)" d="M 361.152 307.584 
L 361.152 295.488 
L 361.152 53.568 
L 361.152 41.472 
L 374.4576 41.472 
L 374.4576 53.568 
L 374.4576 295.488 
L 374.4576 307.584 
z
" style="fill:#ffffff;stroke:#ffffff;stroke-linejoin:miter;stroke-width:0.01;"/>
   </g>
   <g id="matplotlib.axis_3"/>
   <g id="matplotlib.axis_4">
    <g id="ytick_6">
     <g id="line2d_11">
      <defs>
       <path d="M 0 0 
L 3.5 0 
" id="m716f02ae4f" style="stroke:#000000;stroke-width:0.8;"/>
      </defs>
      <g>
       <use style="stroke:#000000;stroke-width:0.8;" x="374.4576" xlink:href="#m716f02ae4f" y="307.584"/>
      </g>
     </g>
     <g id="text_11">
      <!-- 0 -->
      <g transform="translate(381.4576 311.383219)scale(0.1 -0.1)">
       <use xlink:href="#DejaVuSans-48"/>
      </g>
     </g>
    </g>
    <g id="ytick_7">
     <g id="line2d_12">
      <g>
       <use style="stroke:#000000;stroke-width:0.8;" x="374.4576" xlink:href="#m716f02ae4f" y="271.296"/>
      </g>
     </g>
     <g id="text_12">
      <!-- 450 -->
      <defs>
       <path d="M 10.796875 72.90625 
L 49.515625 72.90625 
L 49.515625 64.59375 
L 19.828125 64.59375 
L 19.828125 46.734375 
Q 21.96875 47.46875 24.109375 47.828125 
Q 26.265625 48.1875 28.421875 48.1875 
Q 40.625 48.1875 47.75 41.5 
Q 54.890625 34.8125 54.890625 23.390625 
Q 54.890625 11.625 47.5625 5.09375 
Q 40.234375 -1.421875 26.90625 -1.421875 
Q 22.3125 -1.421875 17.546875 -0.640625 
Q 12.796875 0.140625 7.71875 1.703125 
L 7.71875 11.625 
Q 12.109375 9.234375 16.796875 8.0625 
Q 21.484375 6.890625 26.703125 6.890625 
Q 35.15625 6.890625 40.078125 11.328125 
Q 45.015625 15.765625 45.015625 23.390625 
Q 45.015625 31 40.078125 35.4375 
Q 35.15625 39.890625 26.703125 39.890625 
Q 22.75 39.890625 18.8125 39.015625 
Q 14.890625 38.140625 10.796875 36.28125 
z
" id="DejaVuSans-53"/>
      </defs>
      <g transform="translate(381.4576 275.095219)scale(0.1 -0.1)">
       <use xlink:href="#DejaVuSans-52"/>
       <use x="63.623047" xlink:href="#DejaVuSans-53"/>
       <use x="127.246094" xlink:href="#DejaVuSans-48"/>
      </g>
     </g>
    </g>
    <g id="ytick_8">
     <g id="line2d_13">
      <g>
       <use style="stroke:#000000;stroke-width:0.8;" x="374.4576" xlink:href="#m716f02ae4f" y="235.008"/>
      </g>
     </g>
     <g id="text_13">
      <!-- 900 -->
      <defs>
       <path d="M 10.984375 1.515625 
L 10.984375 10.5 
Q 14.703125 8.734375 18.5 7.8125 
Q 22.3125 6.890625 25.984375 6.890625 
Q 35.75 6.890625 40.890625 13.453125 
Q 46.046875 20.015625 46.78125 33.40625 
Q 43.953125 29.203125 39.59375 26.953125 
Q 35.25 24.703125 29.984375 24.703125 
Q 19.046875 24.703125 12.671875 31.3125 
Q 6.296875 37.9375 6.296875 49.421875 
Q 6.296875 60.640625 12.9375 67.421875 
Q 19.578125 74.21875 30.609375 74.21875 
Q 43.265625 74.21875 49.921875 64.515625 
Q 56.59375 54.828125 56.59375 36.375 
Q 56.59375 19.140625 48.40625 8.859375 
Q 40.234375 -1.421875 26.421875 -1.421875 
Q 22.703125 -1.421875 18.890625 -0.6875 
Q 15.09375 0.046875 10.984375 1.515625 
z
M 30.609375 32.421875 
Q 37.25 32.421875 41.125 36.953125 
Q 45.015625 41.5 45.015625 49.421875 
Q 45.015625 57.28125 41.125 61.84375 
Q 37.25 66.40625 30.609375 66.40625 
Q 23.96875 66.40625 20.09375 61.84375 
Q 16.21875 57.28125 16.21875 49.421875 
Q 16.21875 41.5 20.09375 36.953125 
Q 23.96875 32.421875 30.609375 32.421875 
z
" id="DejaVuSans-57"/>
      </defs>
      <g transform="translate(381.4576 238.807219)scale(0.1 -0.1)">
       <use xlink:href="#DejaVuSans-57"/>
       <use x="63.623047" xlink:href="#DejaVuSans-48"/>
       <use x="127.246094" xlink:href="#DejaVuSans-48"/>
      </g>
     </g>
    </g>
    <g id="ytick_9">
     <g id="line2d_14">
      <g>
       <use style="stroke:#000000;stroke-width:0.8;" x="374.4576" xlink:href="#m716f02ae4f" y="198.72"/>
      </g>
     </g>
     <g id="text_14">
      <!-- 1350 -->
      <defs>
       <path d="M 12.40625 8.296875 
L 28.515625 8.296875 
L 28.515625 63.921875 
L 10.984375 60.40625 
L 10.984375 69.390625 
L 28.421875 72.90625 
L 38.28125 72.90625 
L 38.28125 8.296875 
L 54.390625 8.296875 
L 54.390625 0 
L 12.40625 0 
z
" id="DejaVuSans-49"/>
       <path d="M 40.578125 39.3125 
Q 47.65625 37.796875 51.625 33 
Q 55.609375 28.21875 55.609375 21.1875 
Q 55.609375 10.40625 48.1875 4.484375 
Q 40.765625 -1.421875 27.09375 -1.421875 
Q 22.515625 -1.421875 17.65625 -0.515625 
Q 12.796875 0.390625 7.625 2.203125 
L 7.625 11.71875 
Q 11.71875 9.328125 16.59375 8.109375 
Q 21.484375 6.890625 26.8125 6.890625 
Q 36.078125 6.890625 40.9375 10.546875 
Q 45.796875 14.203125 45.796875 21.1875 
Q 45.796875 27.640625 41.28125 31.265625 
Q 36.765625 34.90625 28.71875 34.90625 
L 20.21875 34.90625 
L 20.21875 43.015625 
L 29.109375 43.015625 
Q 36.375 43.015625 40.234375 45.921875 
Q 44.09375 48.828125 44.09375 54.296875 
Q 44.09375 59.90625 40.109375 62.90625 
Q 36.140625 65.921875 28.71875 65.921875 
Q 24.65625 65.921875 20.015625 65.03125 
Q 15.375 64.15625 9.8125 62.3125 
L 9.8125 71.09375 
Q 15.4375 72.65625 20.34375 73.4375 
Q 25.25 74.21875 29.59375 74.21875 
Q 40.828125 74.21875 47.359375 69.109375 
Q 53.90625 64.015625 53.90625 55.328125 
Q 53.90625 49.265625 50.4375 45.09375 
Q 46.96875 40.921875 40.578125 39.3125 
z
" id="DejaVuSans-51"/>
      </defs>
      <g transform="translate(381.4576 202.519219)scale(0.1 -0.1)">
       <use xlink:href="#DejaVuSans-49"/>
       <use x="63.623047" xlink:href="#DejaVuSans-51"/>
       <use x="127.246094" xlink:href="#DejaVuSans-53"/>
       <use x="190.869141" xlink:href="#DejaVuSans-48"/>
      </g>
     </g>
    </g>
    <g id="ytick_10">
     <g id="line2d_15">
      <g>
       <use style="stroke:#000000;stroke-width:0.8;" x="374.4576" xlink:href="#m716f02ae4f" y="162.432"/>
      </g>
     </g>
     <g id="text_15">
      <!-- 1800 -->
      <defs>
       <path d="M 31.78125 34.625 
Q 24.75 34.625 20.71875 30.859375 
Q 16.703125 27.09375 16.703125 20.515625 
Q 16.703125 13.921875 20.71875 10.15625 
Q 24.75 6.390625 31.78125 6.390625 
Q 38.8125 6.390625 42.859375 10.171875 
Q 46.921875 13.96875 46.921875 20.515625 
Q 46.921875 27.09375 42.890625 30.859375 
Q 38.875 34.625 31.78125 34.625 
z
M 21.921875 38.8125 
Q 15.578125 40.375 12.03125 44.71875 
Q 8.5 49.078125 8.5 55.328125 
Q 8.5 64.0625 14.71875 69.140625 
Q 20.953125 74.21875 31.78125 74.21875 
Q 42.671875 74.21875 48.875 69.140625 
Q 55.078125 64.0625 55.078125 55.328125 
Q 55.078125 49.078125 51.53125 44.71875 
Q 48 40.375 41.703125 38.8125 
Q 48.828125 37.15625 52.796875 32.3125 
Q 56.78125 27.484375 56.78125 20.515625 
Q 56.78125 9.90625 50.3125 4.234375 
Q 43.84375 -1.421875 31.78125 -1.421875 
Q 19.734375 -1.421875 13.25 4.234375 
Q 6.78125 9.90625 6.78125 20.515625 
Q 6.78125 27.484375 10.78125 32.3125 
Q 14.796875 37.15625 21.921875 38.8125 
z
M 18.3125 54.390625 
Q 18.3125 48.734375 21.84375 45.5625 
Q 25.390625 42.390625 31.78125 42.390625 
Q 38.140625 42.390625 41.71875 45.5625 
Q 45.3125 48.734375 45.3125 54.390625 
Q 45.3125 60.0625 41.71875 63.234375 
Q 38.140625 66.40625 31.78125 66.40625 
Q 25.390625 66.40625 21.84375 63.234375 
Q 18.3125 60.0625 18.3125 54.390625 
z
" id="DejaVuSans-56"/>
      </defs>
      <g transform="translate(381.4576 166.231219)scale(0.1 -0.1)">
       <use xlink:href="#DejaVuSans-49"/>
       <use x="63.623047" xlink:href="#DejaVuSans-56"/>
       <use x="127.246094" xlink:href="#DejaVuSans-48"/>
       <use x="190.869141" xlink:href="#DejaVuSans-48"/>
      </g>
     </g>
    </g>
    <g id="ytick_11">
     <g id="line2d_16">
      <g>
       <use style="stroke:#000000;stroke-width:0.8;" x="374.4576" xlink:href="#m716f02ae4f" y="126.144"/>
      </g>
     </g>
     <g id="text_16">
      <!-- 2250 -->
      <g transform="translate(381.4576 129.943219)scale(0.1 -0.1)">
       <use xlink:href="#DejaVuSans-50"/>
       <use x="63.623047" xlink:href="#DejaVuSans-50"/>
       <use x="127.246094" xlink:href="#DejaVuSans-53"/>
       <use x="190.869141" xlink:href="#DejaVuSans-48"/>
      </g>
     </g>
    </g>
    <g id="ytick_12">
     <g id="line2d_17">
      <g>
       <use style="stroke:#000000;stroke-width:0.8;" x="374.4576" xlink:href="#m716f02ae4f" y="89.856"/>
      </g>
     </g>
     <g id="text_17">
      <!-- 2700 -->
      <defs>
       <path d="M 8.203125 72.90625 
L 55.078125 72.90625 
L 55.078125 68.703125 
L 28.609375 0 
L 18.3125 0 
L 43.21875 64.59375 
L 8.203125 64.59375 
z
" id="DejaVuSans-55"/>
      </defs>
      <g transform="translate(381.4576 93.655219)scale(0.1 -0.1)">
       <use xlink:href="#DejaVuSans-50"/>
       <use x="63.623047" xlink:href="#DejaVuSans-55"/>
       <use x="127.246094" xlink:href="#DejaVuSans-48"/>
       <use x="190.869141" xlink:href="#DejaVuSans-48"/>
      </g>
     </g>
    </g>
    <g id="ytick_13">
     <g id="line2d_18">
      <g>
       <use style="stroke:#000000;stroke-width:0.8;" x="374.4576" xlink:href="#m716f02ae4f" y="53.568"/>
      </g>
     </g>
     <g id="text_18">
      <!-- 3150 -->
      <g transform="translate(381.4576 57.367219)scale(0.1 -0.1)">
       <use xlink:href="#DejaVuSans-51"/>
       <use x="63.623047" xlink:href="#DejaVuSans-49"/>
       <use x="127.246094" xlink:href="#DejaVuSans-53"/>
       <use x="190.869141" xlink:href="#DejaVuSans-48"/>
      </g>
     </g>
    </g>
   </g>
   <g id="LineCollection_24">
    <path clip-path="url(#p660b382ff6)" d="M 361.152 307.584 
L 374.4576 307.584 
" style="fill:none;stroke:#00ff80;stroke-width:1.5;"/>
    <path clip-path="url(#p660b382ff6)" d="M 361.152 295.488 
L 374.4576 295.488 
" style="fill:none;stroke:#00f485;stroke-width:1.5;"/>
    <path clip-path="url(#p660b382ff6)" d="M 361.152 283.392 
L 374.4576 283.392 
" style="fill:none;stroke:#00e88b;stroke-width:1.5;"/>
    <path clip-path="url(#p660b382ff6)" d="M 361.152 271.296 
L 374.4576 271.296 
" style="fill:none;stroke:#00dd90;stroke-width:1.5;"/>
    <path clip-path="url(#p660b382ff6)" d="M 361.152 259.2 
L 374.4576 259.2 
" style="fill:none;stroke:#00d196;stroke-width:1.5;"/>
    <path clip-path="url(#p660b382ff6)" d="M 361.152 247.104 
L 374.4576 247.104 
" style="fill:none;stroke:#00c59c;stroke-width:1.5;"/>
    <path clip-path="url(#p660b382ff6)" d="M 361.152 235.008 
L 374.4576 235.008 
" style="fill:none;stroke:#00baa2;stroke-width:1.5;"/>
    <path clip-path="url(#p660b382ff6)" d="M 361.152 222.912 
L 374.4576 222.912 
" style="fill:none;stroke:#00aea8;stroke-width:1.5;"/>
    <path clip-path="url(#p660b382ff6)" d="M 361.152 210.816 
L 374.4576 210.816 
" style="fill:none;stroke:#00a2ae;stroke-width:1.5;"/>
    <path clip-path="url(#p660b382ff6)" d="M 361.152 198.72 
L 374.4576 198.72 
" style="fill:none;stroke:#0097b3;stroke-width:1.5;"/>
    <path clip-path="url(#p660b382ff6)" d="M 361.152 186.624 
L 374.4576 186.624 
" style="fill:none;stroke:#008bba;stroke-width:1.5;"/>
    <path clip-path="url(#p660b382ff6)" d="M 361.152 174.528 
L 374.4576 174.528 
" style="fill:none;stroke:#007fc0;stroke-width:1.5;"/>
    <path clip-path="url(#p660b382ff6)" d="M 361.152 162.432 
L 374.4576 162.432 
" style="fill:none;stroke:#0074c5;stroke-width:1.5;"/>
    <path clip-path="url(#p660b382ff6)" d="M 361.152 150.336 
L 374.4576 150.336 
" style="fill:none;stroke:#0068cb;stroke-width:1.5;"/>
    <path clip-path="url(#p660b382ff6)" d="M 361.152 138.24 
L 374.4576 138.24 
" style="fill:none;stroke:#005dd0;stroke-width:1.5;"/>
    <path clip-path="url(#p660b382ff6)" d="M 361.152 126.144 
L 374.4576 126.144 
" style="fill:none;stroke:#0051d6;stroke-width:1.5;"/>
    <path clip-path="url(#p660b382ff6)" d="M 361.152 114.048 
L 374.4576 114.048 
" style="fill:none;stroke:#0045dc;stroke-width:1.5;"/>
    <path clip-path="url(#p660b382ff6)" d="M 361.152 101.952 
L 374.4576 101.952 
" style="fill:none;stroke:#003ae2;stroke-width:1.5;"/>
    <path clip-path="url(#p660b382ff6)" d="M 361.152 89.856 
L 374.4576 89.856 
" style="fill:none;stroke:#002ee8;stroke-width:1.5;"/>
    <path clip-path="url(#p660b382ff6)" d="M 361.152 77.76 
L 374.4576 77.76 
" style="fill:none;stroke:#0022ee;stroke-width:1.5;"/>
    <path clip-path="url(#p660b382ff6)" d="M 361.152 65.664 
L 374.4576 65.664 
" style="fill:none;stroke:#0017f3;stroke-width:1.5;"/>
    <path clip-path="url(#p660b382ff6)" d="M 361.152 53.568 
L 374.4576 53.568 
" style="fill:none;stroke:#000bfa;stroke-width:1.5;"/>
    <path clip-path="url(#p660b382ff6)" d="M 361.152 41.472 
L 374.4576 41.472 
" style="fill:none;stroke:#0000ff;stroke-width:1.5;"/>
   </g>
   <g id="patch_8">
    <path d="M 361.152 307.584 
L 361.152 295.488 
L 361.152 53.568 
L 361.152 41.472 
L 374.4576 41.472 
L 374.4576 53.568 
L 374.4576 295.488 
L 374.4576 307.584 
z
" style="fill:none;stroke:#000000;stroke-linejoin:miter;stroke-width:0.8;"/>
   </g>
  </g>
 </g>
 <defs>
  <clipPath id="p847e0d0725">
   <rect height="266.112" width="285.696" x="57.6" y="41.472"/>
  </clipPath>
  <clipPath id="p660b382ff6">
   <rect height="266.112" width="13.3056" x="361.152" y="41.472"/>
  </clipPath>
 </defs>
</svg>
